%
M48
METRIC,000.000
T01C0.40
T02C2.60
%
T01
X017321Y083734
X017321Y016734
X028571Y027734
X017321Y038734
X017321Y061234
X028571Y050234
X051071Y027734
X084821Y016234
X073571Y027734
X039821Y016734
X062321Y016734
X028571Y072734
X051071Y050234
X084821Y038734
X062321Y038734
X039821Y061234
X039821Y038734
X039821Y083734
X073571Y072734
X073571Y050234
X062321Y061234
X084821Y061234
X051071Y072734
X084821Y083734
X062321Y083734
T02
X016381Y091455
X008558Y083810
X024001Y083632
X016178Y075961
X016381Y024455
X008558Y016810
X024001Y016632
X016178Y008961
X027631Y035455
X019808Y027810
X035251Y027632
X027428Y019961
X016381Y046455
X008558Y038810
X024001Y038632
X016178Y030961
X016381Y068955
X008558Y061310
X024001Y061132
X016178Y053461
X027631Y057955
X019808Y050310
X035251Y050132
X027428Y042461
X050131Y035455
X042308Y027810
X057751Y027632
X049928Y019961
X083881Y023955
X076058Y016309
X091502Y016132
X083678Y008461
X072631Y035455
X064808Y027810
X080252Y027632
X072428Y019961
X038881Y024455
X031058Y016810
X046501Y016632
X038678Y008961
X061381Y024455
X053558Y016810
X069002Y016632
X061178Y008961
X027631Y080455
X019808Y072810
X035251Y072632
X027428Y064961
X050131Y057955
X042308Y050310
X057751Y050132
X049928Y042461
X083881Y046455
X076058Y038810
X091502Y038632
X083678Y030961
X061381Y046455
X053558Y038810
X069002Y038632
X061178Y030961
X038881Y068955
X031058Y061310
X046501Y061132
X038678Y053461
X038881Y046455
X031058Y038810
X046501Y038632
X038678Y030961
X038881Y091455
X031058Y083810
X046501Y083632
X038678Y075961
X072631Y080455
X064808Y072810
X080252Y072632
X072428Y064961
X072631Y057955
X064808Y050310
X080252Y050132
X072428Y042461
X061381Y068955
X053558Y061310
X069002Y061132
X061178Y053461
X083881Y068955
X076058Y061310
X091502Y061132
X083678Y053461
X050131Y080455
X042308Y072810
X057751Y072632
X049928Y064961
X083881Y091455
X076058Y083810
X091502Y083632
X083678Y075961
X061381Y091455
X053558Y083810
X069002Y083632
X061178Y075961
M30