%MOIN*%
%OFA0B0*%
%FSLAX46Y46*%
%IPPOS*%
%LPD*%
%ADD10C,0.07874015748031496*%
%ADD11C,0.0078740157480314977*%
%ADD22C,0.11811023622047245*%
%ADD23C,0.0039370078740157488*%
%ADD24C,0.031496062992125991*%
%ADD25C,0.015748031496062995*%
%ADD26C,0.11811023622047245*%
%ADD27C,0.0039370078740157488*%
%ADD28C,0.031496062992125991*%
%ADD29C,0.015748031496062995*%
%ADD30C,0.11811023622047245*%
%ADD31C,0.0039370078740157488*%
%ADD32C,0.031496062992125991*%
%ADD33C,0.015748031496062995*%
%ADD34C,0.11811023622047245*%
%ADD35C,0.0039370078740157488*%
%ADD36C,0.031496062992125991*%
%ADD37C,0.015748031496062995*%
%ADD38C,0.11811023622047245*%
%ADD39C,0.0039370078740157488*%
%ADD40C,0.031496062992125991*%
%ADD41C,0.015748031496062995*%
%ADD42C,0.11811023622047245*%
%ADD43C,0.0039370078740157488*%
%ADD44C,0.031496062992125991*%
%ADD45C,0.015748031496062995*%
%ADD46C,0.11811023622047245*%
%ADD47C,0.0039370078740157488*%
%ADD48C,0.031496062992125991*%
%ADD49C,0.015748031496062995*%
%ADD50C,0.11811023622047245*%
%ADD51C,0.0039370078740157488*%
%ADD52C,0.031496062992125991*%
%ADD53C,0.015748031496062995*%
%ADD54C,0.11811023622047245*%
%ADD55C,0.0039370078740157488*%
%ADD56C,0.031496062992125991*%
%ADD57C,0.015748031496062995*%
%ADD58C,0.11811023622047245*%
%ADD59C,0.0039370078740157488*%
%ADD60C,0.031496062992125991*%
%ADD61C,0.015748031496062995*%
%ADD62C,0.11811023622047245*%
%ADD63C,0.0039370078740157488*%
%ADD64C,0.031496062992125991*%
%ADD65C,0.015748031496062995*%
%ADD66C,0.11811023622047245*%
%ADD67C,0.0039370078740157488*%
%ADD68C,0.031496062992125991*%
%ADD69C,0.015748031496062995*%
%ADD70C,0.11811023622047245*%
%ADD71C,0.0039370078740157488*%
%ADD72C,0.031496062992125991*%
%ADD73C,0.015748031496062995*%
%ADD74C,0.11811023622047245*%
%ADD75C,0.0039370078740157488*%
%ADD76C,0.031496062992125991*%
%ADD77C,0.015748031496062995*%
%ADD78C,0.11811023622047245*%
%ADD79C,0.0039370078740157488*%
%ADD80C,0.031496062992125991*%
%ADD81C,0.015748031496062995*%
%ADD82C,0.11811023622047245*%
%ADD83C,0.0039370078740157488*%
%ADD84C,0.031496062992125991*%
%ADD85C,0.015748031496062995*%
%ADD86C,0.11811023622047245*%
%ADD87C,0.0039370078740157488*%
%ADD88C,0.031496062992125991*%
%ADD89C,0.015748031496062995*%
%ADD90C,0.11811023622047245*%
%ADD91C,0.0039370078740157488*%
%ADD92C,0.031496062992125991*%
%ADD93C,0.015748031496062995*%
%ADD94C,0.11811023622047245*%
%ADD95C,0.0039370078740157488*%
%ADD96C,0.031496062992125991*%
%ADD97C,0.015748031496062995*%
%ADD98C,0.11811023622047245*%
%ADD99C,0.0039370078740157488*%
%ADD100C,0.031496062992125991*%
%ADD101C,0.015748031496062995*%
%ADD102C,0.11811023622047245*%
%ADD103C,0.0039370078740157488*%
%ADD104C,0.031496062992125991*%
%ADD105C,0.015748031496062995*%
%ADD106C,0.11811023622047245*%
%ADD107C,0.0039370078740157488*%
%ADD108C,0.031496062992125991*%
%ADD109C,0.015748031496062995*%
%ADD110C,0.11811023622047245*%
%ADD111C,0.0039370078740157488*%
%ADD112C,0.031496062992125991*%
%ADD113C,0.015748031496062995*%
%ADD114C,0.11811023622047245*%
%ADD115C,0.0039370078740157488*%
%ADD116C,0.031496062992125991*%
%ADD117C,0.015748031496062995*%
%ADD118C,0.11811023622047245*%
%ADD119C,0.0039370078740157488*%
%ADD120C,0.031496062992125991*%
%ADD121C,0.015748031496062995*%
D10*
X0000000000Y0000000000D02*
X0000393700Y0000098400D03*
X0003543200Y0000098400D03*
X0000393700Y0003838500D03*
D11*
X0002345200Y0003863099D02*
X0002326800Y0003863099D01*
X0002321700Y0003862700D01*
X0002317700Y0003861600D01*
X0002314700Y0003859700D01*
X0002312300Y0003857000D01*
X0002311000Y0003853800D01*
X0002310500Y0003850500D01*
X0002310900Y0003847500D01*
X0002312100Y0003844500D01*
X0002314200Y0003842100D01*
X0002317400Y0003840100D01*
X0002313400Y0003838300D01*
X0002310500Y0003835600D01*
X0002308700Y0003832100D01*
X0002308100Y0003828200D01*
X0002308500Y0003824800D01*
X0002309600Y0003821800D01*
X0002311200Y0003819100D01*
X0002313200Y0003817200D01*
X0002318400Y0003814699D01*
X0002322100Y0003814100D01*
X0002326400Y0003813900D01*
X0002345200Y0003813900D01*
X0002345200Y0003863099D01*
X0002328100Y0003842400D02*
X0002324300Y0003842500D01*
X0002321900Y0003842900D01*
X0002318100Y0003845500D01*
X0002316900Y0003849800D01*
X0002318100Y0003854100D01*
X0002321400Y0003856500D01*
X0002324300Y0003857100D01*
X0002328900Y0003857300D01*
X0002338600Y0003857300D01*
X0002338600Y0003842400D01*
X0002328100Y0003842400D01*
X0002326400Y0003819700D02*
X0002323800Y0003819700D01*
X0002322000Y0003820000D01*
X0002318200Y0003821300D01*
X0002315800Y0003824000D01*
X0002314800Y0003828200D01*
X0002315200Y0003830800D01*
X0002316100Y0003833000D01*
X0002320200Y0003835800D01*
X0002323200Y0003836400D01*
X0002327400Y0003836600D01*
X0002338600Y0003836600D01*
X0002338600Y0003819700D01*
X0002326400Y0003819700D01*
X0002300000Y0003849600D02*
X0002294500Y0003849600D01*
X0002294500Y0003844100D01*
X0002292500Y0003847300D01*
X0002290700Y0003849200D01*
X0002286800Y0003850400D01*
X0002283700Y0003849900D01*
X0002280600Y0003848400D01*
X0002282700Y0003842800D01*
X0002284900Y0003843700D01*
X0002287100Y0003844100D01*
X0002290700Y0003842900D01*
X0002292900Y0003839600D01*
X0002293900Y0003832500D01*
X0002293900Y0003813900D01*
X0002300000Y0003813900D01*
X0002300000Y0003849600D01*
X0002277000Y0003863099D02*
X0002271000Y0003863099D01*
X0002271000Y0003856100D01*
X0002277000Y0003856100D01*
X0002277000Y0003863099D01*
X0002277000Y0003849600D02*
X0002271000Y0003849600D01*
X0002271000Y0003813900D01*
X0002277000Y0003813900D01*
X0002277000Y0003849600D01*
X0002232600Y0003826200D02*
X0002234300Y0003820700D01*
X0002237600Y0003816600D01*
X0002242000Y0003814000D01*
X0002247400Y0003813100D01*
X0002254000Y0003814300D01*
X0002259200Y0003817900D01*
X0002262500Y0003823700D01*
X0002263600Y0003831600D01*
X0002263100Y0003837000D01*
X0002261700Y0003841700D01*
X0002259300Y0003845500D01*
X0002255900Y0003848200D01*
X0002251700Y0003849800D01*
X0002247400Y0003850400D01*
X0002242100Y0003849600D01*
X0002237800Y0003847400D01*
X0002234900Y0003843900D01*
X0002233200Y0003839099D01*
X0002239000Y0003838200D01*
X0002240200Y0003841300D01*
X0002242000Y0003843600D01*
X0002244300Y0003844900D01*
X0002247100Y0003845400D01*
X0002251300Y0003844500D01*
X0002254600Y0003842100D01*
X0002256700Y0003837900D01*
X0002257400Y0003831700D01*
X0002256700Y0003825600D01*
X0002254700Y0003821300D01*
X0002251500Y0003818900D01*
X0002247500Y0003818100D01*
X0002244200Y0003818500D01*
X0002241500Y0003820300D01*
X0002239500Y0003823000D01*
X0002238500Y0003827000D01*
X0002232600Y0003826200D01*
X0002229300Y0003836400D02*
X0002228300Y0003840400D01*
X0002226600Y0003843700D01*
X0002224200Y0003846400D01*
X0002219100Y0003849400D01*
X0002213000Y0003850400D01*
X0002206300Y0003849200D01*
X0002200900Y0003845500D01*
X0002197400Y0003839800D01*
X0002196300Y0003832100D01*
X0002196800Y0003826100D01*
X0002198300Y0003821400D01*
X0002200900Y0003817900D01*
X0002204400Y0003815300D01*
X0002208500Y0003813700D01*
X0002213000Y0003813100D01*
X0002219700Y0003814300D01*
X0002225100Y0003817900D01*
X0002228500Y0003823800D01*
X0002229600Y0003831700D01*
X0002229300Y0003836400D01*
X0002222700Y0003825800D02*
X0002220500Y0003821500D01*
X0002217100Y0003818900D01*
X0002213000Y0003818100D01*
X0002208800Y0003818900D01*
X0002205400Y0003821500D01*
X0002203200Y0003825800D01*
X0002202500Y0003831900D01*
X0002203200Y0003837700D01*
X0002205400Y0003842000D01*
X0002208900Y0003844500D01*
X0002213000Y0003845400D01*
X0002217100Y0003844500D01*
X0002220500Y0003842000D01*
X0002222700Y0003837700D01*
X0002223500Y0003831700D01*
X0002222700Y0003825800D01*
X0002188400Y0003863099D02*
X0002169900Y0003863099D01*
X0002165600Y0003863000D01*
X0002162400Y0003862600D01*
X0002156300Y0003860300D01*
X0002154100Y0003858300D01*
X0002152400Y0003855600D01*
X0002151300Y0003852400D01*
X0002150900Y0003848900D01*
X0002151900Y0003843100D01*
X0002154900Y0003838300D01*
X0002157300Y0003836400D01*
X0002160500Y0003835000D01*
X0002164500Y0003834200D01*
X0002169200Y0003833900D01*
X0002181900Y0003833900D01*
X0002181900Y0003813900D01*
X0002188400Y0003813900D01*
X0002188400Y0003863099D01*
X0002169200Y0003839700D02*
X0002163800Y0003840200D01*
X0002160300Y0003842100D01*
X0002158300Y0003844900D01*
X0002157600Y0003848700D01*
X0002158000Y0003851499D01*
X0002159100Y0003854000D01*
X0002161000Y0003855700D01*
X0002163300Y0003856900D01*
X0002165600Y0003857200D01*
X0002169200Y0003857300D01*
X0002181900Y0003857300D01*
X0002181900Y0003839700D01*
X0002169200Y0003839700D01*
X0002143300Y0003863099D02*
X0002137300Y0003863099D01*
X0002137300Y0003856100D01*
X0002143300Y0003856100D01*
X0002143300Y0003863099D01*
X0002143300Y0003849600D02*
X0002137300Y0003849600D01*
X0002137300Y0003813900D01*
X0002143300Y0003813900D01*
X0002143300Y0003849600D01*
X0002119100Y0003832400D02*
X0002131200Y0003849600D01*
X0002123600Y0003849600D01*
X0002118200Y0003841200D01*
X0002115700Y0003837200D01*
X0002113000Y0003841100D01*
X0002107000Y0003849600D01*
X0002099700Y0003849600D01*
X0002112000Y0003832800D01*
X0002098800Y0003813900D01*
X0002106200Y0003813900D01*
X0002113500Y0003825000D01*
X0002115500Y0003828000D01*
X0002124800Y0003813900D01*
X0002132100Y0003813900D01*
X0002119100Y0003832400D01*
X0002063100Y0003824600D02*
X0002065200Y0003819700D01*
X0002068600Y0003816100D01*
X0002073200Y0003813900D01*
X0002078800Y0003813100D01*
X0002085799Y0003814300D01*
X0002091200Y0003817900D01*
X0002094500Y0003823700D01*
X0002095800Y0003831300D01*
X0002094500Y0003839400D01*
X0002091100Y0003845400D01*
X0002085799Y0003849100D01*
X0002079100Y0003850400D01*
X0002072600Y0003849100D01*
X0002067500Y0003845500D01*
X0002064099Y0003839600D01*
X0002062900Y0003831700D01*
X0002063000Y0003830100D01*
X0002089500Y0003830100D01*
X0002088400Y0003825000D01*
X0002086199Y0003821200D01*
X0002082900Y0003818900D01*
X0002078800Y0003818100D01*
X0002075699Y0003818500D01*
X0002073100Y0003819700D01*
X0002071000Y0003822100D01*
X0002069400Y0003825400D01*
X0002063100Y0003824600D01*
X0002069300Y0003835200D02*
X0002070100Y0003839099D01*
X0002071600Y0003841900D01*
X0002074900Y0003844500D01*
X0002079100Y0003845400D01*
X0002082900Y0003844700D01*
X0002086100Y0003842500D01*
X0002088299Y0003839400D01*
X0002089200Y0003835200D01*
X0002069300Y0003835200D01*
X0002055699Y0003863099D02*
X0002049700Y0003863099D01*
X0002049700Y0003813900D01*
X0002055699Y0003813900D01*
X0002055699Y0003863099D01*
X0002036700Y0003825500D02*
X0002035800Y0003822300D01*
X0002033900Y0003820000D01*
X0002031200Y0003818500D01*
X0002027499Y0003818100D01*
X0002023800Y0003818500D01*
X0002021300Y0003819700D01*
X0002019800Y0003821600D01*
X0002019299Y0003823800D01*
X0002019800Y0003825600D01*
X0002021100Y0003827000D01*
X0002023299Y0003827899D01*
X0002027299Y0003829000D01*
X0002032900Y0003830500D01*
X0002036500Y0003831900D01*
X0002040400Y0003835300D01*
X0002041399Y0003837600D01*
X0002041700Y0003840100D01*
X0002040600Y0003844500D01*
X0002037599Y0003847900D01*
X0002033799Y0003849600D01*
X0002028600Y0003850400D01*
X0002021200Y0003849200D01*
X0002018500Y0003847700D01*
X0002016500Y0003845900D01*
X0002015299Y0003843500D01*
X0002014500Y0003840400D01*
X0002020400Y0003839600D01*
X0002021200Y0003842000D01*
X0002022700Y0003843700D01*
X0002025000Y0003845000D01*
X0002028000Y0003845400D01*
X0002031699Y0003845000D01*
X0002034100Y0003844000D01*
X0002035400Y0003842500D01*
X0002035899Y0003840800D01*
X0002035100Y0003838700D01*
X0002032800Y0003837100D01*
X0002031000Y0003836500D01*
X0002027499Y0003835500D01*
X0002021900Y0003834000D01*
X0002018500Y0003832700D01*
X0002014600Y0003829600D01*
X0002013500Y0003827200D01*
X0002013100Y0003824400D01*
X0002013599Y0003821500D01*
X0002014900Y0003818700D01*
X0002017000Y0003816300D01*
X0002020000Y0003814600D01*
X0002023499Y0003813500D01*
X0002027499Y0003813100D01*
X0002033599Y0003813800D01*
X0002038100Y0003816000D01*
X0002041000Y0003819600D01*
X0002042700Y0003824600D01*
X0002036700Y0003825500D01*
X0001986400Y0003863099D02*
X0001979800Y0003863099D01*
X0001979800Y0003819700D01*
X0001955600Y0003819700D01*
X0001955600Y0003813900D01*
X0001986400Y0003813900D01*
X0001986400Y0003863099D01*
X0001947700Y0003863099D02*
X0001912200Y0003863099D01*
X0001912200Y0003857300D01*
X0001941200Y0003857300D01*
X0001941200Y0003842100D01*
X0001914000Y0003842100D01*
X0001914000Y0003836500D01*
X0001941200Y0003836500D01*
X0001941200Y0003819700D01*
X0001911000Y0003819700D01*
X0001911000Y0003813900D01*
X0001947700Y0003813900D01*
X0001947700Y0003863099D01*
X0001902000Y0003863099D02*
X0001885000Y0003863099D01*
X0001880100Y0003862900D01*
X0001876400Y0003862400D01*
X0001872400Y0003861000D01*
X0001869100Y0003858900D01*
X0001865700Y0003855100D01*
X0001863300Y0003850500D01*
X0001861900Y0003845000D01*
X0001861400Y0003838800D01*
X0001861600Y0003833500D01*
X0001862700Y0003828900D01*
X0001864200Y0003824900D01*
X0001866100Y0003821700D01*
X0001870500Y0003817200D01*
X0001876400Y0003814800D01*
X0001884300Y0003813900D01*
X0001902000Y0003813900D01*
X0001902000Y0003863099D01*
X0001885000Y0003819700D02*
X0001880700Y0003820000D01*
X0001877400Y0003820600D01*
X0001873000Y0003823200D01*
X0001870900Y0003825900D01*
X0001869400Y0003829400D01*
X0001868400Y0003833700D01*
X0001868100Y0003838900D01*
X0001868700Y0003845700D01*
X0001870600Y0003850700D01*
X0001873400Y0003854100D01*
X0001876800Y0003856300D01*
X0001880200Y0003857100D01*
X0001885200Y0003857300D01*
X0001895500Y0003857300D01*
X0001895500Y0003819700D01*
X0001885000Y0003819700D01*
X0001836400Y0003834800D02*
X0001817899Y0003834800D01*
X0001817899Y0003828700D01*
X0001836400Y0003828700D01*
X0001836400Y0003834800D01*
X0001792200Y0003813900D02*
X0001792200Y0003863099D01*
X0001786100Y0003863099D01*
X0001786100Y0003845600D01*
X0001781800Y0003849200D01*
X0001776400Y0003850400D01*
X0001773200Y0003850000D01*
X0001770200Y0003849000D01*
X0001765300Y0003845300D01*
X0001762400Y0003839499D01*
X0001761300Y0003832300D01*
X0001762400Y0003824200D01*
X0001765800Y0003818100D01*
X0001770800Y0003814400D01*
X0001776700Y0003813100D01*
X0001779700Y0003813500D01*
X0001782200Y0003814400D01*
X0001784600Y0003816100D01*
X0001786600Y0003818400D01*
X0001786600Y0003813900D01*
X0001792200Y0003813900D01*
X0001786200Y0003826500D02*
X0001784900Y0003822700D01*
X0001781600Y0003819300D01*
X0001777200Y0003818100D01*
X0001773500Y0003818900D01*
X0001770200Y0003821500D01*
X0001768200Y0003825800D01*
X0001767500Y0003831700D01*
X0001768200Y0003837800D01*
X0001770200Y0003842100D01*
X0001773300Y0003844500D01*
X0001776900Y0003845400D01*
X0001780600Y0003844500D01*
X0001783800Y0003842000D01*
X0001785900Y0003837700D01*
X0001786600Y0003832000D01*
X0001786200Y0003826500D01*
X0001755800Y0003836400D02*
X0001754800Y0003840400D01*
X0001753100Y0003843700D01*
X0001750700Y0003846400D01*
X0001745600Y0003849400D01*
X0001739499Y0003850400D01*
X0001732800Y0003849200D01*
X0001727400Y0003845500D01*
X0001724000Y0003839800D01*
X0001722800Y0003832100D01*
X0001723300Y0003826100D01*
X0001724900Y0003821400D01*
X0001727400Y0003817900D01*
X0001730900Y0003815300D01*
X0001735000Y0003813700D01*
X0001739499Y0003813100D01*
X0001746200Y0003814300D01*
X0001751600Y0003817900D01*
X0001755000Y0003823800D01*
X0001756200Y0003831700D01*
X0001755800Y0003836400D01*
X0001749200Y0003825800D02*
X0001747000Y0003821500D01*
X0001743600Y0003818900D01*
X0001739499Y0003818100D01*
X0001735400Y0003818900D01*
X0001732000Y0003821500D01*
X0001729800Y0003825800D01*
X0001729000Y0003831900D01*
X0001729800Y0003837700D01*
X0001732000Y0003842000D01*
X0001735400Y0003844500D01*
X0001739499Y0003845400D01*
X0001743600Y0003844500D01*
X0001747000Y0003842000D01*
X0001749200Y0003837700D01*
X0001750000Y0003831700D01*
X0001749200Y0003825800D01*
X0001701700Y0003814000D02*
X0001706200Y0003813500D01*
X0001709200Y0003813700D01*
X0001711300Y0003814500D01*
X0001713900Y0003817200D01*
X0001714400Y0003819900D01*
X0001714600Y0003824400D01*
X0001714600Y0003844900D01*
X0001719100Y0003844900D01*
X0001719100Y0003849600D01*
X0001714600Y0003849600D01*
X0001714600Y0003858400D01*
X0001708600Y0003862000D01*
X0001708600Y0003849600D01*
X0001702500Y0003849600D01*
X0001702500Y0003844900D01*
X0001708600Y0003844900D01*
X0001708600Y0003824000D01*
X0001708500Y0003821900D01*
X0001708300Y0003820700D01*
X0001707300Y0003819500D01*
X0001705200Y0003819100D01*
X0001702500Y0003819300D01*
X0001701700Y0003814000D01*
X0001682600Y0003814000D02*
X0001687200Y0003813500D01*
X0001690100Y0003813700D01*
X0001692200Y0003814500D01*
X0001694800Y0003817200D01*
X0001695400Y0003819900D01*
X0001695500Y0003824400D01*
X0001695500Y0003844900D01*
X0001700000Y0003844900D01*
X0001700000Y0003849600D01*
X0001695500Y0003849600D01*
X0001695500Y0003858400D01*
X0001689500Y0003862000D01*
X0001689500Y0003849600D01*
X0001683500Y0003849600D01*
X0001683500Y0003844900D01*
X0001689500Y0003844900D01*
X0001689500Y0003824000D01*
X0001689500Y0003821900D01*
X0001689200Y0003820700D01*
X0001688200Y0003819500D01*
X0001686100Y0003819100D01*
X0001683500Y0003819300D01*
X0001682600Y0003814000D01*
X0001679500Y0003836400D02*
X0001678400Y0003840400D01*
X0001676700Y0003843700D01*
X0001674300Y0003846400D01*
X0001669200Y0003849400D01*
X0001663100Y0003850400D01*
X0001656400Y0003849200D01*
X0001651100Y0003845500D01*
X0001647600Y0003839800D01*
X0001646400Y0003832100D01*
X0001646900Y0003826100D01*
X0001648499Y0003821400D01*
X0001651000Y0003817900D01*
X0001654499Y0003815300D01*
X0001658600Y0003813700D01*
X0001663100Y0003813100D01*
X0001669900Y0003814300D01*
X0001675200Y0003817900D01*
X0001678699Y0003823800D01*
X0001679800Y0003831700D01*
X0001679500Y0003836400D01*
X0001672899Y0003825800D02*
X0001670600Y0003821500D01*
X0001667200Y0003818900D01*
X0001663100Y0003818100D01*
X0001659000Y0003818900D01*
X0001655600Y0003821500D01*
X0001653400Y0003825800D01*
X0001652600Y0003831900D01*
X0001653400Y0003837700D01*
X0001655600Y0003842000D01*
X0001659000Y0003844500D01*
X0001663100Y0003845400D01*
X0001667200Y0003844500D01*
X0001670600Y0003842000D01*
X0001672899Y0003837700D01*
X0001673600Y0003831700D01*
X0001672899Y0003825800D01*
X0001639300Y0003849600D02*
X0001633799Y0003849600D01*
X0001633799Y0003844500D01*
X0001629500Y0003848800D01*
X0001626500Y0003850000D01*
X0001623100Y0003850400D01*
X0001619500Y0003849900D01*
X0001616700Y0003848700D01*
X0001614500Y0003846700D01*
X0001613100Y0003844100D01*
X0001610800Y0003846800D01*
X0001608200Y0003848800D01*
X0001605300Y0003850000D01*
X0001602100Y0003850400D01*
X0001597300Y0003849600D01*
X0001593800Y0003847400D01*
X0001591800Y0003843700D01*
X0001591100Y0003838400D01*
X0001591100Y0003813900D01*
X0001597100Y0003813900D01*
X0001597100Y0003836400D01*
X0001597200Y0003839499D01*
X0001597599Y0003841600D01*
X0001599800Y0003844100D01*
X0001603300Y0003845100D01*
X0001606900Y0003844500D01*
X0001609599Y0003842500D01*
X0001611500Y0003839400D01*
X0001612000Y0003834600D01*
X0001612000Y0003813900D01*
X0001618200Y0003813900D01*
X0001618200Y0003837100D01*
X0001618400Y0003840600D01*
X0001619700Y0003843100D01*
X0001621600Y0003844500D01*
X0001624400Y0003845100D01*
X0001626900Y0003844800D01*
X0001629200Y0003843700D01*
X0001632300Y0003839899D01*
X0001633100Y0003836700D01*
X0001633300Y0003832400D01*
X0001633300Y0003813900D01*
X0001639300Y0003813900D01*
X0001639300Y0003849600D01*
G04 next file*
G04 #@! TF.GenerationSoftware,KiCad,Pcbnew,(5.0.1)-4*
G04 #@! TF.CreationDate,2020-02-20T17:45:55+01:00*
G04 #@! TF.ProjectId,bricopixels,627269636F706978656C732E6B696361,1*
G04 #@! TF.SameCoordinates,Original*
G04 #@! TF.FileFunction,Copper,L2,Bot,Signal*
G04 #@! TF.FilePolarity,Positive*
G04 Gerber Fmt 4.6, Leading zero omitted, Abs format (unit mm)*
G04 Created by KiCad (PCBNEW (5.0.1)-4) date 20/02/2020 17:45:55*
G01*
G04 APERTURE LIST*
G04 #@! TA.AperFunction,ComponentPad*
G04 #@! TD*
G04 #@! TA.AperFunction,Conductor*
G04 #@! TD*
G04 #@! TA.AperFunction,ViaPad*
G04 #@! TD*
G04 #@! TA.AperFunction,Conductor*
G04 #@! TD*
G04 APERTURE END LIST*
D22*
G04 #@! TO.P,J1,1*
G04 #@! TO.N,VCC*
X-0002185039Y0004586614D02*
X0000336960Y0003299614D03*
D23*
G04 #@! TD*
G04 #@! TO.N,VCC*
G04 #@! TO.C,J1*
G36*
X0000249065Y0003300193D02*
X0000254065Y0003325193D01*
X0000254233Y0003325747D01*
X0000254654Y0003326458D01*
X0000274654Y0003351458D01*
X0000275059Y0003351873D01*
X0000275322Y0003352071D01*
X0000335322Y0003392071D01*
X0000335526Y0003392195D01*
X0000380526Y0003417195D01*
X0000381057Y0003417425D01*
X0000381623Y0003417547D01*
X0000382202Y0003417557D01*
X0000382771Y0003417453D01*
X0000383310Y0003417240D01*
X0000383796Y0003416926D01*
X0000384266Y0003416458D01*
X0000404266Y0003391458D01*
X0000404674Y0003390777D01*
X0000419674Y0003355777D01*
X0000419856Y0003355193D01*
X0000424856Y0003330193D01*
X0000424913Y0003329614D01*
X0000424913Y0003269614D01*
X0000424856Y0003269035D01*
X0000419856Y0003244035D01*
X0000419601Y0003243293D01*
X0000394601Y0003193293D01*
X0000394293Y0003192803D01*
X0000394048Y0003192526D01*
X0000379048Y0003177526D01*
X0000378601Y0003177159D01*
X0000378090Y0003176886D01*
X0000377536Y0003176718D01*
X0000376960Y0003176661D01*
X0000376384Y0003176718D01*
X0000375830Y0003176886D01*
X0000375526Y0003177032D01*
X0000330526Y0003202032D01*
X0000330223Y0003202226D01*
X0000275223Y0003242226D01*
X0000274654Y0003242769D01*
X0000254654Y0003267769D01*
X0000254339Y0003268254D01*
X0000254124Y0003268792D01*
X0000254048Y0003269128D01*
X0000249048Y0003299128D01*
X0000249009Y0003299706D01*
X0000249065Y0003300193D01*
X0000249065Y0003300193D01*
G37*
D22*
G04 #@! TO.P,J2,1*
G04 #@! TO.N,Net-(D1-Pad2)*
X0000644960Y0003600614D03*
D23*
G04 #@! TD*
G04 #@! TO.N,Net-(D1-Pad2)*
G04 #@! TO.C,J2*
G36*
X0000645539Y0003688509D02*
X0000670539Y0003683509D01*
X0000671093Y0003683340D01*
X0000671805Y0003682919D01*
X0000696805Y0003662919D01*
X0000697219Y0003662515D01*
X0000697417Y0003662252D01*
X0000737417Y0003602252D01*
X0000737541Y0003602048D01*
X0000762541Y0003557048D01*
X0000762771Y0003556517D01*
X0000762894Y0003555951D01*
X0000762903Y0003555372D01*
X0000762799Y0003554802D01*
X0000762586Y0003554264D01*
X0000762273Y0003553778D01*
X0000761805Y0003553308D01*
X0000736805Y0003533308D01*
X0000736123Y0003532900D01*
X0000701123Y0003517900D01*
X0000700539Y0003517718D01*
X0000675539Y0003512718D01*
X0000674960Y0003512661D01*
X0000614960Y0003512661D01*
X0000614381Y0003512718D01*
X0000589381Y0003517718D01*
X0000588640Y0003517973D01*
X0000538640Y0003542973D01*
X0000538150Y0003543281D01*
X0000537872Y0003543526D01*
X0000522872Y0003558526D01*
X0000522505Y0003558973D01*
X0000522232Y0003559484D01*
X0000522064Y0003560038D01*
X0000522007Y0003560614D01*
X0000522064Y0003561190D01*
X0000522232Y0003561744D01*
X0000522379Y0003562048D01*
X0000547379Y0003607048D01*
X0000547572Y0003607350D01*
X0000587572Y0003662350D01*
X0000588116Y0003662919D01*
X0000613116Y0003682919D01*
X0000613601Y0003683235D01*
X0000614138Y0003683450D01*
X0000614475Y0003683526D01*
X0000644475Y0003688526D01*
X0000645052Y0003688565D01*
X0000645539Y0003688509D01*
X0000645539Y0003688509D01*
G37*
D22*
G04 #@! TO.P,J3,1*
G04 #@! TO.N,GND*
X0000944960Y0003292614D03*
D23*
G04 #@! TD*
G04 #@! TO.N,GND*
G04 #@! TO.C,J3*
G36*
X0001032856Y0003292035D02*
X0001027856Y0003267035D01*
X0001027687Y0003266481D01*
X0001027266Y0003265769D01*
X0001007266Y0003240769D01*
X0001006862Y0003240355D01*
X0001006598Y0003240157D01*
X0000946598Y0003200157D01*
X0000946394Y0003200032D01*
X0000901394Y0003175032D01*
X0000900863Y0003174802D01*
X0000900297Y0003174680D01*
X0000899718Y0003174671D01*
X0000899149Y0003174775D01*
X0000898611Y0003174987D01*
X0000898124Y0003175301D01*
X0000897654Y0003175769D01*
X0000877654Y0003200769D01*
X0000877246Y0003201451D01*
X0000862246Y0003236451D01*
X0000862065Y0003237035D01*
X0000857065Y0003262035D01*
X0000857007Y0003262614D01*
X0000857007Y0003322614D01*
X0000857065Y0003323193D01*
X0000862065Y0003348193D01*
X0000862319Y0003348934D01*
X0000887319Y0003398934D01*
X0000887627Y0003399424D01*
X0000887872Y0003399702D01*
X0000902872Y0003414702D01*
X0000903320Y0003415069D01*
X0000903830Y0003415342D01*
X0000904384Y0003415510D01*
X0000904960Y0003415566D01*
X0000905536Y0003415510D01*
X0000906090Y0003415342D01*
X0000906394Y0003415195D01*
X0000951394Y0003390195D01*
X0000951697Y0003390002D01*
X0001006697Y0003350002D01*
X0001007266Y0003349458D01*
X0001027266Y0003324458D01*
X0001027581Y0003323973D01*
X0001027796Y0003323435D01*
X0001027873Y0003323099D01*
X0001032873Y0003293099D01*
X0001032911Y0003292522D01*
X0001032856Y0003292035D01*
X0001032856Y0003292035D01*
G37*
D22*
G04 #@! TO.P,J4,1*
G04 #@! TO.N,Net-(D1-Pad4)*
X0000636960Y0002990614D03*
D23*
G04 #@! TD*
G04 #@! TO.N,Net-(D1-Pad4)*
G04 #@! TO.C,J4*
G36*
X0000636381Y0002902718D02*
X0000611381Y0002907718D01*
X0000610827Y0002907887D01*
X0000610116Y0002908308D01*
X0000585116Y0002928308D01*
X0000584701Y0002928712D01*
X0000584503Y0002928976D01*
X0000544503Y0002988976D01*
X0000544379Y0002989180D01*
X0000519379Y0003034180D01*
X0000519149Y0003034711D01*
X0000519027Y0003035277D01*
X0000519017Y0003035855D01*
X0000519121Y0003036425D01*
X0000519334Y0003036963D01*
X0000519648Y0003037450D01*
X0000520116Y0003037919D01*
X0000545116Y0003057919D01*
X0000545797Y0003058328D01*
X0000580797Y0003073328D01*
X0000581381Y0003073509D01*
X0000606381Y0003078509D01*
X0000606960Y0003078566D01*
X0000666960Y0003078566D01*
X0000667539Y0003078509D01*
X0000692539Y0003073509D01*
X0000693281Y0003073255D01*
X0000743281Y0003048255D01*
X0000743771Y0003047946D01*
X0000744048Y0003047702D01*
X0000759048Y0003032702D01*
X0000759415Y0003032254D01*
X0000759688Y0003031744D01*
X0000759856Y0003031190D01*
X0000759913Y0003030614D01*
X0000759856Y0003030038D01*
X0000759688Y0003029484D01*
X0000759541Y0003029180D01*
X0000734541Y0002984180D01*
X0000734348Y0002983877D01*
X0000694348Y0002928877D01*
X0000693805Y0002928308D01*
X0000668805Y0002908308D01*
X0000668319Y0002907992D01*
X0000667782Y0002907778D01*
X0000667446Y0002907701D01*
X0000637446Y0002902701D01*
X0000636868Y0002902662D01*
X0000636381Y0002902718D01*
X0000636381Y0002902718D01*
G37*
D24*
G04 #@! TO.N,Net-(D1-Pad4)*
X0000681960Y0003296614D03*
G04 #@! TD*
D25*
G04 #@! TO.N,Net-(D1-Pad4)*
X0000636960Y0003251614D02*
X0000636960Y0002990614D01*
X0000681960Y0003296614D02*
X0000636960Y0003251614D01*
G04 #@! TD*
G04 next file*
G04 #@! TF.GenerationSoftware,KiCad,Pcbnew,(5.0.1)-4*
G04 #@! TF.CreationDate,2020-02-20T17:45:55+01:00*
G04 #@! TF.ProjectId,bricopixels,627269636F706978656C732E6B696361,1*
G04 #@! TF.SameCoordinates,Original*
G04 #@! TF.FileFunction,Copper,L2,Bot,Signal*
G04 #@! TF.FilePolarity,Positive*
G04 Gerber Fmt 4.6, Leading zero omitted, Abs format (unit mm)*
G04 Created by KiCad (PCBNEW (5.0.1)-4) date 20/02/2020 17:45:55*
G01*
G04 APERTURE LIST*
G04 #@! TA.AperFunction,ComponentPad*
G04 #@! TD*
G04 #@! TA.AperFunction,Conductor*
G04 #@! TD*
G04 #@! TA.AperFunction,ViaPad*
G04 #@! TD*
G04 #@! TA.AperFunction,Conductor*
G04 #@! TD*
G04 APERTURE END LIST*
D26*
G04 #@! TO.P,J1,1*
G04 #@! TO.N,VCC*
X-0002185039Y0001948818D02*
X0000336960Y0000661818D03*
D27*
G04 #@! TD*
G04 #@! TO.N,VCC*
G04 #@! TO.C,J1*
G36*
X0000249065Y0000662397D02*
X0000254065Y0000687397D01*
X0000254233Y0000687951D01*
X0000254654Y0000688663D01*
X0000274654Y0000713663D01*
X0000275059Y0000714077D01*
X0000275322Y0000714275D01*
X0000335322Y0000754275D01*
X0000335526Y0000754400D01*
X0000380526Y0000779400D01*
X0000381057Y0000779630D01*
X0000381623Y0000779752D01*
X0000382202Y0000779761D01*
X0000382771Y0000779658D01*
X0000383310Y0000779445D01*
X0000383796Y0000779131D01*
X0000384266Y0000778663D01*
X0000404266Y0000753663D01*
X0000404674Y0000752982D01*
X0000419674Y0000717982D01*
X0000419856Y0000717397D01*
X0000424856Y0000692397D01*
X0000424913Y0000691818D01*
X0000424913Y0000631818D01*
X0000424856Y0000631239D01*
X0000419856Y0000606239D01*
X0000419601Y0000605498D01*
X0000394601Y0000555498D01*
X0000394293Y0000555008D01*
X0000394048Y0000554730D01*
X0000379048Y0000539730D01*
X0000378601Y0000539363D01*
X0000378090Y0000539090D01*
X0000377536Y0000538922D01*
X0000376960Y0000538866D01*
X0000376384Y0000538922D01*
X0000375830Y0000539090D01*
X0000375526Y0000539237D01*
X0000330526Y0000564237D01*
X0000330223Y0000564430D01*
X0000275223Y0000604430D01*
X0000274654Y0000604974D01*
X0000254654Y0000629974D01*
X0000254339Y0000630459D01*
X0000254124Y0000630997D01*
X0000254048Y0000631333D01*
X0000249048Y0000661333D01*
X0000249009Y0000661911D01*
X0000249065Y0000662397D01*
X0000249065Y0000662397D01*
G37*
D26*
G04 #@! TO.P,J2,1*
G04 #@! TO.N,Net-(D1-Pad2)*
X0000644960Y0000962818D03*
D27*
G04 #@! TD*
G04 #@! TO.N,Net-(D1-Pad2)*
G04 #@! TO.C,J2*
G36*
X0000645539Y0001050714D02*
X0000670539Y0001045714D01*
X0000671093Y0001045545D01*
X0000671805Y0001045124D01*
X0000696805Y0001025124D01*
X0000697219Y0001024720D01*
X0000697417Y0001024456D01*
X0000737417Y0000964456D01*
X0000737541Y0000964252D01*
X0000762541Y0000919252D01*
X0000762771Y0000918721D01*
X0000762894Y0000918155D01*
X0000762903Y0000917577D01*
X0000762799Y0000917007D01*
X0000762586Y0000916469D01*
X0000762273Y0000915982D01*
X0000761805Y0000915513D01*
X0000736805Y0000895513D01*
X0000736123Y0000895104D01*
X0000701123Y0000880104D01*
X0000700539Y0000879923D01*
X0000675539Y0000874923D01*
X0000674960Y0000874866D01*
X0000614960Y0000874866D01*
X0000614381Y0000874923D01*
X0000589381Y0000879923D01*
X0000588640Y0000880177D01*
X0000538640Y0000905177D01*
X0000538150Y0000905486D01*
X0000537872Y0000905730D01*
X0000522872Y0000920730D01*
X0000522505Y0000921178D01*
X0000522232Y0000921688D01*
X0000522064Y0000922242D01*
X0000522007Y0000922818D01*
X0000522064Y0000923394D01*
X0000522232Y0000923948D01*
X0000522379Y0000924252D01*
X0000547379Y0000969252D01*
X0000547572Y0000969555D01*
X0000587572Y0001024555D01*
X0000588116Y0001025124D01*
X0000613116Y0001045124D01*
X0000613601Y0001045440D01*
X0000614138Y0001045655D01*
X0000614475Y0001045731D01*
X0000644475Y0001050731D01*
X0000645052Y0001050770D01*
X0000645539Y0001050714D01*
X0000645539Y0001050714D01*
G37*
D26*
G04 #@! TO.P,J3,1*
G04 #@! TO.N,GND*
X0000944960Y0000654818D03*
D27*
G04 #@! TD*
G04 #@! TO.N,GND*
G04 #@! TO.C,J3*
G36*
X0001032856Y0000654239D02*
X0001027856Y0000629239D01*
X0001027687Y0000628686D01*
X0001027266Y0000627974D01*
X0001007266Y0000602974D01*
X0001006862Y0000602559D01*
X0001006598Y0000602362D01*
X0000946598Y0000562362D01*
X0000946394Y0000562237D01*
X0000901394Y0000537237D01*
X0000900863Y0000537007D01*
X0000900297Y0000536885D01*
X0000899718Y0000536876D01*
X0000899149Y0000536979D01*
X0000898611Y0000537192D01*
X0000898124Y0000537506D01*
X0000897654Y0000537974D01*
X0000877654Y0000562974D01*
X0000877246Y0000563655D01*
X0000862246Y0000598655D01*
X0000862065Y0000599239D01*
X0000857065Y0000624239D01*
X0000857007Y0000624818D01*
X0000857007Y0000684818D01*
X0000857065Y0000685397D01*
X0000862065Y0000710397D01*
X0000862319Y0000711139D01*
X0000887319Y0000761139D01*
X0000887627Y0000761629D01*
X0000887872Y0000761906D01*
X0000902872Y0000776906D01*
X0000903320Y0000777274D01*
X0000903830Y0000777546D01*
X0000904384Y0000777714D01*
X0000904960Y0000777771D01*
X0000905536Y0000777714D01*
X0000906090Y0000777546D01*
X0000906394Y0000777400D01*
X0000951394Y0000752400D01*
X0000951697Y0000752206D01*
X0001006697Y0000712206D01*
X0001007266Y0000711663D01*
X0001027266Y0000686663D01*
X0001027581Y0000686178D01*
X0001027796Y0000685640D01*
X0001027873Y0000685304D01*
X0001032873Y0000655304D01*
X0001032911Y0000654726D01*
X0001032856Y0000654239D01*
X0001032856Y0000654239D01*
G37*
D26*
G04 #@! TO.P,J4,1*
G04 #@! TO.N,Net-(D1-Pad4)*
X0000636960Y0000352818D03*
D27*
G04 #@! TD*
G04 #@! TO.N,Net-(D1-Pad4)*
G04 #@! TO.C,J4*
G36*
X0000636381Y0000264923D02*
X0000611381Y0000269923D01*
X0000610827Y0000270092D01*
X0000610116Y0000270513D01*
X0000585116Y0000290513D01*
X0000584701Y0000290917D01*
X0000584503Y0000291180D01*
X0000544503Y0000351180D01*
X0000544379Y0000351384D01*
X0000519379Y0000396384D01*
X0000519149Y0000396916D01*
X0000519027Y0000397481D01*
X0000519017Y0000398060D01*
X0000519121Y0000398630D01*
X0000519334Y0000399168D01*
X0000519648Y0000399654D01*
X0000520116Y0000400124D01*
X0000545116Y0000420124D01*
X0000545797Y0000420532D01*
X0000580797Y0000435532D01*
X0000581381Y0000435714D01*
X0000606381Y0000440714D01*
X0000606960Y0000440771D01*
X0000666960Y0000440771D01*
X0000667539Y0000440714D01*
X0000692539Y0000435714D01*
X0000693281Y0000435459D01*
X0000743281Y0000410459D01*
X0000743771Y0000410151D01*
X0000744048Y0000409906D01*
X0000759048Y0000394906D01*
X0000759415Y0000394459D01*
X0000759688Y0000393948D01*
X0000759856Y0000393394D01*
X0000759913Y0000392818D01*
X0000759856Y0000392242D01*
X0000759688Y0000391688D01*
X0000759541Y0000391384D01*
X0000734541Y0000346384D01*
X0000734348Y0000346082D01*
X0000694348Y0000291082D01*
X0000693805Y0000290513D01*
X0000668805Y0000270513D01*
X0000668319Y0000270197D01*
X0000667782Y0000269982D01*
X0000667446Y0000269906D01*
X0000637446Y0000264906D01*
X0000636868Y0000264867D01*
X0000636381Y0000264923D01*
X0000636381Y0000264923D01*
G37*
D28*
G04 #@! TO.N,Net-(D1-Pad4)*
X0000681960Y0000658818D03*
G04 #@! TD*
D29*
G04 #@! TO.N,Net-(D1-Pad4)*
X0000636960Y0000613818D02*
X0000636960Y0000352818D01*
X0000681960Y0000658818D02*
X0000636960Y0000613818D01*
G04 #@! TD*
G04 next file*
G04 #@! TF.GenerationSoftware,KiCad,Pcbnew,(5.0.1)-4*
G04 #@! TF.CreationDate,2020-02-20T17:45:55+01:00*
G04 #@! TF.ProjectId,bricopixels,627269636F706978656C732E6B696361,1*
G04 #@! TF.SameCoordinates,Original*
G04 #@! TF.FileFunction,Copper,L2,Bot,Signal*
G04 #@! TF.FilePolarity,Positive*
G04 Gerber Fmt 4.6, Leading zero omitted, Abs format (unit mm)*
G04 Created by KiCad (PCBNEW (5.0.1)-4) date 20/02/2020 17:45:55*
G01*
G04 APERTURE LIST*
G04 #@! TA.AperFunction,ComponentPad*
G04 #@! TD*
G04 #@! TA.AperFunction,Conductor*
G04 #@! TD*
G04 #@! TA.AperFunction,ViaPad*
G04 #@! TD*
G04 #@! TA.AperFunction,Conductor*
G04 #@! TD*
G04 APERTURE END LIST*
D30*
G04 #@! TO.P,J1,1*
G04 #@! TO.N,VCC*
X-0001742125Y0002381889D02*
X0000779874Y0001094889D03*
D31*
G04 #@! TD*
G04 #@! TO.N,VCC*
G04 #@! TO.C,J1*
G36*
X0000691978Y0001095468D02*
X0000696978Y0001120468D01*
X0000697147Y0001121022D01*
X0000697568Y0001121734D01*
X0000717568Y0001146734D01*
X0000717972Y0001147148D01*
X0000718236Y0001147346D01*
X0000778236Y0001187346D01*
X0000778440Y0001187470D01*
X0000823440Y0001212470D01*
X0000823971Y0001212701D01*
X0000824536Y0001212823D01*
X0000825115Y0001212832D01*
X0000825685Y0001212728D01*
X0000826223Y0001212516D01*
X0000826709Y0001212202D01*
X0000827179Y0001211734D01*
X0000847179Y0001186734D01*
X0000847587Y0001186052D01*
X0000862587Y0001151052D01*
X0000862769Y0001150468D01*
X0000867769Y0001125468D01*
X0000867826Y0001124889D01*
X0000867826Y0001064889D01*
X0000867769Y0001064310D01*
X0000862769Y0001039310D01*
X0000862515Y0001038569D01*
X0000837515Y0000988569D01*
X0000837206Y0000988079D01*
X0000836961Y0000987801D01*
X0000821961Y0000972801D01*
X0000821514Y0000972434D01*
X0000821003Y0000972161D01*
X0000820450Y0000971993D01*
X0000819873Y0000971936D01*
X0000819297Y0000971993D01*
X0000818744Y0000972161D01*
X0000818440Y0000972308D01*
X0000773440Y0000997308D01*
X0000773137Y0000997501D01*
X0000718137Y0001037501D01*
X0000717568Y0001038045D01*
X0000697568Y0001063045D01*
X0000697252Y0001063530D01*
X0000697037Y0001064067D01*
X0000696961Y0001064404D01*
X0000691961Y0001094404D01*
X0000691922Y0001094981D01*
X0000691978Y0001095468D01*
X0000691978Y0001095468D01*
G37*
D30*
G04 #@! TO.P,J2,1*
G04 #@! TO.N,Net-(D1-Pad2)*
X0001087874Y0001395889D03*
D31*
G04 #@! TD*
G04 #@! TO.N,Net-(D1-Pad2)*
G04 #@! TO.C,J2*
G36*
X0001088453Y0001483785D02*
X0001113453Y0001478785D01*
X0001114006Y0001478616D01*
X0001114718Y0001478195D01*
X0001139718Y0001458195D01*
X0001140132Y0001457791D01*
X0001140330Y0001457527D01*
X0001180330Y0001397527D01*
X0001180455Y0001397323D01*
X0001205455Y0001352323D01*
X0001205685Y0001351792D01*
X0001205807Y0001351226D01*
X0001205816Y0001350648D01*
X0001205713Y0001350078D01*
X0001205500Y0001349540D01*
X0001205186Y0001349053D01*
X0001204718Y0001348584D01*
X0001179718Y0001328584D01*
X0001179037Y0001328175D01*
X0001144037Y0001313175D01*
X0001143453Y0001312994D01*
X0001118453Y0001307994D01*
X0001117874Y0001307936D01*
X0001057874Y0001307936D01*
X0001057294Y0001307994D01*
X0001032294Y0001312994D01*
X0001031553Y0001313248D01*
X0000981553Y0001338248D01*
X0000981063Y0001338557D01*
X0000980786Y0001338801D01*
X0000965786Y0001353801D01*
X0000965418Y0001354249D01*
X0000965145Y0001354759D01*
X0000964977Y0001355313D01*
X0000964921Y0001355889D01*
X0000964977Y0001356465D01*
X0000965145Y0001357019D01*
X0000965292Y0001357323D01*
X0000990292Y0001402323D01*
X0000990485Y0001402626D01*
X0001030486Y0001457626D01*
X0001031029Y0001458195D01*
X0001056029Y0001478195D01*
X0001056514Y0001478511D01*
X0001057052Y0001478725D01*
X0001057388Y0001478802D01*
X0001087388Y0001483802D01*
X0001087966Y0001483841D01*
X0001088453Y0001483785D01*
X0001088453Y0001483785D01*
G37*
D30*
G04 #@! TO.P,J3,1*
G04 #@! TO.N,GND*
X0001387873Y0001087889D03*
D31*
G04 #@! TD*
G04 #@! TO.N,GND*
G04 #@! TO.C,J3*
G36*
X0001475769Y0001087310D02*
X0001470769Y0001062310D01*
X0001470600Y0001061756D01*
X0001470179Y0001061045D01*
X0001450179Y0001036045D01*
X0001449775Y0001035630D01*
X0001449511Y0001035432D01*
X0001389511Y0000995432D01*
X0001389307Y0000995308D01*
X0001344307Y0000970308D01*
X0001343776Y0000970078D01*
X0001343211Y0000969956D01*
X0001342632Y0000969946D01*
X0001342062Y0000970050D01*
X0001341524Y0000970263D01*
X0001341038Y0000970577D01*
X0001340568Y0000971045D01*
X0001320568Y0000996045D01*
X0001320160Y0000996726D01*
X0001305160Y0001031726D01*
X0001304978Y0001032310D01*
X0001299978Y0001057310D01*
X0001299921Y0001057889D01*
X0001299921Y0001117889D01*
X0001299978Y0001118468D01*
X0001304978Y0001143468D01*
X0001305232Y0001144210D01*
X0001330232Y0001194210D01*
X0001330541Y0001194700D01*
X0001330786Y0001194977D01*
X0001345786Y0001209977D01*
X0001346233Y0001210344D01*
X0001346744Y0001210617D01*
X0001347297Y0001210785D01*
X0001347874Y0001210842D01*
X0001348450Y0001210785D01*
X0001349003Y0001210617D01*
X0001349307Y0001210470D01*
X0001394307Y0001185470D01*
X0001394610Y0001185277D01*
X0001449610Y0001145277D01*
X0001450179Y0001144734D01*
X0001470179Y0001119734D01*
X0001470495Y0001119249D01*
X0001470710Y0001118711D01*
X0001470786Y0001118375D01*
X0001475786Y0001088375D01*
X0001475825Y0001087797D01*
X0001475769Y0001087310D01*
X0001475769Y0001087310D01*
G37*
D30*
G04 #@! TO.P,J4,1*
G04 #@! TO.N,Net-(D1-Pad4)*
X0001079873Y0000785889D03*
D31*
G04 #@! TD*
G04 #@! TO.N,Net-(D1-Pad4)*
G04 #@! TO.C,J4*
G36*
X0001079294Y0000697994D02*
X0001054294Y0000702994D01*
X0001053741Y0000703162D01*
X0001053029Y0000703584D01*
X0001028029Y0000723584D01*
X0001027615Y0000723988D01*
X0001027417Y0000724251D01*
X0000987417Y0000784251D01*
X0000987292Y0000784455D01*
X0000962292Y0000829455D01*
X0000962062Y0000829986D01*
X0000961940Y0000830552D01*
X0000961931Y0000831131D01*
X0000962034Y0000831700D01*
X0000962247Y0000832239D01*
X0000962561Y0000832725D01*
X0000963029Y0000833195D01*
X0000988029Y0000853195D01*
X0000988710Y0000853603D01*
X0001023710Y0000868603D01*
X0001024294Y0000868785D01*
X0001049294Y0000873785D01*
X0001049873Y0000873842D01*
X0001109873Y0000873842D01*
X0001110453Y0000873785D01*
X0001135453Y0000868785D01*
X0001136194Y0000868530D01*
X0001186194Y0000843530D01*
X0001186684Y0000843222D01*
X0001186961Y0000842977D01*
X0001201961Y0000827977D01*
X0001202329Y0000827530D01*
X0001202602Y0000827019D01*
X0001202770Y0000826465D01*
X0001202826Y0000825889D01*
X0001202770Y0000825313D01*
X0001202602Y0000824759D01*
X0001202455Y0000824455D01*
X0001177455Y0000779455D01*
X0001177262Y0000779153D01*
X0001137261Y0000724153D01*
X0001136718Y0000723584D01*
X0001111718Y0000703584D01*
X0001111233Y0000703268D01*
X0001110695Y0000703053D01*
X0001110359Y0000702977D01*
X0001080359Y0000697977D01*
X0001079781Y0000697938D01*
X0001079294Y0000697994D01*
X0001079294Y0000697994D01*
G37*
D32*
G04 #@! TO.N,Net-(D1-Pad4)*
X0001124873Y0001091889D03*
G04 #@! TD*
D33*
G04 #@! TO.N,Net-(D1-Pad4)*
X0001079873Y0001046889D02*
X0001079873Y0000785889D01*
X0001124873Y0001091889D02*
X0001079873Y0001046889D01*
G04 #@! TD*
G04 next file*
G04 #@! TF.GenerationSoftware,KiCad,Pcbnew,(5.0.1)-4*
G04 #@! TF.CreationDate,2020-02-20T17:45:55+01:00*
G04 #@! TF.ProjectId,bricopixels,627269636F706978656C732E6B696361,1*
G04 #@! TF.SameCoordinates,Original*
G04 #@! TF.FileFunction,Copper,L2,Bot,Signal*
G04 #@! TF.FilePolarity,Positive*
G04 Gerber Fmt 4.6, Leading zero omitted, Abs format (unit mm)*
G04 Created by KiCad (PCBNEW (5.0.1)-4) date 20/02/2020 17:45:55*
G01*
G04 APERTURE LIST*
G04 #@! TA.AperFunction,ComponentPad*
G04 #@! TD*
G04 #@! TA.AperFunction,Conductor*
G04 #@! TD*
G04 #@! TA.AperFunction,ViaPad*
G04 #@! TD*
G04 #@! TA.AperFunction,Conductor*
G04 #@! TD*
G04 APERTURE END LIST*
D34*
G04 #@! TO.P,J1,1*
G04 #@! TO.N,VCC*
X-0002185039Y0002814960D02*
X0000336960Y0001527960D03*
D35*
G04 #@! TD*
G04 #@! TO.N,VCC*
G04 #@! TO.C,J1*
G36*
X0000249065Y0001528539D02*
X0000254065Y0001553539D01*
X0000254233Y0001554093D01*
X0000254654Y0001554805D01*
X0000274654Y0001579805D01*
X0000275059Y0001580219D01*
X0000275322Y0001580417D01*
X0000335322Y0001620417D01*
X0000335526Y0001620541D01*
X0000380526Y0001645541D01*
X0000381057Y0001645771D01*
X0000381623Y0001645894D01*
X0000382202Y0001645903D01*
X0000382771Y0001645799D01*
X0000383310Y0001645586D01*
X0000383796Y0001645273D01*
X0000384266Y0001644805D01*
X0000404266Y0001619805D01*
X0000404674Y0001619123D01*
X0000419674Y0001584123D01*
X0000419856Y0001583539D01*
X0000424856Y0001558539D01*
X0000424913Y0001557960D01*
X0000424913Y0001497960D01*
X0000424856Y0001497381D01*
X0000419856Y0001472381D01*
X0000419601Y0001471640D01*
X0000394601Y0001421640D01*
X0000394293Y0001421150D01*
X0000394048Y0001420872D01*
X0000379048Y0001405872D01*
X0000378601Y0001405505D01*
X0000378090Y0001405232D01*
X0000377536Y0001405064D01*
X0000376960Y0001405007D01*
X0000376384Y0001405064D01*
X0000375830Y0001405232D01*
X0000375526Y0001405379D01*
X0000330526Y0001430379D01*
X0000330223Y0001430572D01*
X0000275223Y0001470572D01*
X0000274654Y0001471116D01*
X0000254654Y0001496116D01*
X0000254339Y0001496601D01*
X0000254124Y0001497138D01*
X0000254048Y0001497475D01*
X0000249048Y0001527475D01*
X0000249009Y0001528052D01*
X0000249065Y0001528539D01*
X0000249065Y0001528539D01*
G37*
D34*
G04 #@! TO.P,J2,1*
G04 #@! TO.N,Net-(D1-Pad2)*
X0000644960Y0001828960D03*
D35*
G04 #@! TD*
G04 #@! TO.N,Net-(D1-Pad2)*
G04 #@! TO.C,J2*
G36*
X0000645539Y0001916856D02*
X0000670539Y0001911856D01*
X0000671093Y0001911687D01*
X0000671805Y0001911266D01*
X0000696805Y0001891266D01*
X0000697219Y0001890862D01*
X0000697417Y0001890598D01*
X0000737417Y0001830598D01*
X0000737541Y0001830394D01*
X0000762541Y0001785394D01*
X0000762771Y0001784863D01*
X0000762894Y0001784297D01*
X0000762903Y0001783718D01*
X0000762799Y0001783149D01*
X0000762586Y0001782611D01*
X0000762273Y0001782124D01*
X0000761805Y0001781654D01*
X0000736805Y0001761654D01*
X0000736123Y0001761246D01*
X0000701123Y0001746246D01*
X0000700539Y0001746065D01*
X0000675539Y0001741065D01*
X0000674960Y0001741007D01*
X0000614960Y0001741007D01*
X0000614381Y0001741065D01*
X0000589381Y0001746065D01*
X0000588640Y0001746319D01*
X0000538640Y0001771319D01*
X0000538150Y0001771627D01*
X0000537872Y0001771872D01*
X0000522872Y0001786872D01*
X0000522505Y0001787320D01*
X0000522232Y0001787830D01*
X0000522064Y0001788384D01*
X0000522007Y0001788960D01*
X0000522064Y0001789536D01*
X0000522232Y0001790090D01*
X0000522379Y0001790394D01*
X0000547379Y0001835394D01*
X0000547572Y0001835697D01*
X0000587572Y0001890697D01*
X0000588116Y0001891266D01*
X0000613116Y0001911266D01*
X0000613601Y0001911581D01*
X0000614138Y0001911796D01*
X0000614475Y0001911873D01*
X0000644475Y0001916873D01*
X0000645052Y0001916911D01*
X0000645539Y0001916856D01*
X0000645539Y0001916856D01*
G37*
D34*
G04 #@! TO.P,J3,1*
G04 #@! TO.N,GND*
X0000944960Y0001520960D03*
D35*
G04 #@! TD*
G04 #@! TO.N,GND*
G04 #@! TO.C,J3*
G36*
X0001032856Y0001520381D02*
X0001027856Y0001495381D01*
X0001027687Y0001494827D01*
X0001027266Y0001494116D01*
X0001007266Y0001469116D01*
X0001006862Y0001468701D01*
X0001006598Y0001468503D01*
X0000946598Y0001428503D01*
X0000946394Y0001428379D01*
X0000901394Y0001403379D01*
X0000900863Y0001403149D01*
X0000900297Y0001403027D01*
X0000899718Y0001403017D01*
X0000899149Y0001403121D01*
X0000898611Y0001403334D01*
X0000898124Y0001403648D01*
X0000897654Y0001404116D01*
X0000877654Y0001429116D01*
X0000877246Y0001429797D01*
X0000862246Y0001464797D01*
X0000862065Y0001465381D01*
X0000857065Y0001490381D01*
X0000857007Y0001490960D01*
X0000857007Y0001550960D01*
X0000857065Y0001551539D01*
X0000862065Y0001576539D01*
X0000862319Y0001577281D01*
X0000887319Y0001627281D01*
X0000887627Y0001627770D01*
X0000887872Y0001628048D01*
X0000902872Y0001643048D01*
X0000903320Y0001643415D01*
X0000903830Y0001643688D01*
X0000904384Y0001643856D01*
X0000904960Y0001643913D01*
X0000905536Y0001643856D01*
X0000906090Y0001643688D01*
X0000906394Y0001643541D01*
X0000951394Y0001618541D01*
X0000951697Y0001618348D01*
X0001006697Y0001578348D01*
X0001007266Y0001577805D01*
X0001027266Y0001552805D01*
X0001027581Y0001552319D01*
X0001027796Y0001551782D01*
X0001027873Y0001551446D01*
X0001032873Y0001521446D01*
X0001032911Y0001520868D01*
X0001032856Y0001520381D01*
X0001032856Y0001520381D01*
G37*
D34*
G04 #@! TO.P,J4,1*
G04 #@! TO.N,Net-(D1-Pad4)*
X0000636960Y0001218960D03*
D35*
G04 #@! TD*
G04 #@! TO.N,Net-(D1-Pad4)*
G04 #@! TO.C,J4*
G36*
X0000636381Y0001131065D02*
X0000611381Y0001136065D01*
X0000610827Y0001136233D01*
X0000610116Y0001136654D01*
X0000585116Y0001156654D01*
X0000584701Y0001157059D01*
X0000584503Y0001157322D01*
X0000544503Y0001217322D01*
X0000544379Y0001217526D01*
X0000519379Y0001262526D01*
X0000519149Y0001263057D01*
X0000519027Y0001263623D01*
X0000519017Y0001264202D01*
X0000519121Y0001264771D01*
X0000519334Y0001265310D01*
X0000519648Y0001265796D01*
X0000520116Y0001266266D01*
X0000545116Y0001286266D01*
X0000545797Y0001286674D01*
X0000580797Y0001301674D01*
X0000581381Y0001301856D01*
X0000606381Y0001306856D01*
X0000606960Y0001306913D01*
X0000666960Y0001306913D01*
X0000667539Y0001306856D01*
X0000692539Y0001301856D01*
X0000693281Y0001301601D01*
X0000743281Y0001276601D01*
X0000743771Y0001276293D01*
X0000744048Y0001276048D01*
X0000759048Y0001261048D01*
X0000759415Y0001260601D01*
X0000759688Y0001260090D01*
X0000759856Y0001259536D01*
X0000759913Y0001258960D01*
X0000759856Y0001258384D01*
X0000759688Y0001257830D01*
X0000759541Y0001257526D01*
X0000734541Y0001212526D01*
X0000734348Y0001212223D01*
X0000694348Y0001157223D01*
X0000693805Y0001156654D01*
X0000668805Y0001136654D01*
X0000668319Y0001136339D01*
X0000667782Y0001136124D01*
X0000667446Y0001136048D01*
X0000637446Y0001131048D01*
X0000636868Y0001131009D01*
X0000636381Y0001131065D01*
X0000636381Y0001131065D01*
G37*
D36*
G04 #@! TO.N,Net-(D1-Pad4)*
X0000681960Y0001524960D03*
G04 #@! TD*
D37*
G04 #@! TO.N,Net-(D1-Pad4)*
X0000636960Y0001479960D02*
X0000636960Y0001218960D01*
X0000681960Y0001524960D02*
X0000636960Y0001479960D01*
G04 #@! TD*
G04 next file*
G04 #@! TF.GenerationSoftware,KiCad,Pcbnew,(5.0.1)-4*
G04 #@! TF.CreationDate,2020-02-20T17:45:55+01:00*
G04 #@! TF.ProjectId,bricopixels,627269636F706978656C732E6B696361,1*
G04 #@! TF.SameCoordinates,Original*
G04 #@! TF.FileFunction,Copper,L2,Bot,Signal*
G04 #@! TF.FilePolarity,Positive*
G04 Gerber Fmt 4.6, Leading zero omitted, Abs format (unit mm)*
G04 Created by KiCad (PCBNEW (5.0.1)-4) date 20/02/2020 17:45:55*
G01*
G04 APERTURE LIST*
G04 #@! TA.AperFunction,ComponentPad*
G04 #@! TD*
G04 #@! TA.AperFunction,Conductor*
G04 #@! TD*
G04 #@! TA.AperFunction,ViaPad*
G04 #@! TD*
G04 #@! TA.AperFunction,Conductor*
G04 #@! TD*
G04 APERTURE END LIST*
D38*
G04 #@! TO.P,J1,1*
G04 #@! TO.N,VCC*
X-0002185039Y0003700787D02*
X0000336960Y0002413787D03*
D39*
G04 #@! TD*
G04 #@! TO.N,VCC*
G04 #@! TO.C,J1*
G36*
X0000249065Y0002414366D02*
X0000254065Y0002439366D01*
X0000254233Y0002439920D01*
X0000254654Y0002440631D01*
X0000274654Y0002465631D01*
X0000275059Y0002466046D01*
X0000275322Y0002466244D01*
X0000335322Y0002506244D01*
X0000335526Y0002506368D01*
X0000380526Y0002531368D01*
X0000381057Y0002531598D01*
X0000381623Y0002531720D01*
X0000382202Y0002531730D01*
X0000382771Y0002531626D01*
X0000383310Y0002531413D01*
X0000383796Y0002531100D01*
X0000384266Y0002530631D01*
X0000404266Y0002505631D01*
X0000404674Y0002504950D01*
X0000419674Y0002469950D01*
X0000419856Y0002469366D01*
X0000424856Y0002444366D01*
X0000424913Y0002443787D01*
X0000424913Y0002383787D01*
X0000424856Y0002383208D01*
X0000419856Y0002358208D01*
X0000419601Y0002357466D01*
X0000394601Y0002307466D01*
X0000394293Y0002306977D01*
X0000394048Y0002306699D01*
X0000379048Y0002291699D01*
X0000378601Y0002291332D01*
X0000378090Y0002291059D01*
X0000377536Y0002290891D01*
X0000376960Y0002290834D01*
X0000376384Y0002290891D01*
X0000375830Y0002291059D01*
X0000375526Y0002291206D01*
X0000330526Y0002316206D01*
X0000330223Y0002316399D01*
X0000275223Y0002356399D01*
X0000274654Y0002356942D01*
X0000254654Y0002381942D01*
X0000254339Y0002382428D01*
X0000254124Y0002382965D01*
X0000254048Y0002383301D01*
X0000249048Y0002413301D01*
X0000249009Y0002413879D01*
X0000249065Y0002414366D01*
X0000249065Y0002414366D01*
G37*
D38*
G04 #@! TO.P,J2,1*
G04 #@! TO.N,Net-(D1-Pad2)*
X0000644960Y0002714787D03*
D39*
G04 #@! TD*
G04 #@! TO.N,Net-(D1-Pad2)*
G04 #@! TO.C,J2*
G36*
X0000645539Y0002802682D02*
X0000670539Y0002797682D01*
X0000671093Y0002797514D01*
X0000671805Y0002797093D01*
X0000696805Y0002777093D01*
X0000697219Y0002776688D01*
X0000697417Y0002776425D01*
X0000737417Y0002716425D01*
X0000737541Y0002716221D01*
X0000762541Y0002671221D01*
X0000762771Y0002670690D01*
X0000762894Y0002670124D01*
X0000762903Y0002669545D01*
X0000762799Y0002668976D01*
X0000762586Y0002668437D01*
X0000762273Y0002667951D01*
X0000761805Y0002667481D01*
X0000736805Y0002647481D01*
X0000736123Y0002647073D01*
X0000701123Y0002632073D01*
X0000700539Y0002631891D01*
X0000675539Y0002626891D01*
X0000674960Y0002626834D01*
X0000614960Y0002626834D01*
X0000614381Y0002626891D01*
X0000589381Y0002631891D01*
X0000588640Y0002632146D01*
X0000538640Y0002657146D01*
X0000538150Y0002657454D01*
X0000537872Y0002657699D01*
X0000522872Y0002672699D01*
X0000522505Y0002673146D01*
X0000522232Y0002673657D01*
X0000522064Y0002674211D01*
X0000522007Y0002674787D01*
X0000522064Y0002675363D01*
X0000522232Y0002675917D01*
X0000522379Y0002676221D01*
X0000547379Y0002721221D01*
X0000547572Y0002721524D01*
X0000587572Y0002776524D01*
X0000588116Y0002777093D01*
X0000613116Y0002797093D01*
X0000613601Y0002797408D01*
X0000614138Y0002797623D01*
X0000614475Y0002797699D01*
X0000644475Y0002802700D01*
X0000645052Y0002802738D01*
X0000645539Y0002802682D01*
X0000645539Y0002802682D01*
G37*
D38*
G04 #@! TO.P,J3,1*
G04 #@! TO.N,GND*
X0000944960Y0002406787D03*
D39*
G04 #@! TD*
G04 #@! TO.N,GND*
G04 #@! TO.C,J3*
G36*
X0001032856Y0002406208D02*
X0001027856Y0002381208D01*
X0001027687Y0002380654D01*
X0001027266Y0002379942D01*
X0001007266Y0002354942D01*
X0001006862Y0002354528D01*
X0001006598Y0002354330D01*
X0000946598Y0002314330D01*
X0000946394Y0002314206D01*
X0000901394Y0002289206D01*
X0000900863Y0002288976D01*
X0000900297Y0002288853D01*
X0000899718Y0002288844D01*
X0000899149Y0002288948D01*
X0000898611Y0002289161D01*
X0000898124Y0002289474D01*
X0000897654Y0002289942D01*
X0000877654Y0002314942D01*
X0000877246Y0002315624D01*
X0000862246Y0002350624D01*
X0000862065Y0002351208D01*
X0000857065Y0002376208D01*
X0000857007Y0002376787D01*
X0000857007Y0002436787D01*
X0000857065Y0002437366D01*
X0000862065Y0002462366D01*
X0000862319Y0002463107D01*
X0000887319Y0002513107D01*
X0000887627Y0002513597D01*
X0000887872Y0002513875D01*
X0000902872Y0002528875D01*
X0000903320Y0002529242D01*
X0000903830Y0002529515D01*
X0000904384Y0002529683D01*
X0000904960Y0002529740D01*
X0000905536Y0002529683D01*
X0000906090Y0002529515D01*
X0000906394Y0002529368D01*
X0000951394Y0002504368D01*
X0000951697Y0002504175D01*
X0001006697Y0002464175D01*
X0001007266Y0002463631D01*
X0001027266Y0002438631D01*
X0001027581Y0002438146D01*
X0001027796Y0002437609D01*
X0001027873Y0002437272D01*
X0001032873Y0002407272D01*
X0001032911Y0002406695D01*
X0001032856Y0002406208D01*
X0001032856Y0002406208D01*
G37*
D38*
G04 #@! TO.P,J4,1*
G04 #@! TO.N,Net-(D1-Pad4)*
X0000636960Y0002104787D03*
D39*
G04 #@! TD*
G04 #@! TO.N,Net-(D1-Pad4)*
G04 #@! TO.C,J4*
G36*
X0000636381Y0002016891D02*
X0000611381Y0002021891D01*
X0000610827Y0002022060D01*
X0000610116Y0002022481D01*
X0000585116Y0002042481D01*
X0000584701Y0002042885D01*
X0000584503Y0002043149D01*
X0000544503Y0002103149D01*
X0000544379Y0002103353D01*
X0000519379Y0002148353D01*
X0000519149Y0002148884D01*
X0000519027Y0002149450D01*
X0000519017Y0002150029D01*
X0000519121Y0002150598D01*
X0000519334Y0002151136D01*
X0000519648Y0002151623D01*
X0000520116Y0002152093D01*
X0000545116Y0002172093D01*
X0000545797Y0002172501D01*
X0000580797Y0002187501D01*
X0000581381Y0002187682D01*
X0000606381Y0002192682D01*
X0000606960Y0002192740D01*
X0000666960Y0002192740D01*
X0000667539Y0002192682D01*
X0000692539Y0002187682D01*
X0000693281Y0002187428D01*
X0000743281Y0002162428D01*
X0000743771Y0002162120D01*
X0000744048Y0002161875D01*
X0000759048Y0002146875D01*
X0000759415Y0002146427D01*
X0000759688Y0002145917D01*
X0000759856Y0002145363D01*
X0000759913Y0002144787D01*
X0000759856Y0002144211D01*
X0000759688Y0002143657D01*
X0000759541Y0002143353D01*
X0000734541Y0002098353D01*
X0000734348Y0002098050D01*
X0000694348Y0002043050D01*
X0000693805Y0002042481D01*
X0000668805Y0002022481D01*
X0000668319Y0002022166D01*
X0000667782Y0002021951D01*
X0000667446Y0002021874D01*
X0000637446Y0002016874D01*
X0000636868Y0002016836D01*
X0000636381Y0002016891D01*
X0000636381Y0002016891D01*
G37*
D40*
G04 #@! TO.N,Net-(D1-Pad4)*
X0000681960Y0002410787D03*
G04 #@! TD*
D41*
G04 #@! TO.N,Net-(D1-Pad4)*
X0000636960Y0002365787D02*
X0000636960Y0002104787D01*
X0000681960Y0002410787D02*
X0000636960Y0002365787D01*
G04 #@! TD*
G04 next file*
G04 #@! TF.GenerationSoftware,KiCad,Pcbnew,(5.0.1)-4*
G04 #@! TF.CreationDate,2020-02-20T17:45:55+01:00*
G04 #@! TF.ProjectId,bricopixels,627269636F706978656C732E6B696361,1*
G04 #@! TF.SameCoordinates,Original*
G04 #@! TF.FileFunction,Copper,L2,Bot,Signal*
G04 #@! TF.FilePolarity,Positive*
G04 Gerber Fmt 4.6, Leading zero omitted, Abs format (unit mm)*
G04 Created by KiCad (PCBNEW (5.0.1)-4) date 20/02/2020 17:45:55*
G01*
G04 APERTURE LIST*
G04 #@! TA.AperFunction,ComponentPad*
G04 #@! TD*
G04 #@! TA.AperFunction,Conductor*
G04 #@! TD*
G04 #@! TA.AperFunction,ViaPad*
G04 #@! TD*
G04 #@! TA.AperFunction,Conductor*
G04 #@! TD*
G04 APERTURE END LIST*
D42*
G04 #@! TO.P,J1,1*
G04 #@! TO.N,VCC*
X-0001742125Y0003267716D02*
X0000779874Y0001980716D03*
D43*
G04 #@! TD*
G04 #@! TO.N,VCC*
G04 #@! TO.C,J1*
G36*
X0000691978Y0001981295D02*
X0000696978Y0002006295D01*
X0000697147Y0002006849D01*
X0000697568Y0002007561D01*
X0000717568Y0002032561D01*
X0000717972Y0002032975D01*
X0000718236Y0002033173D01*
X0000778236Y0002073173D01*
X0000778440Y0002073297D01*
X0000823440Y0002098297D01*
X0000823971Y0002098527D01*
X0000824536Y0002098650D01*
X0000825115Y0002098659D01*
X0000825685Y0002098555D01*
X0000826223Y0002098342D01*
X0000826709Y0002098029D01*
X0000827179Y0002097561D01*
X0000847179Y0002072561D01*
X0000847587Y0002071879D01*
X0000862587Y0002036879D01*
X0000862769Y0002036295D01*
X0000867769Y0002011295D01*
X0000867826Y0002010716D01*
X0000867826Y0001950716D01*
X0000867769Y0001950137D01*
X0000862769Y0001925137D01*
X0000862515Y0001924396D01*
X0000837515Y0001874396D01*
X0000837206Y0001873906D01*
X0000836961Y0001873628D01*
X0000821961Y0001858628D01*
X0000821514Y0001858261D01*
X0000821003Y0001857988D01*
X0000820450Y0001857820D01*
X0000819873Y0001857763D01*
X0000819297Y0001857820D01*
X0000818744Y0001857988D01*
X0000818440Y0001858135D01*
X0000773440Y0001883135D01*
X0000773137Y0001883328D01*
X0000718137Y0001923328D01*
X0000717568Y0001923871D01*
X0000697568Y0001948871D01*
X0000697252Y0001949357D01*
X0000697037Y0001949894D01*
X0000696961Y0001950231D01*
X0000691961Y0001980231D01*
X0000691922Y0001980808D01*
X0000691978Y0001981295D01*
X0000691978Y0001981295D01*
G37*
D42*
G04 #@! TO.P,J2,1*
G04 #@! TO.N,Net-(D1-Pad2)*
X0001087874Y0002281716D03*
D43*
G04 #@! TD*
G04 #@! TO.N,Net-(D1-Pad2)*
G04 #@! TO.C,J2*
G36*
X0001088453Y0002369611D02*
X0001113453Y0002364611D01*
X0001114006Y0002364443D01*
X0001114718Y0002364022D01*
X0001139718Y0002344022D01*
X0001140132Y0002343618D01*
X0001140330Y0002343354D01*
X0001180330Y0002283354D01*
X0001180455Y0002283150D01*
X0001205455Y0002238150D01*
X0001205685Y0002237619D01*
X0001205807Y0002237053D01*
X0001205816Y0002236474D01*
X0001205713Y0002235905D01*
X0001205500Y0002235367D01*
X0001205186Y0002234880D01*
X0001204718Y0002234410D01*
X0001179718Y0002214410D01*
X0001179037Y0002214002D01*
X0001144037Y0002199002D01*
X0001143453Y0002198821D01*
X0001118453Y0002193821D01*
X0001117874Y0002193763D01*
X0001057874Y0002193763D01*
X0001057294Y0002193821D01*
X0001032294Y0002198821D01*
X0001031553Y0002199075D01*
X0000981553Y0002224075D01*
X0000981063Y0002224383D01*
X0000980786Y0002224628D01*
X0000965786Y0002239628D01*
X0000965418Y0002240076D01*
X0000965145Y0002240586D01*
X0000964977Y0002241140D01*
X0000964921Y0002241716D01*
X0000964977Y0002242292D01*
X0000965145Y0002242846D01*
X0000965292Y0002243150D01*
X0000990292Y0002288150D01*
X0000990485Y0002288453D01*
X0001030486Y0002343453D01*
X0001031029Y0002344022D01*
X0001056029Y0002364022D01*
X0001056514Y0002364337D01*
X0001057052Y0002364552D01*
X0001057388Y0002364629D01*
X0001087388Y0002369629D01*
X0001087966Y0002369667D01*
X0001088453Y0002369611D01*
X0001088453Y0002369611D01*
G37*
D42*
G04 #@! TO.P,J3,1*
G04 #@! TO.N,GND*
X0001387873Y0001973716D03*
D43*
G04 #@! TD*
G04 #@! TO.N,GND*
G04 #@! TO.C,J3*
G36*
X0001475769Y0001973137D02*
X0001470769Y0001948137D01*
X0001470600Y0001947583D01*
X0001470179Y0001946871D01*
X0001450179Y0001921871D01*
X0001449775Y0001921457D01*
X0001449511Y0001921259D01*
X0001389511Y0001881259D01*
X0001389307Y0001881135D01*
X0001344307Y0001856135D01*
X0001343776Y0001855905D01*
X0001343211Y0001855783D01*
X0001342632Y0001855773D01*
X0001342062Y0001855877D01*
X0001341524Y0001856090D01*
X0001341038Y0001856403D01*
X0001340568Y0001856871D01*
X0001320568Y0001881871D01*
X0001320160Y0001882553D01*
X0001305160Y0001917553D01*
X0001304978Y0001918137D01*
X0001299978Y0001943137D01*
X0001299921Y0001943716D01*
X0001299921Y0002003716D01*
X0001299978Y0002004295D01*
X0001304978Y0002029295D01*
X0001305232Y0002030037D01*
X0001330232Y0002080037D01*
X0001330541Y0002080526D01*
X0001330786Y0002080804D01*
X0001345786Y0002095804D01*
X0001346233Y0002096171D01*
X0001346744Y0002096444D01*
X0001347297Y0002096612D01*
X0001347874Y0002096669D01*
X0001348450Y0002096612D01*
X0001349003Y0002096444D01*
X0001349307Y0002096297D01*
X0001394307Y0002071297D01*
X0001394610Y0002071104D01*
X0001449610Y0002031104D01*
X0001450179Y0002030561D01*
X0001470179Y0002005561D01*
X0001470495Y0002005075D01*
X0001470710Y0002004538D01*
X0001470786Y0002004201D01*
X0001475786Y0001974201D01*
X0001475825Y0001973624D01*
X0001475769Y0001973137D01*
X0001475769Y0001973137D01*
G37*
D42*
G04 #@! TO.P,J4,1*
G04 #@! TO.N,Net-(D1-Pad4)*
X0001079873Y0001671716D03*
D43*
G04 #@! TD*
G04 #@! TO.N,Net-(D1-Pad4)*
G04 #@! TO.C,J4*
G36*
X0001079294Y0001583821D02*
X0001054294Y0001588821D01*
X0001053741Y0001588989D01*
X0001053029Y0001589410D01*
X0001028029Y0001609410D01*
X0001027615Y0001609815D01*
X0001027417Y0001610078D01*
X0000987417Y0001670078D01*
X0000987292Y0001670282D01*
X0000962292Y0001715282D01*
X0000962062Y0001715813D01*
X0000961940Y0001716379D01*
X0000961931Y0001716958D01*
X0000962034Y0001717527D01*
X0000962247Y0001718066D01*
X0000962561Y0001718552D01*
X0000963029Y0001719022D01*
X0000988029Y0001739022D01*
X0000988710Y0001739430D01*
X0001023710Y0001754430D01*
X0001024294Y0001754611D01*
X0001049294Y0001759611D01*
X0001049873Y0001759669D01*
X0001109873Y0001759669D01*
X0001110453Y0001759611D01*
X0001135453Y0001754611D01*
X0001136194Y0001754357D01*
X0001186194Y0001729357D01*
X0001186684Y0001729049D01*
X0001186961Y0001728804D01*
X0001201961Y0001713804D01*
X0001202329Y0001713357D01*
X0001202602Y0001712846D01*
X0001202770Y0001712292D01*
X0001202826Y0001711716D01*
X0001202770Y0001711140D01*
X0001202602Y0001710586D01*
X0001202455Y0001710282D01*
X0001177455Y0001665282D01*
X0001177262Y0001664979D01*
X0001137261Y0001609979D01*
X0001136718Y0001609410D01*
X0001111718Y0001589410D01*
X0001111233Y0001589095D01*
X0001110695Y0001588880D01*
X0001110359Y0001588803D01*
X0001080359Y0001583803D01*
X0001079781Y0001583765D01*
X0001079294Y0001583821D01*
X0001079294Y0001583821D01*
G37*
D44*
G04 #@! TO.N,Net-(D1-Pad4)*
X0001124873Y0001977716D03*
G04 #@! TD*
D45*
G04 #@! TO.N,Net-(D1-Pad4)*
X0001079873Y0001932716D02*
X0001079873Y0001671716D01*
X0001124873Y0001977716D02*
X0001079873Y0001932716D01*
G04 #@! TD*
G04 next file*
G04 #@! TF.GenerationSoftware,KiCad,Pcbnew,(5.0.1)-4*
G04 #@! TF.CreationDate,2020-02-20T17:45:55+01:00*
G04 #@! TF.ProjectId,bricopixels,627269636F706978656C732E6B696361,1*
G04 #@! TF.SameCoordinates,Original*
G04 #@! TF.FileFunction,Copper,L2,Bot,Signal*
G04 #@! TF.FilePolarity,Positive*
G04 Gerber Fmt 4.6, Leading zero omitted, Abs format (unit mm)*
G04 Created by KiCad (PCBNEW (5.0.1)-4) date 20/02/2020 17:45:55*
G01*
G04 APERTURE LIST*
G04 #@! TA.AperFunction,ComponentPad*
G04 #@! TD*
G04 #@! TA.AperFunction,Conductor*
G04 #@! TD*
G04 #@! TA.AperFunction,ViaPad*
G04 #@! TD*
G04 #@! TA.AperFunction,Conductor*
G04 #@! TD*
G04 APERTURE END LIST*
D46*
G04 #@! TO.P,J1,1*
G04 #@! TO.N,VCC*
X-0000856299Y0002381889D02*
X0001665700Y0001094889D03*
D47*
G04 #@! TD*
G04 #@! TO.N,VCC*
G04 #@! TO.C,J1*
G36*
X0001577805Y0001095468D02*
X0001582805Y0001120468D01*
X0001582973Y0001121022D01*
X0001583395Y0001121734D01*
X0001603395Y0001146734D01*
X0001603799Y0001147148D01*
X0001604062Y0001147346D01*
X0001664062Y0001187346D01*
X0001664266Y0001187470D01*
X0001709266Y0001212470D01*
X0001709797Y0001212701D01*
X0001710363Y0001212823D01*
X0001710942Y0001212832D01*
X0001711511Y0001212728D01*
X0001712050Y0001212516D01*
X0001712536Y0001212202D01*
X0001713006Y0001211734D01*
X0001733006Y0001186734D01*
X0001733414Y0001186052D01*
X0001748414Y0001151052D01*
X0001748596Y0001150468D01*
X0001753596Y0001125468D01*
X0001753653Y0001124889D01*
X0001753653Y0001064889D01*
X0001753596Y0001064310D01*
X0001748596Y0001039310D01*
X0001748341Y0001038569D01*
X0001723341Y0000988569D01*
X0001723033Y0000988079D01*
X0001722788Y0000987801D01*
X0001707788Y0000972801D01*
X0001707341Y0000972434D01*
X0001706830Y0000972161D01*
X0001706276Y0000971993D01*
X0001705700Y0000971936D01*
X0001705124Y0000971993D01*
X0001704570Y0000972161D01*
X0001704266Y0000972308D01*
X0001659266Y0000997308D01*
X0001658964Y0000997501D01*
X0001603964Y0001037501D01*
X0001603395Y0001038045D01*
X0001583395Y0001063045D01*
X0001583079Y0001063530D01*
X0001582864Y0001064067D01*
X0001582788Y0001064404D01*
X0001577788Y0001094404D01*
X0001577749Y0001094981D01*
X0001577805Y0001095468D01*
X0001577805Y0001095468D01*
G37*
D46*
G04 #@! TO.P,J2,1*
G04 #@! TO.N,Net-(D1-Pad2)*
X0001973700Y0001395889D03*
D47*
G04 #@! TD*
G04 #@! TO.N,Net-(D1-Pad2)*
G04 #@! TO.C,J2*
G36*
X0001974279Y0001483785D02*
X0001999279Y0001478785D01*
X0001999833Y0001478616D01*
X0002000545Y0001478195D01*
X0002025545Y0001458195D01*
X0002025959Y0001457791D01*
X0002026157Y0001457527D01*
X0002066157Y0001397527D01*
X0002066281Y0001397323D01*
X0002091281Y0001352323D01*
X0002091512Y0001351792D01*
X0002091634Y0001351226D01*
X0002091643Y0001350648D01*
X0002091539Y0001350078D01*
X0002091327Y0001349540D01*
X0002091013Y0001349053D01*
X0002090545Y0001348584D01*
X0002065545Y0001328584D01*
X0002064863Y0001328175D01*
X0002029863Y0001313175D01*
X0002029279Y0001312994D01*
X0002004279Y0001307994D01*
X0002003700Y0001307936D01*
X0001943700Y0001307936D01*
X0001943121Y0001307994D01*
X0001918121Y0001312994D01*
X0001917380Y0001313248D01*
X0001867380Y0001338248D01*
X0001866890Y0001338557D01*
X0001866612Y0001338801D01*
X0001851612Y0001353801D01*
X0001851245Y0001354249D01*
X0001850972Y0001354759D01*
X0001850804Y0001355313D01*
X0001850748Y0001355889D01*
X0001850804Y0001356465D01*
X0001850972Y0001357019D01*
X0001851119Y0001357323D01*
X0001876119Y0001402323D01*
X0001876312Y0001402626D01*
X0001916312Y0001457626D01*
X0001916856Y0001458195D01*
X0001941856Y0001478195D01*
X0001942341Y0001478511D01*
X0001942878Y0001478725D01*
X0001943215Y0001478802D01*
X0001973215Y0001483802D01*
X0001973792Y0001483841D01*
X0001974279Y0001483785D01*
X0001974279Y0001483785D01*
G37*
D46*
G04 #@! TO.P,J3,1*
G04 #@! TO.N,GND*
X0002273700Y0001087889D03*
D47*
G04 #@! TD*
G04 #@! TO.N,GND*
G04 #@! TO.C,J3*
G36*
X0002361596Y0001087310D02*
X0002356596Y0001062310D01*
X0002356427Y0001061756D01*
X0002356006Y0001061045D01*
X0002336006Y0001036045D01*
X0002335602Y0001035630D01*
X0002335338Y0001035432D01*
X0002275338Y0000995432D01*
X0002275134Y0000995308D01*
X0002230134Y0000970308D01*
X0002229603Y0000970078D01*
X0002229037Y0000969956D01*
X0002228459Y0000969946D01*
X0002227889Y0000970050D01*
X0002227351Y0000970263D01*
X0002226864Y0000970577D01*
X0002226395Y0000971045D01*
X0002206395Y0000996045D01*
X0002205986Y0000996726D01*
X0002190986Y0001031726D01*
X0002190805Y0001032310D01*
X0002185805Y0001057310D01*
X0002185748Y0001057889D01*
X0002185748Y0001117889D01*
X0002185805Y0001118468D01*
X0002190805Y0001143468D01*
X0002191059Y0001144210D01*
X0002216059Y0001194210D01*
X0002216368Y0001194700D01*
X0002216612Y0001194977D01*
X0002231612Y0001209977D01*
X0002232060Y0001210344D01*
X0002232570Y0001210617D01*
X0002233124Y0001210785D01*
X0002233700Y0001210842D01*
X0002234276Y0001210785D01*
X0002234830Y0001210617D01*
X0002235134Y0001210470D01*
X0002280134Y0001185470D01*
X0002280437Y0001185277D01*
X0002335437Y0001145277D01*
X0002336006Y0001144734D01*
X0002356006Y0001119734D01*
X0002356322Y0001119249D01*
X0002356536Y0001118711D01*
X0002356613Y0001118375D01*
X0002361613Y0001088375D01*
X0002361652Y0001087797D01*
X0002361596Y0001087310D01*
X0002361596Y0001087310D01*
G37*
D46*
G04 #@! TO.P,J4,1*
G04 #@! TO.N,Net-(D1-Pad4)*
X0001965700Y0000785889D03*
D47*
G04 #@! TD*
G04 #@! TO.N,Net-(D1-Pad4)*
G04 #@! TO.C,J4*
G36*
X0001965121Y0000697994D02*
X0001940121Y0000702994D01*
X0001939567Y0000703162D01*
X0001938856Y0000703584D01*
X0001913856Y0000723584D01*
X0001913441Y0000723988D01*
X0001913243Y0000724251D01*
X0001873243Y0000784251D01*
X0001873119Y0000784455D01*
X0001848119Y0000829455D01*
X0001847889Y0000829986D01*
X0001847767Y0000830552D01*
X0001847757Y0000831131D01*
X0001847861Y0000831700D01*
X0001848074Y0000832239D01*
X0001848388Y0000832725D01*
X0001848856Y0000833195D01*
X0001873856Y0000853195D01*
X0001874537Y0000853603D01*
X0001909537Y0000868603D01*
X0001910121Y0000868785D01*
X0001935121Y0000873785D01*
X0001935700Y0000873842D01*
X0001995700Y0000873842D01*
X0001996279Y0000873785D01*
X0002021279Y0000868785D01*
X0002022021Y0000868530D01*
X0002072021Y0000843530D01*
X0002072511Y0000843222D01*
X0002072788Y0000842977D01*
X0002087788Y0000827977D01*
X0002088155Y0000827530D01*
X0002088428Y0000827019D01*
X0002088596Y0000826465D01*
X0002088653Y0000825889D01*
X0002088596Y0000825313D01*
X0002088428Y0000824759D01*
X0002088281Y0000824455D01*
X0002063281Y0000779455D01*
X0002063088Y0000779153D01*
X0002023088Y0000724153D01*
X0002022545Y0000723584D01*
X0001997545Y0000703584D01*
X0001997060Y0000703268D01*
X0001996522Y0000703053D01*
X0001996186Y0000702977D01*
X0001966186Y0000697977D01*
X0001965608Y0000697938D01*
X0001965121Y0000697994D01*
X0001965121Y0000697994D01*
G37*
D48*
G04 #@! TO.N,Net-(D1-Pad4)*
X0002010700Y0001091889D03*
G04 #@! TD*
D49*
G04 #@! TO.N,Net-(D1-Pad4)*
X0001965700Y0001046889D02*
X0001965700Y0000785889D01*
X0002010700Y0001091889D02*
X0001965700Y0001046889D01*
G04 #@! TD*
G04 next file*
G04 #@! TF.GenerationSoftware,KiCad,Pcbnew,(5.0.1)-4*
G04 #@! TF.CreationDate,2020-02-20T17:45:55+01:00*
G04 #@! TF.ProjectId,bricopixels,627269636F706978656C732E6B696361,1*
G04 #@! TF.SameCoordinates,Original*
G04 #@! TF.FileFunction,Copper,L2,Bot,Signal*
G04 #@! TF.FilePolarity,Positive*
G04 Gerber Fmt 4.6, Leading zero omitted, Abs format (unit mm)*
G04 Created by KiCad (PCBNEW (5.0.1)-4) date 20/02/2020 17:45:55*
G01*
G04 APERTURE LIST*
G04 #@! TA.AperFunction,ComponentPad*
G04 #@! TD*
G04 #@! TA.AperFunction,Conductor*
G04 #@! TD*
G04 #@! TA.AperFunction,ViaPad*
G04 #@! TD*
G04 #@! TA.AperFunction,Conductor*
G04 #@! TD*
G04 APERTURE END LIST*
D50*
G04 #@! TO.P,J1,1*
G04 #@! TO.N,VCC*
X0000472440Y0001929133D02*
X0002994440Y0000642133D03*
D51*
G04 #@! TD*
G04 #@! TO.N,VCC*
G04 #@! TO.C,J1*
G36*
X0002906545Y0000642712D02*
X0002911545Y0000667712D01*
X0002911714Y0000668266D01*
X0002912135Y0000668978D01*
X0002932135Y0000693978D01*
X0002932539Y0000694392D01*
X0002932803Y0000694590D01*
X0002992803Y0000734590D01*
X0002993006Y0000734715D01*
X0003038006Y0000759715D01*
X0003038538Y0000759945D01*
X0003039103Y0000760067D01*
X0003039682Y0000760076D01*
X0003040252Y0000759972D01*
X0003040790Y0000759760D01*
X0003041276Y0000759446D01*
X0003041746Y0000758978D01*
X0003061746Y0000733978D01*
X0003062154Y0000733297D01*
X0003077154Y0000698297D01*
X0003077336Y0000697712D01*
X0003082336Y0000672712D01*
X0003082393Y0000672133D01*
X0003082393Y0000612133D01*
X0003082336Y0000611554D01*
X0003077336Y0000586554D01*
X0003077081Y0000585813D01*
X0003052081Y0000535813D01*
X0003051773Y0000535323D01*
X0003051528Y0000535045D01*
X0003036528Y0000520045D01*
X0003036081Y0000519678D01*
X0003035570Y0000519405D01*
X0003035017Y0000519237D01*
X0003034440Y0000519181D01*
X0003033864Y0000519237D01*
X0003033310Y0000519405D01*
X0003033006Y0000519552D01*
X0002988006Y0000544552D01*
X0002987704Y0000544745D01*
X0002932704Y0000584745D01*
X0002932135Y0000585289D01*
X0002912135Y0000610289D01*
X0002911819Y0000610774D01*
X0002911604Y0000611312D01*
X0002911528Y0000611648D01*
X0002906528Y0000641648D01*
X0002906489Y0000642225D01*
X0002906545Y0000642712D01*
X0002906545Y0000642712D01*
G37*
D50*
G04 #@! TO.P,J2,1*
G04 #@! TO.N,Net-(D1-Pad2)*
X0003302440Y0000943133D03*
D51*
G04 #@! TD*
G04 #@! TO.N,Net-(D1-Pad2)*
G04 #@! TO.C,J2*
G36*
X0003303020Y0001031029D02*
X0003328020Y0001026029D01*
X0003328573Y0001025860D01*
X0003329285Y0001025439D01*
X0003354285Y0001005439D01*
X0003354699Y0001005035D01*
X0003354897Y0001004771D01*
X0003394897Y0000944771D01*
X0003395022Y0000944567D01*
X0003420022Y0000899567D01*
X0003420252Y0000899036D01*
X0003420374Y0000898470D01*
X0003420383Y0000897892D01*
X0003420280Y0000897322D01*
X0003420067Y0000896784D01*
X0003419753Y0000896297D01*
X0003419285Y0000895828D01*
X0003394285Y0000875828D01*
X0003393604Y0000875419D01*
X0003358604Y0000860419D01*
X0003358020Y0000860238D01*
X0003333020Y0000855238D01*
X0003332440Y0000855181D01*
X0003272440Y0000855181D01*
X0003271861Y0000855238D01*
X0003246861Y0000860238D01*
X0003246120Y0000860492D01*
X0003196120Y0000885492D01*
X0003195630Y0000885801D01*
X0003195353Y0000886045D01*
X0003180353Y0000901045D01*
X0003179985Y0000901493D01*
X0003179712Y0000902003D01*
X0003179544Y0000902557D01*
X0003179488Y0000903133D01*
X0003179544Y0000903709D01*
X0003179712Y0000904263D01*
X0003179859Y0000904567D01*
X0003204859Y0000949567D01*
X0003205052Y0000949870D01*
X0003245052Y0001004870D01*
X0003245596Y0001005439D01*
X0003270596Y0001025439D01*
X0003271081Y0001025755D01*
X0003271619Y0001025969D01*
X0003271955Y0001026046D01*
X0003301955Y0001031046D01*
X0003302533Y0001031085D01*
X0003303020Y0001031029D01*
X0003303020Y0001031029D01*
G37*
D50*
G04 #@! TO.P,J3,1*
G04 #@! TO.N,GND*
X0003602440Y0000635133D03*
D51*
G04 #@! TD*
G04 #@! TO.N,GND*
G04 #@! TO.C,J3*
G36*
X0003690336Y0000634554D02*
X0003685336Y0000609554D01*
X0003685167Y0000609001D01*
X0003684746Y0000608289D01*
X0003664746Y0000583289D01*
X0003664342Y0000582874D01*
X0003664078Y0000582677D01*
X0003604078Y0000542677D01*
X0003603874Y0000542552D01*
X0003558874Y0000517552D01*
X0003558343Y0000517322D01*
X0003557777Y0000517200D01*
X0003557199Y0000517190D01*
X0003556629Y0000517294D01*
X0003556091Y0000517507D01*
X0003555605Y0000517821D01*
X0003555135Y0000518289D01*
X0003535135Y0000543289D01*
X0003534726Y0000543970D01*
X0003519726Y0000578970D01*
X0003519545Y0000579554D01*
X0003514545Y0000604554D01*
X0003514488Y0000605133D01*
X0003514488Y0000665133D01*
X0003514545Y0000665712D01*
X0003519545Y0000690712D01*
X0003519799Y0000691454D01*
X0003544799Y0000741454D01*
X0003545108Y0000741944D01*
X0003545353Y0000742221D01*
X0003560353Y0000757221D01*
X0003560800Y0000757588D01*
X0003561310Y0000757861D01*
X0003561864Y0000758029D01*
X0003562440Y0000758086D01*
X0003563017Y0000758029D01*
X0003563570Y0000757861D01*
X0003563874Y0000757715D01*
X0003608874Y0000732715D01*
X0003609177Y0000732521D01*
X0003664177Y0000692521D01*
X0003664746Y0000691978D01*
X0003684746Y0000666978D01*
X0003685062Y0000666493D01*
X0003685277Y0000665955D01*
X0003685353Y0000665619D01*
X0003690353Y0000635619D01*
X0003690392Y0000635041D01*
X0003690336Y0000634554D01*
X0003690336Y0000634554D01*
G37*
D50*
G04 #@! TO.P,J4,1*
G04 #@! TO.N,Net-(D1-Pad4)*
X0003294440Y0000333133D03*
D51*
G04 #@! TD*
G04 #@! TO.N,Net-(D1-Pad4)*
G04 #@! TO.C,J4*
G36*
X0003293861Y0000245238D02*
X0003268861Y0000250238D01*
X0003268308Y0000250407D01*
X0003267596Y0000250828D01*
X0003242596Y0000270828D01*
X0003242182Y0000271232D01*
X0003241984Y0000271495D01*
X0003201984Y0000331495D01*
X0003201859Y0000331699D01*
X0003176859Y0000376699D01*
X0003176629Y0000377230D01*
X0003176507Y0000377796D01*
X0003176498Y0000378375D01*
X0003176601Y0000378945D01*
X0003176814Y0000379483D01*
X0003177128Y0000379969D01*
X0003177596Y0000380439D01*
X0003202596Y0000400439D01*
X0003203277Y0000400847D01*
X0003238277Y0000415847D01*
X0003238861Y0000416029D01*
X0003263861Y0000421029D01*
X0003264440Y0000421086D01*
X0003324440Y0000421086D01*
X0003325020Y0000421029D01*
X0003350020Y0000416029D01*
X0003350761Y0000415774D01*
X0003400761Y0000390774D01*
X0003401251Y0000390466D01*
X0003401528Y0000390221D01*
X0003416528Y0000375221D01*
X0003416896Y0000374774D01*
X0003417168Y0000374263D01*
X0003417336Y0000373709D01*
X0003417393Y0000373133D01*
X0003417336Y0000372557D01*
X0003417168Y0000372003D01*
X0003417022Y0000371699D01*
X0003392022Y0000326699D01*
X0003391828Y0000326397D01*
X0003351828Y0000271397D01*
X0003351285Y0000270828D01*
X0003326285Y0000250828D01*
X0003325800Y0000250512D01*
X0003325262Y0000250297D01*
X0003324926Y0000250221D01*
X0003294926Y0000245221D01*
X0003294348Y0000245182D01*
X0003293861Y0000245238D01*
X0003293861Y0000245238D01*
G37*
D52*
G04 #@! TO.N,Net-(D1-Pad4)*
X0003339440Y0000639133D03*
G04 #@! TD*
D53*
G04 #@! TO.N,Net-(D1-Pad4)*
X0003294440Y0000594133D02*
X0003294440Y0000333133D01*
X0003339440Y0000639133D02*
X0003294440Y0000594133D01*
G04 #@! TD*
G04 next file*
G04 #@! TF.GenerationSoftware,KiCad,Pcbnew,(5.0.1)-4*
G04 #@! TF.CreationDate,2020-02-20T17:45:55+01:00*
G04 #@! TF.ProjectId,bricopixels,627269636F706978656C732E6B696361,1*
G04 #@! TF.SameCoordinates,Original*
G04 #@! TF.FileFunction,Copper,L2,Bot,Signal*
G04 #@! TF.FilePolarity,Positive*
G04 Gerber Fmt 4.6, Leading zero omitted, Abs format (unit mm)*
G04 Created by KiCad (PCBNEW (5.0.1)-4) date 20/02/2020 17:45:55*
G01*
G04 APERTURE LIST*
G04 #@! TA.AperFunction,ComponentPad*
G04 #@! TD*
G04 #@! TA.AperFunction,Conductor*
G04 #@! TD*
G04 #@! TA.AperFunction,ViaPad*
G04 #@! TD*
G04 #@! TA.AperFunction,Conductor*
G04 #@! TD*
G04 APERTURE END LIST*
D54*
G04 #@! TO.P,J1,1*
G04 #@! TO.N,VCC*
X0000029527Y0002381889D02*
X0002551527Y0001094889D03*
D55*
G04 #@! TD*
G04 #@! TO.N,VCC*
G04 #@! TO.C,J1*
G36*
X0002463632Y0001095468D02*
X0002468632Y0001120468D01*
X0002468800Y0001121022D01*
X0002469221Y0001121734D01*
X0002489221Y0001146734D01*
X0002489626Y0001147148D01*
X0002489889Y0001147346D01*
X0002549889Y0001187346D01*
X0002550093Y0001187470D01*
X0002595093Y0001212470D01*
X0002595624Y0001212701D01*
X0002596190Y0001212823D01*
X0002596769Y0001212832D01*
X0002597338Y0001212728D01*
X0002597877Y0001212516D01*
X0002598363Y0001212202D01*
X0002598833Y0001211734D01*
X0002618833Y0001186734D01*
X0002619241Y0001186052D01*
X0002634241Y0001151052D01*
X0002634422Y0001150468D01*
X0002639422Y0001125468D01*
X0002639480Y0001124889D01*
X0002639480Y0001064889D01*
X0002639422Y0001064310D01*
X0002634422Y0001039310D01*
X0002634168Y0001038569D01*
X0002609168Y0000988569D01*
X0002608860Y0000988079D01*
X0002608615Y0000987801D01*
X0002593615Y0000972801D01*
X0002593168Y0000972434D01*
X0002592657Y0000972161D01*
X0002592103Y0000971993D01*
X0002591527Y0000971936D01*
X0002590951Y0000971993D01*
X0002590397Y0000972161D01*
X0002590093Y0000972308D01*
X0002545093Y0000997308D01*
X0002544790Y0000997501D01*
X0002489790Y0001037501D01*
X0002489221Y0001038045D01*
X0002469221Y0001063045D01*
X0002468906Y0001063530D01*
X0002468691Y0001064067D01*
X0002468614Y0001064404D01*
X0002463614Y0001094404D01*
X0002463576Y0001094981D01*
X0002463632Y0001095468D01*
X0002463632Y0001095468D01*
G37*
D54*
G04 #@! TO.P,J2,1*
G04 #@! TO.N,Net-(D1-Pad2)*
X0002859527Y0001395889D03*
D55*
G04 #@! TD*
G04 #@! TO.N,Net-(D1-Pad2)*
G04 #@! TO.C,J2*
G36*
X0002860106Y0001483785D02*
X0002885106Y0001478785D01*
X0002885660Y0001478616D01*
X0002886372Y0001478195D01*
X0002911372Y0001458195D01*
X0002911786Y0001457791D01*
X0002911984Y0001457527D01*
X0002951984Y0001397527D01*
X0002952108Y0001397323D01*
X0002977108Y0001352323D01*
X0002977338Y0001351792D01*
X0002977461Y0001351226D01*
X0002977470Y0001350648D01*
X0002977366Y0001350078D01*
X0002977153Y0001349540D01*
X0002976840Y0001349053D01*
X0002976372Y0001348584D01*
X0002951372Y0001328584D01*
X0002950690Y0001328175D01*
X0002915690Y0001313175D01*
X0002915106Y0001312994D01*
X0002890106Y0001307994D01*
X0002889527Y0001307936D01*
X0002829527Y0001307936D01*
X0002828948Y0001307994D01*
X0002803948Y0001312994D01*
X0002803207Y0001313248D01*
X0002753207Y0001338248D01*
X0002752717Y0001338557D01*
X0002752439Y0001338801D01*
X0002737439Y0001353801D01*
X0002737072Y0001354249D01*
X0002736799Y0001354759D01*
X0002736631Y0001355313D01*
X0002736574Y0001355889D01*
X0002736631Y0001356465D01*
X0002736799Y0001357019D01*
X0002736946Y0001357323D01*
X0002761946Y0001402323D01*
X0002762139Y0001402626D01*
X0002802139Y0001457626D01*
X0002802682Y0001458195D01*
X0002827682Y0001478195D01*
X0002828168Y0001478511D01*
X0002828705Y0001478725D01*
X0002829042Y0001478802D01*
X0002859042Y0001483802D01*
X0002859619Y0001483841D01*
X0002860106Y0001483785D01*
X0002860106Y0001483785D01*
G37*
D54*
G04 #@! TO.P,J3,1*
G04 #@! TO.N,GND*
X0003159527Y0001087889D03*
D55*
G04 #@! TD*
G04 #@! TO.N,GND*
G04 #@! TO.C,J3*
G36*
X0003247422Y0001087310D02*
X0003242422Y0001062310D01*
X0003242254Y0001061756D01*
X0003241833Y0001061045D01*
X0003221833Y0001036045D01*
X0003221429Y0001035630D01*
X0003221165Y0001035432D01*
X0003161165Y0000995432D01*
X0003160961Y0000995308D01*
X0003115961Y0000970308D01*
X0003115430Y0000970078D01*
X0003114864Y0000969956D01*
X0003114285Y0000969946D01*
X0003113716Y0000970050D01*
X0003113178Y0000970263D01*
X0003112691Y0000970577D01*
X0003112221Y0000971045D01*
X0003092221Y0000996045D01*
X0003091813Y0000996726D01*
X0003076813Y0001031726D01*
X0003076632Y0001032310D01*
X0003071632Y0001057310D01*
X0003071574Y0001057889D01*
X0003071574Y0001117889D01*
X0003071632Y0001118468D01*
X0003076632Y0001143468D01*
X0003076886Y0001144210D01*
X0003101886Y0001194210D01*
X0003102194Y0001194700D01*
X0003102439Y0001194977D01*
X0003117439Y0001209977D01*
X0003117887Y0001210344D01*
X0003118397Y0001210617D01*
X0003118951Y0001210785D01*
X0003119527Y0001210842D01*
X0003120103Y0001210785D01*
X0003120657Y0001210617D01*
X0003120961Y0001210470D01*
X0003165961Y0001185470D01*
X0003166264Y0001185277D01*
X0003221264Y0001145277D01*
X0003221833Y0001144734D01*
X0003241833Y0001119734D01*
X0003242148Y0001119249D01*
X0003242363Y0001118711D01*
X0003242440Y0001118375D01*
X0003247440Y0001088375D01*
X0003247478Y0001087797D01*
X0003247422Y0001087310D01*
X0003247422Y0001087310D01*
G37*
D54*
G04 #@! TO.P,J4,1*
G04 #@! TO.N,Net-(D1-Pad4)*
X0002851527Y0000785889D03*
D55*
G04 #@! TD*
G04 #@! TO.N,Net-(D1-Pad4)*
G04 #@! TO.C,J4*
G36*
X0002850948Y0000697994D02*
X0002825948Y0000702994D01*
X0002825394Y0000703162D01*
X0002824682Y0000703584D01*
X0002799682Y0000723584D01*
X0002799268Y0000723988D01*
X0002799070Y0000724251D01*
X0002759070Y0000784251D01*
X0002758946Y0000784455D01*
X0002733946Y0000829455D01*
X0002733716Y0000829986D01*
X0002733594Y0000830552D01*
X0002733584Y0000831131D01*
X0002733688Y0000831700D01*
X0002733901Y0000832239D01*
X0002734214Y0000832725D01*
X0002734682Y0000833195D01*
X0002759682Y0000853195D01*
X0002760364Y0000853603D01*
X0002795364Y0000868603D01*
X0002795948Y0000868785D01*
X0002820948Y0000873785D01*
X0002821527Y0000873842D01*
X0002881527Y0000873842D01*
X0002882106Y0000873785D01*
X0002907106Y0000868785D01*
X0002907848Y0000868530D01*
X0002957848Y0000843530D01*
X0002958337Y0000843222D01*
X0002958615Y0000842977D01*
X0002973615Y0000827977D01*
X0002973982Y0000827530D01*
X0002974255Y0000827019D01*
X0002974423Y0000826465D01*
X0002974480Y0000825889D01*
X0002974423Y0000825313D01*
X0002974255Y0000824759D01*
X0002974108Y0000824455D01*
X0002949108Y0000779455D01*
X0002948915Y0000779153D01*
X0002908915Y0000724153D01*
X0002908372Y0000723584D01*
X0002883372Y0000703584D01*
X0002882886Y0000703268D01*
X0002882349Y0000703053D01*
X0002882012Y0000702977D01*
X0002852012Y0000697977D01*
X0002851435Y0000697938D01*
X0002850948Y0000697994D01*
X0002850948Y0000697994D01*
G37*
D56*
G04 #@! TO.N,Net-(D1-Pad4)*
X0002896527Y0001091889D03*
G04 #@! TD*
D57*
G04 #@! TO.N,Net-(D1-Pad4)*
X0002851527Y0001046889D02*
X0002851527Y0000785889D01*
X0002896527Y0001091889D02*
X0002851527Y0001046889D01*
G04 #@! TD*
G04 next file*
G04 #@! TF.GenerationSoftware,KiCad,Pcbnew,(5.0.1)-4*
G04 #@! TF.CreationDate,2020-02-20T17:45:55+01:00*
G04 #@! TF.ProjectId,bricopixels,627269636F706978656C732E6B696361,1*
G04 #@! TF.SameCoordinates,Original*
G04 #@! TF.FileFunction,Copper,L2,Bot,Signal*
G04 #@! TF.FilePolarity,Positive*
G04 Gerber Fmt 4.6, Leading zero omitted, Abs format (unit mm)*
G04 Created by KiCad (PCBNEW (5.0.1)-4) date 20/02/2020 17:45:55*
G01*
G04 APERTURE LIST*
G04 #@! TA.AperFunction,ComponentPad*
G04 #@! TD*
G04 #@! TA.AperFunction,Conductor*
G04 #@! TD*
G04 #@! TA.AperFunction,ViaPad*
G04 #@! TD*
G04 #@! TA.AperFunction,Conductor*
G04 #@! TD*
G04 APERTURE END LIST*
D58*
G04 #@! TO.P,J1,1*
G04 #@! TO.N,VCC*
X-0001299212Y0001948818D02*
X0001222787Y0000661818D03*
D59*
G04 #@! TD*
G04 #@! TO.N,VCC*
G04 #@! TO.C,J1*
G36*
X0001134891Y0000662397D02*
X0001139891Y0000687397D01*
X0001140060Y0000687951D01*
X0001140481Y0000688663D01*
X0001160481Y0000713663D01*
X0001160885Y0000714077D01*
X0001161149Y0000714275D01*
X0001221149Y0000754275D01*
X0001221353Y0000754400D01*
X0001266353Y0000779400D01*
X0001266884Y0000779630D01*
X0001267450Y0000779752D01*
X0001268029Y0000779761D01*
X0001268598Y0000779658D01*
X0001269136Y0000779445D01*
X0001269623Y0000779131D01*
X0001270093Y0000778663D01*
X0001290093Y0000753663D01*
X0001290501Y0000752982D01*
X0001305501Y0000717982D01*
X0001305682Y0000717397D01*
X0001310682Y0000692397D01*
X0001310740Y0000691818D01*
X0001310740Y0000631818D01*
X0001310682Y0000631239D01*
X0001305682Y0000606239D01*
X0001305428Y0000605498D01*
X0001280428Y0000555498D01*
X0001280120Y0000555008D01*
X0001279875Y0000554730D01*
X0001264875Y0000539730D01*
X0001264427Y0000539363D01*
X0001263917Y0000539090D01*
X0001263363Y0000538922D01*
X0001262787Y0000538866D01*
X0001262211Y0000538922D01*
X0001261657Y0000539090D01*
X0001261353Y0000539237D01*
X0001216353Y0000564237D01*
X0001216050Y0000564430D01*
X0001161050Y0000604430D01*
X0001160481Y0000604974D01*
X0001140481Y0000629974D01*
X0001140166Y0000630459D01*
X0001139951Y0000630997D01*
X0001139874Y0000631333D01*
X0001134874Y0000661333D01*
X0001134836Y0000661911D01*
X0001134891Y0000662397D01*
X0001134891Y0000662397D01*
G37*
D58*
G04 #@! TO.P,J2,1*
G04 #@! TO.N,Net-(D1-Pad2)*
X0001530787Y0000962818D03*
D59*
G04 #@! TD*
G04 #@! TO.N,Net-(D1-Pad2)*
G04 #@! TO.C,J2*
G36*
X0001531366Y0001050714D02*
X0001556366Y0001045714D01*
X0001556920Y0001045545D01*
X0001557631Y0001045124D01*
X0001582631Y0001025124D01*
X0001583046Y0001024720D01*
X0001583244Y0001024456D01*
X0001623244Y0000964456D01*
X0001623368Y0000964252D01*
X0001648368Y0000919252D01*
X0001648598Y0000918721D01*
X0001648720Y0000918155D01*
X0001648730Y0000917577D01*
X0001648626Y0000917007D01*
X0001648413Y0000916469D01*
X0001648100Y0000915982D01*
X0001647631Y0000915513D01*
X0001622631Y0000895513D01*
X0001621950Y0000895104D01*
X0001586950Y0000880104D01*
X0001586366Y0000879923D01*
X0001561366Y0000874923D01*
X0001560787Y0000874866D01*
X0001500787Y0000874866D01*
X0001500208Y0000874923D01*
X0001475208Y0000879923D01*
X0001474466Y0000880177D01*
X0001424466Y0000905177D01*
X0001423977Y0000905486D01*
X0001423699Y0000905730D01*
X0001408699Y0000920730D01*
X0001408332Y0000921178D01*
X0001408059Y0000921688D01*
X0001407891Y0000922242D01*
X0001407834Y0000922818D01*
X0001407891Y0000923394D01*
X0001408059Y0000923948D01*
X0001408206Y0000924252D01*
X0001433206Y0000969252D01*
X0001433399Y0000969555D01*
X0001473399Y0001024555D01*
X0001473942Y0001025124D01*
X0001498942Y0001045124D01*
X0001499428Y0001045440D01*
X0001499965Y0001045655D01*
X0001500301Y0001045731D01*
X0001530301Y0001050731D01*
X0001530879Y0001050770D01*
X0001531366Y0001050714D01*
X0001531366Y0001050714D01*
G37*
D58*
G04 #@! TO.P,J3,1*
G04 #@! TO.N,GND*
X0001830787Y0000654818D03*
D59*
G04 #@! TD*
G04 #@! TO.N,GND*
G04 #@! TO.C,J3*
G36*
X0001918682Y0000654239D02*
X0001913682Y0000629239D01*
X0001913514Y0000628686D01*
X0001913093Y0000627974D01*
X0001893093Y0000602974D01*
X0001892688Y0000602559D01*
X0001892425Y0000602362D01*
X0001832425Y0000562362D01*
X0001832221Y0000562237D01*
X0001787221Y0000537237D01*
X0001786690Y0000537007D01*
X0001786124Y0000536885D01*
X0001785545Y0000536876D01*
X0001784976Y0000536979D01*
X0001784437Y0000537192D01*
X0001783951Y0000537506D01*
X0001783481Y0000537974D01*
X0001763481Y0000562974D01*
X0001763073Y0000563655D01*
X0001748073Y0000598655D01*
X0001747891Y0000599239D01*
X0001742891Y0000624239D01*
X0001742834Y0000624818D01*
X0001742834Y0000684818D01*
X0001742891Y0000685397D01*
X0001747891Y0000710397D01*
X0001748146Y0000711139D01*
X0001773146Y0000761139D01*
X0001773454Y0000761629D01*
X0001773699Y0000761906D01*
X0001788699Y0000776906D01*
X0001789146Y0000777274D01*
X0001789657Y0000777546D01*
X0001790211Y0000777714D01*
X0001790787Y0000777771D01*
X0001791363Y0000777714D01*
X0001791917Y0000777546D01*
X0001792221Y0000777400D01*
X0001837221Y0000752400D01*
X0001837524Y0000752206D01*
X0001892524Y0000712206D01*
X0001893093Y0000711663D01*
X0001913093Y0000686663D01*
X0001913408Y0000686178D01*
X0001913623Y0000685640D01*
X0001913700Y0000685304D01*
X0001918699Y0000655304D01*
X0001918738Y0000654726D01*
X0001918682Y0000654239D01*
X0001918682Y0000654239D01*
G37*
D58*
G04 #@! TO.P,J4,1*
G04 #@! TO.N,Net-(D1-Pad4)*
X0001522787Y0000352818D03*
D59*
G04 #@! TD*
G04 #@! TO.N,Net-(D1-Pad4)*
G04 #@! TO.C,J4*
G36*
X0001522208Y0000264923D02*
X0001497208Y0000269923D01*
X0001496654Y0000270092D01*
X0001495942Y0000270513D01*
X0001470942Y0000290513D01*
X0001470528Y0000290917D01*
X0001470330Y0000291180D01*
X0001430330Y0000351180D01*
X0001430206Y0000351384D01*
X0001405206Y0000396384D01*
X0001404976Y0000396916D01*
X0001404853Y0000397481D01*
X0001404844Y0000398060D01*
X0001404948Y0000398630D01*
X0001405161Y0000399168D01*
X0001405474Y0000399654D01*
X0001405942Y0000400124D01*
X0001430942Y0000420124D01*
X0001431624Y0000420532D01*
X0001466624Y0000435532D01*
X0001467208Y0000435714D01*
X0001492208Y0000440714D01*
X0001492787Y0000440771D01*
X0001552787Y0000440771D01*
X0001553366Y0000440714D01*
X0001578366Y0000435714D01*
X0001579107Y0000435459D01*
X0001629107Y0000410459D01*
X0001629597Y0000410151D01*
X0001629875Y0000409906D01*
X0001644875Y0000394906D01*
X0001645242Y0000394459D01*
X0001645515Y0000393948D01*
X0001645683Y0000393394D01*
X0001645740Y0000392818D01*
X0001645683Y0000392242D01*
X0001645515Y0000391688D01*
X0001645368Y0000391384D01*
X0001620368Y0000346384D01*
X0001620175Y0000346082D01*
X0001580175Y0000291082D01*
X0001579631Y0000290513D01*
X0001554631Y0000270513D01*
X0001554146Y0000270197D01*
X0001553609Y0000269982D01*
X0001553272Y0000269906D01*
X0001523272Y0000264906D01*
X0001522695Y0000264867D01*
X0001522208Y0000264923D01*
X0001522208Y0000264923D01*
G37*
D60*
G04 #@! TO.N,Net-(D1-Pad4)*
X0001567787Y0000658818D03*
G04 #@! TD*
D61*
G04 #@! TO.N,Net-(D1-Pad4)*
X0001522787Y0000613818D02*
X0001522787Y0000352818D01*
X0001567787Y0000658818D02*
X0001522787Y0000613818D01*
G04 #@! TD*
G04 next file*
G04 #@! TF.GenerationSoftware,KiCad,Pcbnew,(5.0.1)-4*
G04 #@! TF.CreationDate,2020-02-20T17:45:55+01:00*
G04 #@! TF.ProjectId,bricopixels,627269636F706978656C732E6B696361,1*
G04 #@! TF.SameCoordinates,Original*
G04 #@! TF.FileFunction,Copper,L2,Bot,Signal*
G04 #@! TF.FilePolarity,Positive*
G04 Gerber Fmt 4.6, Leading zero omitted, Abs format (unit mm)*
G04 Created by KiCad (PCBNEW (5.0.1)-4) date 20/02/2020 17:45:55*
G01*
G04 APERTURE LIST*
G04 #@! TA.AperFunction,ComponentPad*
G04 #@! TD*
G04 #@! TA.AperFunction,Conductor*
G04 #@! TD*
G04 #@! TA.AperFunction,ViaPad*
G04 #@! TD*
G04 #@! TA.AperFunction,Conductor*
G04 #@! TD*
G04 APERTURE END LIST*
D62*
G04 #@! TO.P,J1,1*
G04 #@! TO.N,VCC*
X-0000413385Y0001948818D02*
X0002108614Y0000661818D03*
D63*
G04 #@! TD*
G04 #@! TO.N,VCC*
G04 #@! TO.C,J1*
G36*
X0002020718Y0000662397D02*
X0002025718Y0000687397D01*
X0002025887Y0000687951D01*
X0002026308Y0000688663D01*
X0002046308Y0000713663D01*
X0002046712Y0000714077D01*
X0002046976Y0000714275D01*
X0002106976Y0000754275D01*
X0002107180Y0000754400D01*
X0002152180Y0000779400D01*
X0002152711Y0000779630D01*
X0002153277Y0000779752D01*
X0002153855Y0000779761D01*
X0002154425Y0000779658D01*
X0002154963Y0000779445D01*
X0002155450Y0000779131D01*
X0002155919Y0000778663D01*
X0002175919Y0000753663D01*
X0002176328Y0000752982D01*
X0002191328Y0000717982D01*
X0002191509Y0000717397D01*
X0002196509Y0000692397D01*
X0002196566Y0000691818D01*
X0002196566Y0000631818D01*
X0002196509Y0000631239D01*
X0002191509Y0000606239D01*
X0002191255Y0000605498D01*
X0002166255Y0000555498D01*
X0002165946Y0000555008D01*
X0002165702Y0000554730D01*
X0002150702Y0000539730D01*
X0002150254Y0000539363D01*
X0002149744Y0000539090D01*
X0002149190Y0000538922D01*
X0002148614Y0000538866D01*
X0002148038Y0000538922D01*
X0002147484Y0000539090D01*
X0002147180Y0000539237D01*
X0002102180Y0000564237D01*
X0002101877Y0000564430D01*
X0002046877Y0000604430D01*
X0002046308Y0000604974D01*
X0002026308Y0000629974D01*
X0002025992Y0000630459D01*
X0002025778Y0000630997D01*
X0002025701Y0000631333D01*
X0002020701Y0000661333D01*
X0002020662Y0000661911D01*
X0002020718Y0000662397D01*
X0002020718Y0000662397D01*
G37*
D62*
G04 #@! TO.P,J2,1*
G04 #@! TO.N,Net-(D1-Pad2)*
X0002416614Y0000962818D03*
D63*
G04 #@! TD*
G04 #@! TO.N,Net-(D1-Pad2)*
G04 #@! TO.C,J2*
G36*
X0002417193Y0001050714D02*
X0002442193Y0001045714D01*
X0002442746Y0001045545D01*
X0002443458Y0001045124D01*
X0002468458Y0001025124D01*
X0002468873Y0001024720D01*
X0002469071Y0001024456D01*
X0002509070Y0000964456D01*
X0002509195Y0000964252D01*
X0002534195Y0000919252D01*
X0002534425Y0000918721D01*
X0002534547Y0000918155D01*
X0002534557Y0000917577D01*
X0002534453Y0000917007D01*
X0002534240Y0000916469D01*
X0002533926Y0000915982D01*
X0002533458Y0000915513D01*
X0002508458Y0000895513D01*
X0002507777Y0000895104D01*
X0002472777Y0000880104D01*
X0002472193Y0000879923D01*
X0002447193Y0000874923D01*
X0002446614Y0000874866D01*
X0002386614Y0000874866D01*
X0002386035Y0000874923D01*
X0002361035Y0000879923D01*
X0002360293Y0000880177D01*
X0002310293Y0000905177D01*
X0002309803Y0000905486D01*
X0002309526Y0000905730D01*
X0002294526Y0000920730D01*
X0002294159Y0000921178D01*
X0002293886Y0000921688D01*
X0002293718Y0000922242D01*
X0002293661Y0000922818D01*
X0002293718Y0000923394D01*
X0002293886Y0000923948D01*
X0002294032Y0000924252D01*
X0002319032Y0000969252D01*
X0002319226Y0000969555D01*
X0002359226Y0001024555D01*
X0002359769Y0001025124D01*
X0002384769Y0001045124D01*
X0002385254Y0001045440D01*
X0002385792Y0001045655D01*
X0002386128Y0001045731D01*
X0002416128Y0001050731D01*
X0002416706Y0001050770D01*
X0002417193Y0001050714D01*
X0002417193Y0001050714D01*
G37*
D62*
G04 #@! TO.P,J3,1*
G04 #@! TO.N,GND*
X0002716614Y0000654818D03*
D63*
G04 #@! TD*
G04 #@! TO.N,GND*
G04 #@! TO.C,J3*
G36*
X0002804509Y0000654239D02*
X0002799509Y0000629239D01*
X0002799340Y0000628686D01*
X0002798919Y0000627974D01*
X0002778919Y0000602974D01*
X0002778515Y0000602559D01*
X0002778252Y0000602362D01*
X0002718252Y0000562362D01*
X0002718048Y0000562237D01*
X0002673048Y0000537237D01*
X0002672517Y0000537007D01*
X0002671951Y0000536885D01*
X0002671372Y0000536876D01*
X0002670802Y0000536979D01*
X0002670264Y0000537192D01*
X0002669778Y0000537506D01*
X0002669308Y0000537974D01*
X0002649308Y0000562974D01*
X0002648900Y0000563655D01*
X0002633900Y0000598655D01*
X0002633718Y0000599239D01*
X0002628718Y0000624239D01*
X0002628661Y0000624818D01*
X0002628661Y0000684818D01*
X0002628718Y0000685397D01*
X0002633718Y0000710397D01*
X0002633973Y0000711139D01*
X0002658973Y0000761139D01*
X0002659281Y0000761629D01*
X0002659526Y0000761906D01*
X0002674526Y0000776906D01*
X0002674973Y0000777274D01*
X0002675484Y0000777546D01*
X0002676038Y0000777714D01*
X0002676614Y0000777771D01*
X0002677190Y0000777714D01*
X0002677744Y0000777546D01*
X0002678048Y0000777400D01*
X0002723048Y0000752400D01*
X0002723350Y0000752206D01*
X0002778350Y0000712206D01*
X0002778919Y0000711663D01*
X0002798919Y0000686663D01*
X0002799235Y0000686178D01*
X0002799450Y0000685640D01*
X0002799526Y0000685304D01*
X0002804526Y0000655304D01*
X0002804565Y0000654726D01*
X0002804509Y0000654239D01*
X0002804509Y0000654239D01*
G37*
D62*
G04 #@! TO.P,J4,1*
G04 #@! TO.N,Net-(D1-Pad4)*
X0002408614Y0000352818D03*
D63*
G04 #@! TD*
G04 #@! TO.N,Net-(D1-Pad4)*
G04 #@! TO.C,J4*
G36*
X0002408035Y0000264923D02*
X0002383035Y0000269923D01*
X0002382481Y0000270092D01*
X0002381769Y0000270513D01*
X0002356769Y0000290513D01*
X0002356355Y0000290917D01*
X0002356157Y0000291180D01*
X0002316157Y0000351180D01*
X0002316032Y0000351384D01*
X0002291032Y0000396384D01*
X0002290802Y0000396916D01*
X0002290680Y0000397481D01*
X0002290671Y0000398060D01*
X0002290775Y0000398630D01*
X0002290987Y0000399168D01*
X0002291301Y0000399654D01*
X0002291769Y0000400124D01*
X0002316769Y0000420124D01*
X0002317451Y0000420532D01*
X0002352451Y0000435532D01*
X0002353035Y0000435714D01*
X0002378035Y0000440714D01*
X0002378614Y0000440771D01*
X0002438614Y0000440771D01*
X0002439193Y0000440714D01*
X0002464193Y0000435714D01*
X0002464934Y0000435459D01*
X0002514934Y0000410459D01*
X0002515424Y0000410151D01*
X0002515702Y0000409906D01*
X0002530702Y0000394906D01*
X0002531069Y0000394459D01*
X0002531342Y0000393948D01*
X0002531510Y0000393394D01*
X0002531566Y0000392818D01*
X0002531510Y0000392242D01*
X0002531342Y0000391688D01*
X0002531195Y0000391384D01*
X0002506195Y0000346384D01*
X0002506002Y0000346082D01*
X0002466002Y0000291082D01*
X0002465458Y0000290513D01*
X0002440458Y0000270513D01*
X0002439973Y0000270197D01*
X0002439435Y0000269982D01*
X0002439099Y0000269906D01*
X0002409099Y0000264906D01*
X0002408522Y0000264867D01*
X0002408035Y0000264923D01*
X0002408035Y0000264923D01*
G37*
D64*
G04 #@! TO.N,Net-(D1-Pad4)*
X0002453614Y0000658818D03*
G04 #@! TD*
D65*
G04 #@! TO.N,Net-(D1-Pad4)*
X0002408614Y0000613818D02*
X0002408614Y0000352818D01*
X0002453614Y0000658818D02*
X0002408614Y0000613818D01*
G04 #@! TD*
G04 next file*
G04 #@! TF.GenerationSoftware,KiCad,Pcbnew,(5.0.1)-4*
G04 #@! TF.CreationDate,2020-02-20T17:45:55+01:00*
G04 #@! TF.ProjectId,bricopixels,627269636F706978656C732E6B696361,1*
G04 #@! TF.SameCoordinates,Original*
G04 #@! TF.FileFunction,Copper,L2,Bot,Signal*
G04 #@! TF.FilePolarity,Positive*
G04 Gerber Fmt 4.6, Leading zero omitted, Abs format (unit mm)*
G04 Created by KiCad (PCBNEW (5.0.1)-4) date 20/02/2020 17:45:55*
G01*
G04 APERTURE LIST*
G04 #@! TA.AperFunction,ComponentPad*
G04 #@! TD*
G04 #@! TA.AperFunction,Conductor*
G04 #@! TD*
G04 #@! TA.AperFunction,ViaPad*
G04 #@! TD*
G04 #@! TA.AperFunction,Conductor*
G04 #@! TD*
G04 APERTURE END LIST*
D66*
G04 #@! TO.P,J1,1*
G04 #@! TO.N,VCC*
X-0001742125Y0004153543D02*
X0000779874Y0002866543D03*
D67*
G04 #@! TD*
G04 #@! TO.N,VCC*
G04 #@! TO.C,J1*
G36*
X0000691978Y0002867122D02*
X0000696978Y0002892122D01*
X0000697147Y0002892676D01*
X0000697568Y0002893387D01*
X0000717568Y0002918387D01*
X0000717972Y0002918802D01*
X0000718236Y0002919000D01*
X0000778236Y0002959000D01*
X0000778440Y0002959124D01*
X0000823440Y0002984124D01*
X0000823971Y0002984354D01*
X0000824536Y0002984476D01*
X0000825115Y0002984486D01*
X0000825685Y0002984382D01*
X0000826223Y0002984169D01*
X0000826709Y0002983855D01*
X0000827179Y0002983387D01*
X0000847179Y0002958387D01*
X0000847587Y0002957706D01*
X0000862587Y0002922706D01*
X0000862769Y0002922122D01*
X0000867769Y0002897122D01*
X0000867826Y0002896543D01*
X0000867826Y0002836543D01*
X0000867769Y0002835964D01*
X0000862769Y0002810964D01*
X0000862515Y0002810222D01*
X0000837515Y0002760222D01*
X0000837206Y0002759732D01*
X0000836961Y0002759455D01*
X0000821961Y0002744455D01*
X0000821514Y0002744088D01*
X0000821003Y0002743815D01*
X0000820450Y0002743647D01*
X0000819873Y0002743590D01*
X0000819297Y0002743647D01*
X0000818744Y0002743815D01*
X0000818440Y0002743962D01*
X0000773440Y0002768962D01*
X0000773137Y0002769155D01*
X0000718137Y0002809155D01*
X0000717568Y0002809698D01*
X0000697568Y0002834698D01*
X0000697252Y0002835184D01*
X0000697037Y0002835721D01*
X0000696961Y0002836057D01*
X0000691961Y0002866057D01*
X0000691922Y0002866635D01*
X0000691978Y0002867122D01*
X0000691978Y0002867122D01*
G37*
D66*
G04 #@! TO.P,J2,1*
G04 #@! TO.N,Net-(D1-Pad2)*
X0001087874Y0003167543D03*
D67*
G04 #@! TD*
G04 #@! TO.N,Net-(D1-Pad2)*
G04 #@! TO.C,J2*
G36*
X0001088453Y0003255438D02*
X0001113453Y0003250438D01*
X0001114006Y0003250270D01*
X0001114718Y0003249849D01*
X0001139718Y0003229848D01*
X0001140132Y0003229444D01*
X0001140330Y0003229181D01*
X0001180330Y0003169181D01*
X0001180455Y0003168977D01*
X0001205455Y0003123977D01*
X0001205685Y0003123446D01*
X0001205807Y0003122880D01*
X0001205816Y0003122301D01*
X0001205713Y0003121732D01*
X0001205500Y0003121193D01*
X0001205186Y0003120707D01*
X0001204718Y0003120237D01*
X0001179718Y0003100237D01*
X0001179037Y0003099829D01*
X0001144037Y0003084829D01*
X0001143453Y0003084647D01*
X0001118453Y0003079647D01*
X0001117874Y0003079590D01*
X0001057874Y0003079590D01*
X0001057294Y0003079647D01*
X0001032294Y0003084647D01*
X0001031553Y0003084902D01*
X0000981553Y0003109902D01*
X0000981063Y0003110210D01*
X0000980786Y0003110455D01*
X0000965786Y0003125455D01*
X0000965418Y0003125902D01*
X0000965145Y0003126413D01*
X0000964977Y0003126967D01*
X0000964921Y0003127543D01*
X0000964977Y0003128119D01*
X0000965145Y0003128673D01*
X0000965292Y0003128977D01*
X0000990292Y0003173977D01*
X0000990485Y0003174280D01*
X0001030486Y0003229280D01*
X0001031029Y0003229848D01*
X0001056029Y0003249849D01*
X0001056514Y0003250164D01*
X0001057052Y0003250379D01*
X0001057388Y0003250455D01*
X0001087388Y0003255455D01*
X0001087966Y0003255494D01*
X0001088453Y0003255438D01*
X0001088453Y0003255438D01*
G37*
D66*
G04 #@! TO.P,J3,1*
G04 #@! TO.N,GND*
X0001387873Y0002859543D03*
D67*
G04 #@! TD*
G04 #@! TO.N,GND*
G04 #@! TO.C,J3*
G36*
X0001475769Y0002858964D02*
X0001470769Y0002833964D01*
X0001470600Y0002833410D01*
X0001470179Y0002832698D01*
X0001450179Y0002807698D01*
X0001449775Y0002807284D01*
X0001449511Y0002807086D01*
X0001389511Y0002767086D01*
X0001389307Y0002766962D01*
X0001344307Y0002741962D01*
X0001343776Y0002741731D01*
X0001343211Y0002741609D01*
X0001342632Y0002741600D01*
X0001342062Y0002741704D01*
X0001341524Y0002741916D01*
X0001341038Y0002742230D01*
X0001340568Y0002742698D01*
X0001320568Y0002767698D01*
X0001320160Y0002768380D01*
X0001305160Y0002803380D01*
X0001304978Y0002803964D01*
X0001299978Y0002828964D01*
X0001299921Y0002829543D01*
X0001299921Y0002889543D01*
X0001299978Y0002890122D01*
X0001304978Y0002915122D01*
X0001305232Y0002915863D01*
X0001330232Y0002965863D01*
X0001330541Y0002966353D01*
X0001330786Y0002966631D01*
X0001345786Y0002981631D01*
X0001346233Y0002981998D01*
X0001346744Y0002982271D01*
X0001347297Y0002982439D01*
X0001347874Y0002982496D01*
X0001348450Y0002982439D01*
X0001349003Y0002982271D01*
X0001349307Y0002982124D01*
X0001394307Y0002957124D01*
X0001394610Y0002956931D01*
X0001449610Y0002916931D01*
X0001450179Y0002916387D01*
X0001470179Y0002891387D01*
X0001470495Y0002890902D01*
X0001470710Y0002890365D01*
X0001470786Y0002890028D01*
X0001475786Y0002860028D01*
X0001475825Y0002859451D01*
X0001475769Y0002858964D01*
X0001475769Y0002858964D01*
G37*
D66*
G04 #@! TO.P,J4,1*
G04 #@! TO.N,Net-(D1-Pad4)*
X0001079873Y0002557543D03*
D67*
G04 #@! TD*
G04 #@! TO.N,Net-(D1-Pad4)*
G04 #@! TO.C,J4*
G36*
X0001079294Y0002469647D02*
X0001054294Y0002474647D01*
X0001053741Y0002474816D01*
X0001053029Y0002475237D01*
X0001028029Y0002495237D01*
X0001027615Y0002495641D01*
X0001027417Y0002495905D01*
X0000987417Y0002555905D01*
X0000987292Y0002556109D01*
X0000962292Y0002601109D01*
X0000962062Y0002601640D01*
X0000961940Y0002602206D01*
X0000961931Y0002602784D01*
X0000962034Y0002603354D01*
X0000962247Y0002603892D01*
X0000962561Y0002604379D01*
X0000963029Y0002604848D01*
X0000988029Y0002624849D01*
X0000988710Y0002625257D01*
X0001023710Y0002640257D01*
X0001024294Y0002640438D01*
X0001049294Y0002645438D01*
X0001049873Y0002645496D01*
X0001109873Y0002645496D01*
X0001110453Y0002645438D01*
X0001135453Y0002640438D01*
X0001136194Y0002640184D01*
X0001186194Y0002615184D01*
X0001186684Y0002614875D01*
X0001186961Y0002614631D01*
X0001201961Y0002599631D01*
X0001202329Y0002599183D01*
X0001202602Y0002598673D01*
X0001202770Y0002598119D01*
X0001202826Y0002597543D01*
X0001202770Y0002596967D01*
X0001202602Y0002596413D01*
X0001202455Y0002596109D01*
X0001177455Y0002551109D01*
X0001177262Y0002550806D01*
X0001137261Y0002495806D01*
X0001136718Y0002495237D01*
X0001111718Y0002475237D01*
X0001111233Y0002474922D01*
X0001110695Y0002474707D01*
X0001110359Y0002474630D01*
X0001080359Y0002469630D01*
X0001079781Y0002469592D01*
X0001079294Y0002469647D01*
X0001079294Y0002469647D01*
G37*
D68*
G04 #@! TO.N,Net-(D1-Pad4)*
X0001124873Y0002863543D03*
G04 #@! TD*
D69*
G04 #@! TO.N,Net-(D1-Pad4)*
X0001079873Y0002818543D02*
X0001079873Y0002557543D01*
X0001124873Y0002863543D02*
X0001079873Y0002818543D01*
G04 #@! TD*
G04 next file*
G04 #@! TF.GenerationSoftware,KiCad,Pcbnew,(5.0.1)-4*
G04 #@! TF.CreationDate,2020-02-20T17:45:55+01:00*
G04 #@! TF.ProjectId,bricopixels,627269636F706978656C732E6B696361,1*
G04 #@! TF.SameCoordinates,Original*
G04 #@! TF.FileFunction,Copper,L2,Bot,Signal*
G04 #@! TF.FilePolarity,Positive*
G04 Gerber Fmt 4.6, Leading zero omitted, Abs format (unit mm)*
G04 Created by KiCad (PCBNEW (5.0.1)-4) date 20/02/2020 17:45:55*
G01*
G04 APERTURE LIST*
G04 #@! TA.AperFunction,ComponentPad*
G04 #@! TD*
G04 #@! TA.AperFunction,Conductor*
G04 #@! TD*
G04 #@! TA.AperFunction,ViaPad*
G04 #@! TD*
G04 #@! TA.AperFunction,Conductor*
G04 #@! TD*
G04 APERTURE END LIST*
D70*
G04 #@! TO.P,J1,1*
G04 #@! TO.N,VCC*
X-0000856299Y0003267716D02*
X0001665700Y0001980716D03*
D71*
G04 #@! TD*
G04 #@! TO.N,VCC*
G04 #@! TO.C,J1*
G36*
X0001577805Y0001981295D02*
X0001582805Y0002006295D01*
X0001582973Y0002006849D01*
X0001583395Y0002007561D01*
X0001603395Y0002032561D01*
X0001603799Y0002032975D01*
X0001604062Y0002033173D01*
X0001664062Y0002073173D01*
X0001664266Y0002073297D01*
X0001709266Y0002098297D01*
X0001709797Y0002098527D01*
X0001710363Y0002098650D01*
X0001710942Y0002098659D01*
X0001711511Y0002098555D01*
X0001712050Y0002098342D01*
X0001712536Y0002098029D01*
X0001713006Y0002097561D01*
X0001733006Y0002072561D01*
X0001733414Y0002071879D01*
X0001748414Y0002036879D01*
X0001748596Y0002036295D01*
X0001753596Y0002011295D01*
X0001753653Y0002010716D01*
X0001753653Y0001950716D01*
X0001753596Y0001950137D01*
X0001748596Y0001925137D01*
X0001748341Y0001924396D01*
X0001723341Y0001874396D01*
X0001723033Y0001873906D01*
X0001722788Y0001873628D01*
X0001707788Y0001858628D01*
X0001707341Y0001858261D01*
X0001706830Y0001857988D01*
X0001706276Y0001857820D01*
X0001705700Y0001857763D01*
X0001705124Y0001857820D01*
X0001704570Y0001857988D01*
X0001704266Y0001858135D01*
X0001659266Y0001883135D01*
X0001658964Y0001883328D01*
X0001603964Y0001923328D01*
X0001603395Y0001923871D01*
X0001583395Y0001948871D01*
X0001583079Y0001949357D01*
X0001582864Y0001949894D01*
X0001582788Y0001950231D01*
X0001577788Y0001980231D01*
X0001577749Y0001980808D01*
X0001577805Y0001981295D01*
X0001577805Y0001981295D01*
G37*
D70*
G04 #@! TO.P,J2,1*
G04 #@! TO.N,Net-(D1-Pad2)*
X0001973700Y0002281716D03*
D71*
G04 #@! TD*
G04 #@! TO.N,Net-(D1-Pad2)*
G04 #@! TO.C,J2*
G36*
X0001974279Y0002369611D02*
X0001999279Y0002364611D01*
X0001999833Y0002364443D01*
X0002000545Y0002364022D01*
X0002025545Y0002344022D01*
X0002025959Y0002343618D01*
X0002026157Y0002343354D01*
X0002066157Y0002283354D01*
X0002066281Y0002283150D01*
X0002091281Y0002238150D01*
X0002091512Y0002237619D01*
X0002091634Y0002237053D01*
X0002091643Y0002236474D01*
X0002091539Y0002235905D01*
X0002091327Y0002235367D01*
X0002091013Y0002234880D01*
X0002090545Y0002234410D01*
X0002065545Y0002214410D01*
X0002064863Y0002214002D01*
X0002029863Y0002199002D01*
X0002029279Y0002198821D01*
X0002004279Y0002193821D01*
X0002003700Y0002193763D01*
X0001943700Y0002193763D01*
X0001943121Y0002193821D01*
X0001918121Y0002198821D01*
X0001917380Y0002199075D01*
X0001867380Y0002224075D01*
X0001866890Y0002224383D01*
X0001866612Y0002224628D01*
X0001851612Y0002239628D01*
X0001851245Y0002240076D01*
X0001850972Y0002240586D01*
X0001850804Y0002241140D01*
X0001850748Y0002241716D01*
X0001850804Y0002242292D01*
X0001850972Y0002242846D01*
X0001851119Y0002243150D01*
X0001876119Y0002288150D01*
X0001876312Y0002288453D01*
X0001916312Y0002343453D01*
X0001916856Y0002344022D01*
X0001941856Y0002364022D01*
X0001942341Y0002364337D01*
X0001942878Y0002364552D01*
X0001943215Y0002364629D01*
X0001973215Y0002369629D01*
X0001973792Y0002369667D01*
X0001974279Y0002369611D01*
X0001974279Y0002369611D01*
G37*
D70*
G04 #@! TO.P,J3,1*
G04 #@! TO.N,GND*
X0002273700Y0001973716D03*
D71*
G04 #@! TD*
G04 #@! TO.N,GND*
G04 #@! TO.C,J3*
G36*
X0002361596Y0001973137D02*
X0002356596Y0001948137D01*
X0002356427Y0001947583D01*
X0002356006Y0001946871D01*
X0002336006Y0001921871D01*
X0002335602Y0001921457D01*
X0002335338Y0001921259D01*
X0002275338Y0001881259D01*
X0002275134Y0001881135D01*
X0002230134Y0001856135D01*
X0002229603Y0001855905D01*
X0002229037Y0001855783D01*
X0002228459Y0001855773D01*
X0002227889Y0001855877D01*
X0002227351Y0001856090D01*
X0002226864Y0001856403D01*
X0002226395Y0001856871D01*
X0002206395Y0001881871D01*
X0002205986Y0001882553D01*
X0002190986Y0001917553D01*
X0002190805Y0001918137D01*
X0002185805Y0001943137D01*
X0002185748Y0001943716D01*
X0002185748Y0002003716D01*
X0002185805Y0002004295D01*
X0002190805Y0002029295D01*
X0002191059Y0002030037D01*
X0002216059Y0002080037D01*
X0002216368Y0002080526D01*
X0002216612Y0002080804D01*
X0002231612Y0002095804D01*
X0002232060Y0002096171D01*
X0002232570Y0002096444D01*
X0002233124Y0002096612D01*
X0002233700Y0002096669D01*
X0002234276Y0002096612D01*
X0002234830Y0002096444D01*
X0002235134Y0002096297D01*
X0002280134Y0002071297D01*
X0002280437Y0002071104D01*
X0002335437Y0002031104D01*
X0002336006Y0002030561D01*
X0002356006Y0002005561D01*
X0002356322Y0002005075D01*
X0002356536Y0002004538D01*
X0002356613Y0002004201D01*
X0002361613Y0001974201D01*
X0002361652Y0001973624D01*
X0002361596Y0001973137D01*
X0002361596Y0001973137D01*
G37*
D70*
G04 #@! TO.P,J4,1*
G04 #@! TO.N,Net-(D1-Pad4)*
X0001965700Y0001671716D03*
D71*
G04 #@! TD*
G04 #@! TO.N,Net-(D1-Pad4)*
G04 #@! TO.C,J4*
G36*
X0001965121Y0001583821D02*
X0001940121Y0001588821D01*
X0001939567Y0001588989D01*
X0001938856Y0001589410D01*
X0001913856Y0001609410D01*
X0001913441Y0001609815D01*
X0001913243Y0001610078D01*
X0001873243Y0001670078D01*
X0001873119Y0001670282D01*
X0001848119Y0001715282D01*
X0001847889Y0001715813D01*
X0001847767Y0001716379D01*
X0001847757Y0001716958D01*
X0001847861Y0001717527D01*
X0001848074Y0001718066D01*
X0001848388Y0001718552D01*
X0001848856Y0001719022D01*
X0001873856Y0001739022D01*
X0001874537Y0001739430D01*
X0001909537Y0001754430D01*
X0001910121Y0001754611D01*
X0001935121Y0001759611D01*
X0001935700Y0001759669D01*
X0001995700Y0001759669D01*
X0001996279Y0001759611D01*
X0002021279Y0001754611D01*
X0002022021Y0001754357D01*
X0002072021Y0001729357D01*
X0002072511Y0001729049D01*
X0002072788Y0001728804D01*
X0002087788Y0001713804D01*
X0002088155Y0001713357D01*
X0002088428Y0001712846D01*
X0002088596Y0001712292D01*
X0002088653Y0001711716D01*
X0002088596Y0001711140D01*
X0002088428Y0001710586D01*
X0002088281Y0001710282D01*
X0002063281Y0001665282D01*
X0002063088Y0001664979D01*
X0002023088Y0001609979D01*
X0002022545Y0001609410D01*
X0001997545Y0001589410D01*
X0001997060Y0001589095D01*
X0001996522Y0001588880D01*
X0001996186Y0001588803D01*
X0001966186Y0001583803D01*
X0001965608Y0001583765D01*
X0001965121Y0001583821D01*
X0001965121Y0001583821D01*
G37*
D72*
G04 #@! TO.N,Net-(D1-Pad4)*
X0002010700Y0001977716D03*
G04 #@! TD*
D73*
G04 #@! TO.N,Net-(D1-Pad4)*
X0001965700Y0001932716D02*
X0001965700Y0001671716D01*
X0002010700Y0001977716D02*
X0001965700Y0001932716D01*
G04 #@! TD*
G04 next file*
G04 #@! TF.GenerationSoftware,KiCad,Pcbnew,(5.0.1)-4*
G04 #@! TF.CreationDate,2020-02-20T17:45:55+01:00*
G04 #@! TF.ProjectId,bricopixels,627269636F706978656C732E6B696361,1*
G04 #@! TF.SameCoordinates,Original*
G04 #@! TF.FileFunction,Copper,L2,Bot,Signal*
G04 #@! TF.FilePolarity,Positive*
G04 Gerber Fmt 4.6, Leading zero omitted, Abs format (unit mm)*
G04 Created by KiCad (PCBNEW (5.0.1)-4) date 20/02/2020 17:45:55*
G01*
G04 APERTURE LIST*
G04 #@! TA.AperFunction,ComponentPad*
G04 #@! TD*
G04 #@! TA.AperFunction,Conductor*
G04 #@! TD*
G04 #@! TA.AperFunction,ViaPad*
G04 #@! TD*
G04 #@! TA.AperFunction,Conductor*
G04 #@! TD*
G04 APERTURE END LIST*
D74*
G04 #@! TO.P,J1,1*
G04 #@! TO.N,VCC*
X0000472440Y0002814960D02*
X0002994440Y0001527960D03*
D75*
G04 #@! TD*
G04 #@! TO.N,VCC*
G04 #@! TO.C,J1*
G36*
X0002906545Y0001528539D02*
X0002911545Y0001553539D01*
X0002911714Y0001554093D01*
X0002912135Y0001554805D01*
X0002932135Y0001579805D01*
X0002932539Y0001580219D01*
X0002932803Y0001580417D01*
X0002992803Y0001620417D01*
X0002993006Y0001620541D01*
X0003038006Y0001645541D01*
X0003038538Y0001645771D01*
X0003039103Y0001645894D01*
X0003039682Y0001645903D01*
X0003040252Y0001645799D01*
X0003040790Y0001645586D01*
X0003041276Y0001645273D01*
X0003041746Y0001644805D01*
X0003061746Y0001619805D01*
X0003062154Y0001619123D01*
X0003077154Y0001584123D01*
X0003077336Y0001583539D01*
X0003082336Y0001558539D01*
X0003082393Y0001557960D01*
X0003082393Y0001497960D01*
X0003082336Y0001497381D01*
X0003077336Y0001472381D01*
X0003077081Y0001471640D01*
X0003052081Y0001421640D01*
X0003051773Y0001421150D01*
X0003051528Y0001420872D01*
X0003036528Y0001405872D01*
X0003036081Y0001405505D01*
X0003035570Y0001405232D01*
X0003035017Y0001405064D01*
X0003034440Y0001405007D01*
X0003033864Y0001405064D01*
X0003033310Y0001405232D01*
X0003033006Y0001405379D01*
X0002988006Y0001430379D01*
X0002987704Y0001430572D01*
X0002932704Y0001470572D01*
X0002932135Y0001471116D01*
X0002912135Y0001496116D01*
X0002911819Y0001496601D01*
X0002911604Y0001497138D01*
X0002911528Y0001497475D01*
X0002906528Y0001527475D01*
X0002906489Y0001528052D01*
X0002906545Y0001528539D01*
X0002906545Y0001528539D01*
G37*
D74*
G04 #@! TO.P,J2,1*
G04 #@! TO.N,Net-(D1-Pad2)*
X0003302440Y0001828960D03*
D75*
G04 #@! TD*
G04 #@! TO.N,Net-(D1-Pad2)*
G04 #@! TO.C,J2*
G36*
X0003303020Y0001916856D02*
X0003328020Y0001911856D01*
X0003328573Y0001911687D01*
X0003329285Y0001911266D01*
X0003354285Y0001891266D01*
X0003354699Y0001890862D01*
X0003354897Y0001890598D01*
X0003394897Y0001830598D01*
X0003395022Y0001830394D01*
X0003420022Y0001785394D01*
X0003420252Y0001784863D01*
X0003420374Y0001784297D01*
X0003420383Y0001783718D01*
X0003420280Y0001783149D01*
X0003420067Y0001782611D01*
X0003419753Y0001782124D01*
X0003419285Y0001781654D01*
X0003394285Y0001761654D01*
X0003393604Y0001761246D01*
X0003358604Y0001746246D01*
X0003358020Y0001746065D01*
X0003333020Y0001741065D01*
X0003332440Y0001741007D01*
X0003272440Y0001741007D01*
X0003271861Y0001741065D01*
X0003246861Y0001746065D01*
X0003246120Y0001746319D01*
X0003196120Y0001771319D01*
X0003195630Y0001771627D01*
X0003195353Y0001771872D01*
X0003180353Y0001786872D01*
X0003179985Y0001787320D01*
X0003179712Y0001787830D01*
X0003179544Y0001788384D01*
X0003179488Y0001788960D01*
X0003179544Y0001789536D01*
X0003179712Y0001790090D01*
X0003179859Y0001790394D01*
X0003204859Y0001835394D01*
X0003205052Y0001835697D01*
X0003245052Y0001890697D01*
X0003245596Y0001891266D01*
X0003270596Y0001911266D01*
X0003271081Y0001911581D01*
X0003271619Y0001911796D01*
X0003271955Y0001911873D01*
X0003301955Y0001916873D01*
X0003302533Y0001916911D01*
X0003303020Y0001916856D01*
X0003303020Y0001916856D01*
G37*
D74*
G04 #@! TO.P,J3,1*
G04 #@! TO.N,GND*
X0003602440Y0001520960D03*
D75*
G04 #@! TD*
G04 #@! TO.N,GND*
G04 #@! TO.C,J3*
G36*
X0003690336Y0001520381D02*
X0003685336Y0001495381D01*
X0003685167Y0001494827D01*
X0003684746Y0001494116D01*
X0003664746Y0001469116D01*
X0003664342Y0001468701D01*
X0003664078Y0001468503D01*
X0003604078Y0001428503D01*
X0003603874Y0001428379D01*
X0003558874Y0001403379D01*
X0003558343Y0001403149D01*
X0003557777Y0001403027D01*
X0003557199Y0001403017D01*
X0003556629Y0001403121D01*
X0003556091Y0001403334D01*
X0003555605Y0001403648D01*
X0003555135Y0001404116D01*
X0003535135Y0001429116D01*
X0003534726Y0001429797D01*
X0003519726Y0001464797D01*
X0003519545Y0001465381D01*
X0003514545Y0001490381D01*
X0003514488Y0001490960D01*
X0003514488Y0001550960D01*
X0003514545Y0001551539D01*
X0003519545Y0001576539D01*
X0003519799Y0001577281D01*
X0003544799Y0001627281D01*
X0003545108Y0001627770D01*
X0003545353Y0001628048D01*
X0003560353Y0001643048D01*
X0003560800Y0001643415D01*
X0003561310Y0001643688D01*
X0003561864Y0001643856D01*
X0003562440Y0001643913D01*
X0003563017Y0001643856D01*
X0003563570Y0001643688D01*
X0003563874Y0001643541D01*
X0003608874Y0001618541D01*
X0003609177Y0001618348D01*
X0003664177Y0001578348D01*
X0003664746Y0001577805D01*
X0003684746Y0001552805D01*
X0003685062Y0001552319D01*
X0003685277Y0001551782D01*
X0003685353Y0001551446D01*
X0003690353Y0001521446D01*
X0003690392Y0001520868D01*
X0003690336Y0001520381D01*
X0003690336Y0001520381D01*
G37*
D74*
G04 #@! TO.P,J4,1*
G04 #@! TO.N,Net-(D1-Pad4)*
X0003294440Y0001218960D03*
D75*
G04 #@! TD*
G04 #@! TO.N,Net-(D1-Pad4)*
G04 #@! TO.C,J4*
G36*
X0003293861Y0001131065D02*
X0003268861Y0001136065D01*
X0003268308Y0001136233D01*
X0003267596Y0001136654D01*
X0003242596Y0001156654D01*
X0003242182Y0001157059D01*
X0003241984Y0001157322D01*
X0003201984Y0001217322D01*
X0003201859Y0001217526D01*
X0003176859Y0001262526D01*
X0003176629Y0001263057D01*
X0003176507Y0001263623D01*
X0003176498Y0001264202D01*
X0003176601Y0001264771D01*
X0003176814Y0001265310D01*
X0003177128Y0001265796D01*
X0003177596Y0001266266D01*
X0003202596Y0001286266D01*
X0003203277Y0001286674D01*
X0003238277Y0001301674D01*
X0003238861Y0001301856D01*
X0003263861Y0001306856D01*
X0003264440Y0001306913D01*
X0003324440Y0001306913D01*
X0003325020Y0001306856D01*
X0003350020Y0001301856D01*
X0003350761Y0001301601D01*
X0003400761Y0001276601D01*
X0003401251Y0001276293D01*
X0003401528Y0001276048D01*
X0003416528Y0001261048D01*
X0003416896Y0001260601D01*
X0003417168Y0001260090D01*
X0003417336Y0001259536D01*
X0003417393Y0001258960D01*
X0003417336Y0001258384D01*
X0003417168Y0001257830D01*
X0003417022Y0001257526D01*
X0003392022Y0001212526D01*
X0003391828Y0001212223D01*
X0003351828Y0001157223D01*
X0003351285Y0001156654D01*
X0003326285Y0001136654D01*
X0003325800Y0001136339D01*
X0003325262Y0001136124D01*
X0003324926Y0001136048D01*
X0003294926Y0001131048D01*
X0003294348Y0001131009D01*
X0003293861Y0001131065D01*
X0003293861Y0001131065D01*
G37*
D76*
G04 #@! TO.N,Net-(D1-Pad4)*
X0003339440Y0001524960D03*
G04 #@! TD*
D77*
G04 #@! TO.N,Net-(D1-Pad4)*
X0003294440Y0001479960D02*
X0003294440Y0001218960D01*
X0003339440Y0001524960D02*
X0003294440Y0001479960D01*
G04 #@! TD*
G04 next file*
G04 #@! TF.GenerationSoftware,KiCad,Pcbnew,(5.0.1)-4*
G04 #@! TF.CreationDate,2020-02-20T17:45:55+01:00*
G04 #@! TF.ProjectId,bricopixels,627269636F706978656C732E6B696361,1*
G04 #@! TF.SameCoordinates,Original*
G04 #@! TF.FileFunction,Copper,L2,Bot,Signal*
G04 #@! TF.FilePolarity,Positive*
G04 Gerber Fmt 4.6, Leading zero omitted, Abs format (unit mm)*
G04 Created by KiCad (PCBNEW (5.0.1)-4) date 20/02/2020 17:45:55*
G01*
G04 APERTURE LIST*
G04 #@! TA.AperFunction,ComponentPad*
G04 #@! TD*
G04 #@! TA.AperFunction,Conductor*
G04 #@! TD*
G04 #@! TA.AperFunction,ViaPad*
G04 #@! TD*
G04 #@! TA.AperFunction,Conductor*
G04 #@! TD*
G04 APERTURE END LIST*
D78*
G04 #@! TO.P,J1,1*
G04 #@! TO.N,VCC*
X-0000413385Y0002814960D02*
X0002108614Y0001527960D03*
D79*
G04 #@! TD*
G04 #@! TO.N,VCC*
G04 #@! TO.C,J1*
G36*
X0002020718Y0001528539D02*
X0002025718Y0001553539D01*
X0002025887Y0001554093D01*
X0002026308Y0001554805D01*
X0002046308Y0001579805D01*
X0002046712Y0001580219D01*
X0002046976Y0001580417D01*
X0002106976Y0001620417D01*
X0002107180Y0001620541D01*
X0002152180Y0001645541D01*
X0002152711Y0001645771D01*
X0002153277Y0001645894D01*
X0002153855Y0001645903D01*
X0002154425Y0001645799D01*
X0002154963Y0001645586D01*
X0002155450Y0001645273D01*
X0002155919Y0001644805D01*
X0002175919Y0001619805D01*
X0002176328Y0001619123D01*
X0002191328Y0001584123D01*
X0002191509Y0001583539D01*
X0002196509Y0001558539D01*
X0002196566Y0001557960D01*
X0002196566Y0001497960D01*
X0002196509Y0001497381D01*
X0002191509Y0001472381D01*
X0002191255Y0001471640D01*
X0002166255Y0001421640D01*
X0002165946Y0001421150D01*
X0002165702Y0001420872D01*
X0002150702Y0001405872D01*
X0002150254Y0001405505D01*
X0002149744Y0001405232D01*
X0002149190Y0001405064D01*
X0002148614Y0001405007D01*
X0002148038Y0001405064D01*
X0002147484Y0001405232D01*
X0002147180Y0001405379D01*
X0002102180Y0001430379D01*
X0002101877Y0001430572D01*
X0002046877Y0001470572D01*
X0002046308Y0001471116D01*
X0002026308Y0001496116D01*
X0002025992Y0001496601D01*
X0002025778Y0001497138D01*
X0002025701Y0001497475D01*
X0002020701Y0001527475D01*
X0002020662Y0001528052D01*
X0002020718Y0001528539D01*
X0002020718Y0001528539D01*
G37*
D78*
G04 #@! TO.P,J2,1*
G04 #@! TO.N,Net-(D1-Pad2)*
X0002416614Y0001828960D03*
D79*
G04 #@! TD*
G04 #@! TO.N,Net-(D1-Pad2)*
G04 #@! TO.C,J2*
G36*
X0002417193Y0001916856D02*
X0002442193Y0001911856D01*
X0002442746Y0001911687D01*
X0002443458Y0001911266D01*
X0002468458Y0001891266D01*
X0002468873Y0001890862D01*
X0002469071Y0001890598D01*
X0002509070Y0001830598D01*
X0002509195Y0001830394D01*
X0002534195Y0001785394D01*
X0002534425Y0001784863D01*
X0002534547Y0001784297D01*
X0002534557Y0001783718D01*
X0002534453Y0001783149D01*
X0002534240Y0001782611D01*
X0002533926Y0001782124D01*
X0002533458Y0001781654D01*
X0002508458Y0001761654D01*
X0002507777Y0001761246D01*
X0002472777Y0001746246D01*
X0002472193Y0001746065D01*
X0002447193Y0001741065D01*
X0002446614Y0001741007D01*
X0002386614Y0001741007D01*
X0002386035Y0001741065D01*
X0002361035Y0001746065D01*
X0002360293Y0001746319D01*
X0002310293Y0001771319D01*
X0002309803Y0001771627D01*
X0002309526Y0001771872D01*
X0002294526Y0001786872D01*
X0002294159Y0001787320D01*
X0002293886Y0001787830D01*
X0002293718Y0001788384D01*
X0002293661Y0001788960D01*
X0002293718Y0001789536D01*
X0002293886Y0001790090D01*
X0002294032Y0001790394D01*
X0002319032Y0001835394D01*
X0002319226Y0001835697D01*
X0002359226Y0001890697D01*
X0002359769Y0001891266D01*
X0002384769Y0001911266D01*
X0002385254Y0001911581D01*
X0002385792Y0001911796D01*
X0002386128Y0001911873D01*
X0002416128Y0001916873D01*
X0002416706Y0001916911D01*
X0002417193Y0001916856D01*
X0002417193Y0001916856D01*
G37*
D78*
G04 #@! TO.P,J3,1*
G04 #@! TO.N,GND*
X0002716614Y0001520960D03*
D79*
G04 #@! TD*
G04 #@! TO.N,GND*
G04 #@! TO.C,J3*
G36*
X0002804509Y0001520381D02*
X0002799509Y0001495381D01*
X0002799340Y0001494827D01*
X0002798919Y0001494116D01*
X0002778919Y0001469116D01*
X0002778515Y0001468701D01*
X0002778252Y0001468503D01*
X0002718252Y0001428503D01*
X0002718048Y0001428379D01*
X0002673048Y0001403379D01*
X0002672517Y0001403149D01*
X0002671951Y0001403027D01*
X0002671372Y0001403017D01*
X0002670802Y0001403121D01*
X0002670264Y0001403334D01*
X0002669778Y0001403648D01*
X0002669308Y0001404116D01*
X0002649308Y0001429116D01*
X0002648900Y0001429797D01*
X0002633900Y0001464797D01*
X0002633718Y0001465381D01*
X0002628718Y0001490381D01*
X0002628661Y0001490960D01*
X0002628661Y0001550960D01*
X0002628718Y0001551539D01*
X0002633718Y0001576539D01*
X0002633973Y0001577281D01*
X0002658973Y0001627281D01*
X0002659281Y0001627770D01*
X0002659526Y0001628048D01*
X0002674526Y0001643048D01*
X0002674973Y0001643415D01*
X0002675484Y0001643688D01*
X0002676038Y0001643856D01*
X0002676614Y0001643913D01*
X0002677190Y0001643856D01*
X0002677744Y0001643688D01*
X0002678048Y0001643541D01*
X0002723048Y0001618541D01*
X0002723350Y0001618348D01*
X0002778350Y0001578348D01*
X0002778919Y0001577805D01*
X0002798919Y0001552805D01*
X0002799235Y0001552319D01*
X0002799450Y0001551782D01*
X0002799526Y0001551446D01*
X0002804526Y0001521446D01*
X0002804565Y0001520868D01*
X0002804509Y0001520381D01*
X0002804509Y0001520381D01*
G37*
D78*
G04 #@! TO.P,J4,1*
G04 #@! TO.N,Net-(D1-Pad4)*
X0002408614Y0001218960D03*
D79*
G04 #@! TD*
G04 #@! TO.N,Net-(D1-Pad4)*
G04 #@! TO.C,J4*
G36*
X0002408035Y0001131065D02*
X0002383035Y0001136065D01*
X0002382481Y0001136233D01*
X0002381769Y0001136654D01*
X0002356769Y0001156654D01*
X0002356355Y0001157059D01*
X0002356157Y0001157322D01*
X0002316157Y0001217322D01*
X0002316032Y0001217526D01*
X0002291032Y0001262526D01*
X0002290802Y0001263057D01*
X0002290680Y0001263623D01*
X0002290671Y0001264202D01*
X0002290775Y0001264771D01*
X0002290987Y0001265310D01*
X0002291301Y0001265796D01*
X0002291769Y0001266266D01*
X0002316769Y0001286266D01*
X0002317451Y0001286674D01*
X0002352451Y0001301674D01*
X0002353035Y0001301856D01*
X0002378035Y0001306856D01*
X0002378614Y0001306913D01*
X0002438614Y0001306913D01*
X0002439193Y0001306856D01*
X0002464193Y0001301856D01*
X0002464934Y0001301601D01*
X0002514934Y0001276601D01*
X0002515424Y0001276293D01*
X0002515702Y0001276048D01*
X0002530702Y0001261048D01*
X0002531069Y0001260601D01*
X0002531342Y0001260090D01*
X0002531510Y0001259536D01*
X0002531566Y0001258960D01*
X0002531510Y0001258384D01*
X0002531342Y0001257830D01*
X0002531195Y0001257526D01*
X0002506195Y0001212526D01*
X0002506002Y0001212223D01*
X0002466002Y0001157223D01*
X0002465458Y0001156654D01*
X0002440458Y0001136654D01*
X0002439973Y0001136339D01*
X0002439435Y0001136124D01*
X0002439099Y0001136048D01*
X0002409099Y0001131048D01*
X0002408522Y0001131009D01*
X0002408035Y0001131065D01*
X0002408035Y0001131065D01*
G37*
D80*
G04 #@! TO.N,Net-(D1-Pad4)*
X0002453614Y0001524960D03*
G04 #@! TD*
D81*
G04 #@! TO.N,Net-(D1-Pad4)*
X0002408614Y0001479960D02*
X0002408614Y0001218960D01*
X0002453614Y0001524960D02*
X0002408614Y0001479960D01*
G04 #@! TD*
G04 next file*
G04 #@! TF.GenerationSoftware,KiCad,Pcbnew,(5.0.1)-4*
G04 #@! TF.CreationDate,2020-02-20T17:45:55+01:00*
G04 #@! TF.ProjectId,bricopixels,627269636F706978656C732E6B696361,1*
G04 #@! TF.SameCoordinates,Original*
G04 #@! TF.FileFunction,Copper,L2,Bot,Signal*
G04 #@! TF.FilePolarity,Positive*
G04 Gerber Fmt 4.6, Leading zero omitted, Abs format (unit mm)*
G04 Created by KiCad (PCBNEW (5.0.1)-4) date 20/02/2020 17:45:55*
G01*
G04 APERTURE LIST*
G04 #@! TA.AperFunction,ComponentPad*
G04 #@! TD*
G04 #@! TA.AperFunction,Conductor*
G04 #@! TD*
G04 #@! TA.AperFunction,ViaPad*
G04 #@! TD*
G04 #@! TA.AperFunction,Conductor*
G04 #@! TD*
G04 APERTURE END LIST*
D82*
G04 #@! TO.P,J1,1*
G04 #@! TO.N,VCC*
X-0001299212Y0003700787D02*
X0001222787Y0002413787D03*
D83*
G04 #@! TD*
G04 #@! TO.N,VCC*
G04 #@! TO.C,J1*
G36*
X0001134891Y0002414366D02*
X0001139891Y0002439366D01*
X0001140060Y0002439920D01*
X0001140481Y0002440631D01*
X0001160481Y0002465631D01*
X0001160885Y0002466046D01*
X0001161149Y0002466244D01*
X0001221149Y0002506244D01*
X0001221353Y0002506368D01*
X0001266353Y0002531368D01*
X0001266884Y0002531598D01*
X0001267450Y0002531720D01*
X0001268029Y0002531730D01*
X0001268598Y0002531626D01*
X0001269136Y0002531413D01*
X0001269623Y0002531100D01*
X0001270093Y0002530631D01*
X0001290093Y0002505631D01*
X0001290501Y0002504950D01*
X0001305501Y0002469950D01*
X0001305682Y0002469366D01*
X0001310682Y0002444366D01*
X0001310740Y0002443787D01*
X0001310740Y0002383787D01*
X0001310682Y0002383208D01*
X0001305682Y0002358208D01*
X0001305428Y0002357466D01*
X0001280428Y0002307466D01*
X0001280120Y0002306977D01*
X0001279875Y0002306699D01*
X0001264875Y0002291699D01*
X0001264427Y0002291332D01*
X0001263917Y0002291059D01*
X0001263363Y0002290891D01*
X0001262787Y0002290834D01*
X0001262211Y0002290891D01*
X0001261657Y0002291059D01*
X0001261353Y0002291206D01*
X0001216353Y0002316206D01*
X0001216050Y0002316399D01*
X0001161050Y0002356399D01*
X0001160481Y0002356942D01*
X0001140481Y0002381942D01*
X0001140166Y0002382428D01*
X0001139951Y0002382965D01*
X0001139874Y0002383301D01*
X0001134874Y0002413301D01*
X0001134836Y0002413879D01*
X0001134891Y0002414366D01*
X0001134891Y0002414366D01*
G37*
D82*
G04 #@! TO.P,J2,1*
G04 #@! TO.N,Net-(D1-Pad2)*
X0001530787Y0002714787D03*
D83*
G04 #@! TD*
G04 #@! TO.N,Net-(D1-Pad2)*
G04 #@! TO.C,J2*
G36*
X0001531366Y0002802682D02*
X0001556366Y0002797682D01*
X0001556920Y0002797514D01*
X0001557631Y0002797093D01*
X0001582631Y0002777093D01*
X0001583046Y0002776688D01*
X0001583244Y0002776425D01*
X0001623244Y0002716425D01*
X0001623368Y0002716221D01*
X0001648368Y0002671221D01*
X0001648598Y0002670690D01*
X0001648720Y0002670124D01*
X0001648730Y0002669545D01*
X0001648626Y0002668976D01*
X0001648413Y0002668437D01*
X0001648100Y0002667951D01*
X0001647631Y0002667481D01*
X0001622631Y0002647481D01*
X0001621950Y0002647073D01*
X0001586950Y0002632073D01*
X0001586366Y0002631891D01*
X0001561366Y0002626891D01*
X0001560787Y0002626834D01*
X0001500787Y0002626834D01*
X0001500208Y0002626891D01*
X0001475208Y0002631891D01*
X0001474466Y0002632146D01*
X0001424466Y0002657146D01*
X0001423977Y0002657454D01*
X0001423699Y0002657699D01*
X0001408699Y0002672699D01*
X0001408332Y0002673146D01*
X0001408059Y0002673657D01*
X0001407891Y0002674211D01*
X0001407834Y0002674787D01*
X0001407891Y0002675363D01*
X0001408059Y0002675917D01*
X0001408206Y0002676221D01*
X0001433206Y0002721221D01*
X0001433399Y0002721524D01*
X0001473399Y0002776524D01*
X0001473942Y0002777093D01*
X0001498942Y0002797093D01*
X0001499428Y0002797408D01*
X0001499965Y0002797623D01*
X0001500301Y0002797699D01*
X0001530301Y0002802700D01*
X0001530879Y0002802738D01*
X0001531366Y0002802682D01*
X0001531366Y0002802682D01*
G37*
D82*
G04 #@! TO.P,J3,1*
G04 #@! TO.N,GND*
X0001830787Y0002406787D03*
D83*
G04 #@! TD*
G04 #@! TO.N,GND*
G04 #@! TO.C,J3*
G36*
X0001918682Y0002406208D02*
X0001913682Y0002381208D01*
X0001913514Y0002380654D01*
X0001913093Y0002379942D01*
X0001893093Y0002354942D01*
X0001892688Y0002354528D01*
X0001892425Y0002354330D01*
X0001832425Y0002314330D01*
X0001832221Y0002314206D01*
X0001787221Y0002289206D01*
X0001786690Y0002288976D01*
X0001786124Y0002288853D01*
X0001785545Y0002288844D01*
X0001784976Y0002288948D01*
X0001784437Y0002289161D01*
X0001783951Y0002289474D01*
X0001783481Y0002289942D01*
X0001763481Y0002314942D01*
X0001763073Y0002315624D01*
X0001748073Y0002350624D01*
X0001747891Y0002351208D01*
X0001742891Y0002376208D01*
X0001742834Y0002376787D01*
X0001742834Y0002436787D01*
X0001742891Y0002437366D01*
X0001747891Y0002462366D01*
X0001748146Y0002463107D01*
X0001773146Y0002513107D01*
X0001773454Y0002513597D01*
X0001773699Y0002513875D01*
X0001788699Y0002528875D01*
X0001789146Y0002529242D01*
X0001789657Y0002529515D01*
X0001790211Y0002529683D01*
X0001790787Y0002529740D01*
X0001791363Y0002529683D01*
X0001791917Y0002529515D01*
X0001792221Y0002529368D01*
X0001837221Y0002504368D01*
X0001837524Y0002504175D01*
X0001892524Y0002464175D01*
X0001893093Y0002463631D01*
X0001913093Y0002438631D01*
X0001913408Y0002438146D01*
X0001913623Y0002437609D01*
X0001913700Y0002437272D01*
X0001918699Y0002407272D01*
X0001918738Y0002406695D01*
X0001918682Y0002406208D01*
X0001918682Y0002406208D01*
G37*
D82*
G04 #@! TO.P,J4,1*
G04 #@! TO.N,Net-(D1-Pad4)*
X0001522787Y0002104787D03*
D83*
G04 #@! TD*
G04 #@! TO.N,Net-(D1-Pad4)*
G04 #@! TO.C,J4*
G36*
X0001522208Y0002016891D02*
X0001497208Y0002021891D01*
X0001496654Y0002022060D01*
X0001495942Y0002022481D01*
X0001470942Y0002042481D01*
X0001470528Y0002042885D01*
X0001470330Y0002043149D01*
X0001430330Y0002103149D01*
X0001430206Y0002103353D01*
X0001405206Y0002148353D01*
X0001404976Y0002148884D01*
X0001404853Y0002149450D01*
X0001404844Y0002150029D01*
X0001404948Y0002150598D01*
X0001405161Y0002151136D01*
X0001405474Y0002151623D01*
X0001405942Y0002152093D01*
X0001430942Y0002172093D01*
X0001431624Y0002172501D01*
X0001466624Y0002187501D01*
X0001467208Y0002187682D01*
X0001492208Y0002192682D01*
X0001492787Y0002192740D01*
X0001552787Y0002192740D01*
X0001553366Y0002192682D01*
X0001578366Y0002187682D01*
X0001579107Y0002187428D01*
X0001629107Y0002162428D01*
X0001629597Y0002162120D01*
X0001629875Y0002161875D01*
X0001644875Y0002146875D01*
X0001645242Y0002146427D01*
X0001645515Y0002145917D01*
X0001645683Y0002145363D01*
X0001645740Y0002144787D01*
X0001645683Y0002144211D01*
X0001645515Y0002143657D01*
X0001645368Y0002143353D01*
X0001620368Y0002098353D01*
X0001620175Y0002098050D01*
X0001580175Y0002043050D01*
X0001579631Y0002042481D01*
X0001554631Y0002022481D01*
X0001554146Y0002022166D01*
X0001553609Y0002021951D01*
X0001553272Y0002021874D01*
X0001523272Y0002016874D01*
X0001522695Y0002016836D01*
X0001522208Y0002016891D01*
X0001522208Y0002016891D01*
G37*
D84*
G04 #@! TO.N,Net-(D1-Pad4)*
X0001567787Y0002410787D03*
G04 #@! TD*
D85*
G04 #@! TO.N,Net-(D1-Pad4)*
X0001522787Y0002365787D02*
X0001522787Y0002104787D01*
X0001567787Y0002410787D02*
X0001522787Y0002365787D01*
G04 #@! TD*
G04 next file*
G04 #@! TF.GenerationSoftware,KiCad,Pcbnew,(5.0.1)-4*
G04 #@! TF.CreationDate,2020-02-20T17:45:55+01:00*
G04 #@! TF.ProjectId,bricopixels,627269636F706978656C732E6B696361,1*
G04 #@! TF.SameCoordinates,Original*
G04 #@! TF.FileFunction,Copper,L2,Bot,Signal*
G04 #@! TF.FilePolarity,Positive*
G04 Gerber Fmt 4.6, Leading zero omitted, Abs format (unit mm)*
G04 Created by KiCad (PCBNEW (5.0.1)-4) date 20/02/2020 17:45:55*
G01*
G04 APERTURE LIST*
G04 #@! TA.AperFunction,ComponentPad*
G04 #@! TD*
G04 #@! TA.AperFunction,Conductor*
G04 #@! TD*
G04 #@! TA.AperFunction,ViaPad*
G04 #@! TD*
G04 #@! TA.AperFunction,Conductor*
G04 #@! TD*
G04 APERTURE END LIST*
D86*
G04 #@! TO.P,J1,1*
G04 #@! TO.N,VCC*
X-0001299212Y0002814960D02*
X0001222787Y0001527960D03*
D87*
G04 #@! TD*
G04 #@! TO.N,VCC*
G04 #@! TO.C,J1*
G36*
X0001134891Y0001528539D02*
X0001139891Y0001553539D01*
X0001140060Y0001554093D01*
X0001140481Y0001554805D01*
X0001160481Y0001579805D01*
X0001160885Y0001580219D01*
X0001161149Y0001580417D01*
X0001221149Y0001620417D01*
X0001221353Y0001620541D01*
X0001266353Y0001645541D01*
X0001266884Y0001645771D01*
X0001267450Y0001645894D01*
X0001268029Y0001645903D01*
X0001268598Y0001645799D01*
X0001269136Y0001645586D01*
X0001269623Y0001645273D01*
X0001270093Y0001644805D01*
X0001290093Y0001619805D01*
X0001290501Y0001619123D01*
X0001305501Y0001584123D01*
X0001305682Y0001583539D01*
X0001310682Y0001558539D01*
X0001310740Y0001557960D01*
X0001310740Y0001497960D01*
X0001310682Y0001497381D01*
X0001305682Y0001472381D01*
X0001305428Y0001471640D01*
X0001280428Y0001421640D01*
X0001280120Y0001421150D01*
X0001279875Y0001420872D01*
X0001264875Y0001405872D01*
X0001264427Y0001405505D01*
X0001263917Y0001405232D01*
X0001263363Y0001405064D01*
X0001262787Y0001405007D01*
X0001262211Y0001405064D01*
X0001261657Y0001405232D01*
X0001261353Y0001405379D01*
X0001216353Y0001430379D01*
X0001216050Y0001430572D01*
X0001161050Y0001470572D01*
X0001160481Y0001471116D01*
X0001140481Y0001496116D01*
X0001140166Y0001496601D01*
X0001139951Y0001497138D01*
X0001139874Y0001497475D01*
X0001134874Y0001527475D01*
X0001134836Y0001528052D01*
X0001134891Y0001528539D01*
X0001134891Y0001528539D01*
G37*
D86*
G04 #@! TO.P,J2,1*
G04 #@! TO.N,Net-(D1-Pad2)*
X0001530787Y0001828960D03*
D87*
G04 #@! TD*
G04 #@! TO.N,Net-(D1-Pad2)*
G04 #@! TO.C,J2*
G36*
X0001531366Y0001916856D02*
X0001556366Y0001911856D01*
X0001556920Y0001911687D01*
X0001557631Y0001911266D01*
X0001582631Y0001891266D01*
X0001583046Y0001890862D01*
X0001583244Y0001890598D01*
X0001623244Y0001830598D01*
X0001623368Y0001830394D01*
X0001648368Y0001785394D01*
X0001648598Y0001784863D01*
X0001648720Y0001784297D01*
X0001648730Y0001783718D01*
X0001648626Y0001783149D01*
X0001648413Y0001782611D01*
X0001648100Y0001782124D01*
X0001647631Y0001781654D01*
X0001622631Y0001761654D01*
X0001621950Y0001761246D01*
X0001586950Y0001746246D01*
X0001586366Y0001746065D01*
X0001561366Y0001741065D01*
X0001560787Y0001741007D01*
X0001500787Y0001741007D01*
X0001500208Y0001741065D01*
X0001475208Y0001746065D01*
X0001474466Y0001746319D01*
X0001424466Y0001771319D01*
X0001423977Y0001771627D01*
X0001423699Y0001771872D01*
X0001408699Y0001786872D01*
X0001408332Y0001787320D01*
X0001408059Y0001787830D01*
X0001407891Y0001788384D01*
X0001407834Y0001788960D01*
X0001407891Y0001789536D01*
X0001408059Y0001790090D01*
X0001408206Y0001790394D01*
X0001433206Y0001835394D01*
X0001433399Y0001835697D01*
X0001473399Y0001890697D01*
X0001473942Y0001891266D01*
X0001498942Y0001911266D01*
X0001499428Y0001911581D01*
X0001499965Y0001911796D01*
X0001500301Y0001911873D01*
X0001530301Y0001916873D01*
X0001530879Y0001916911D01*
X0001531366Y0001916856D01*
X0001531366Y0001916856D01*
G37*
D86*
G04 #@! TO.P,J3,1*
G04 #@! TO.N,GND*
X0001830787Y0001520960D03*
D87*
G04 #@! TD*
G04 #@! TO.N,GND*
G04 #@! TO.C,J3*
G36*
X0001918682Y0001520381D02*
X0001913682Y0001495381D01*
X0001913514Y0001494827D01*
X0001913093Y0001494116D01*
X0001893093Y0001469116D01*
X0001892688Y0001468701D01*
X0001892425Y0001468503D01*
X0001832425Y0001428503D01*
X0001832221Y0001428379D01*
X0001787221Y0001403379D01*
X0001786690Y0001403149D01*
X0001786124Y0001403027D01*
X0001785545Y0001403017D01*
X0001784976Y0001403121D01*
X0001784437Y0001403334D01*
X0001783951Y0001403648D01*
X0001783481Y0001404116D01*
X0001763481Y0001429116D01*
X0001763073Y0001429797D01*
X0001748073Y0001464797D01*
X0001747891Y0001465381D01*
X0001742891Y0001490381D01*
X0001742834Y0001490960D01*
X0001742834Y0001550960D01*
X0001742891Y0001551539D01*
X0001747891Y0001576539D01*
X0001748146Y0001577281D01*
X0001773146Y0001627281D01*
X0001773454Y0001627770D01*
X0001773699Y0001628048D01*
X0001788699Y0001643048D01*
X0001789146Y0001643415D01*
X0001789657Y0001643688D01*
X0001790211Y0001643856D01*
X0001790787Y0001643913D01*
X0001791363Y0001643856D01*
X0001791917Y0001643688D01*
X0001792221Y0001643541D01*
X0001837221Y0001618541D01*
X0001837524Y0001618348D01*
X0001892524Y0001578348D01*
X0001893093Y0001577805D01*
X0001913093Y0001552805D01*
X0001913408Y0001552319D01*
X0001913623Y0001551782D01*
X0001913700Y0001551446D01*
X0001918699Y0001521446D01*
X0001918738Y0001520868D01*
X0001918682Y0001520381D01*
X0001918682Y0001520381D01*
G37*
D86*
G04 #@! TO.P,J4,1*
G04 #@! TO.N,Net-(D1-Pad4)*
X0001522787Y0001218960D03*
D87*
G04 #@! TD*
G04 #@! TO.N,Net-(D1-Pad4)*
G04 #@! TO.C,J4*
G36*
X0001522208Y0001131065D02*
X0001497208Y0001136065D01*
X0001496654Y0001136233D01*
X0001495942Y0001136654D01*
X0001470942Y0001156654D01*
X0001470528Y0001157059D01*
X0001470330Y0001157322D01*
X0001430330Y0001217322D01*
X0001430206Y0001217526D01*
X0001405206Y0001262526D01*
X0001404976Y0001263057D01*
X0001404853Y0001263623D01*
X0001404844Y0001264202D01*
X0001404948Y0001264771D01*
X0001405161Y0001265310D01*
X0001405474Y0001265796D01*
X0001405942Y0001266266D01*
X0001430942Y0001286266D01*
X0001431624Y0001286674D01*
X0001466624Y0001301674D01*
X0001467208Y0001301856D01*
X0001492208Y0001306856D01*
X0001492787Y0001306913D01*
X0001552787Y0001306913D01*
X0001553366Y0001306856D01*
X0001578366Y0001301856D01*
X0001579107Y0001301601D01*
X0001629107Y0001276601D01*
X0001629597Y0001276293D01*
X0001629875Y0001276048D01*
X0001644875Y0001261048D01*
X0001645242Y0001260601D01*
X0001645515Y0001260090D01*
X0001645683Y0001259536D01*
X0001645740Y0001258960D01*
X0001645683Y0001258384D01*
X0001645515Y0001257830D01*
X0001645368Y0001257526D01*
X0001620368Y0001212526D01*
X0001620175Y0001212223D01*
X0001580175Y0001157223D01*
X0001579631Y0001156654D01*
X0001554631Y0001136654D01*
X0001554146Y0001136339D01*
X0001553609Y0001136124D01*
X0001553272Y0001136048D01*
X0001523272Y0001131048D01*
X0001522695Y0001131009D01*
X0001522208Y0001131065D01*
X0001522208Y0001131065D01*
G37*
D88*
G04 #@! TO.N,Net-(D1-Pad4)*
X0001567787Y0001524960D03*
G04 #@! TD*
D89*
G04 #@! TO.N,Net-(D1-Pad4)*
X0001522787Y0001479960D02*
X0001522787Y0001218960D01*
X0001567787Y0001524960D02*
X0001522787Y0001479960D01*
G04 #@! TD*
G04 next file*
G04 #@! TF.GenerationSoftware,KiCad,Pcbnew,(5.0.1)-4*
G04 #@! TF.CreationDate,2020-02-20T17:45:55+01:00*
G04 #@! TF.ProjectId,bricopixels,627269636F706978656C732E6B696361,1*
G04 #@! TF.SameCoordinates,Original*
G04 #@! TF.FileFunction,Copper,L2,Bot,Signal*
G04 #@! TF.FilePolarity,Positive*
G04 Gerber Fmt 4.6, Leading zero omitted, Abs format (unit mm)*
G04 Created by KiCad (PCBNEW (5.0.1)-4) date 20/02/2020 17:45:55*
G01*
G04 APERTURE LIST*
G04 #@! TA.AperFunction,ComponentPad*
G04 #@! TD*
G04 #@! TA.AperFunction,Conductor*
G04 #@! TD*
G04 #@! TA.AperFunction,ViaPad*
G04 #@! TD*
G04 #@! TA.AperFunction,Conductor*
G04 #@! TD*
G04 APERTURE END LIST*
D90*
G04 #@! TO.P,J1,1*
G04 #@! TO.N,VCC*
X-0001299212Y0004586614D02*
X0001222787Y0003299614D03*
D91*
G04 #@! TD*
G04 #@! TO.N,VCC*
G04 #@! TO.C,J1*
G36*
X0001134891Y0003300193D02*
X0001139891Y0003325193D01*
X0001140060Y0003325747D01*
X0001140481Y0003326458D01*
X0001160481Y0003351458D01*
X0001160885Y0003351873D01*
X0001161149Y0003352071D01*
X0001221149Y0003392071D01*
X0001221353Y0003392195D01*
X0001266353Y0003417195D01*
X0001266884Y0003417425D01*
X0001267450Y0003417547D01*
X0001268029Y0003417557D01*
X0001268598Y0003417453D01*
X0001269136Y0003417240D01*
X0001269623Y0003416926D01*
X0001270093Y0003416458D01*
X0001290093Y0003391458D01*
X0001290501Y0003390777D01*
X0001305501Y0003355777D01*
X0001305682Y0003355193D01*
X0001310682Y0003330193D01*
X0001310740Y0003329614D01*
X0001310740Y0003269614D01*
X0001310682Y0003269035D01*
X0001305682Y0003244035D01*
X0001305428Y0003243293D01*
X0001280428Y0003193293D01*
X0001280120Y0003192803D01*
X0001279875Y0003192526D01*
X0001264875Y0003177526D01*
X0001264427Y0003177159D01*
X0001263917Y0003176886D01*
X0001263363Y0003176718D01*
X0001262787Y0003176661D01*
X0001262211Y0003176718D01*
X0001261657Y0003176886D01*
X0001261353Y0003177032D01*
X0001216353Y0003202032D01*
X0001216050Y0003202226D01*
X0001161050Y0003242226D01*
X0001160481Y0003242769D01*
X0001140481Y0003267769D01*
X0001140166Y0003268254D01*
X0001139951Y0003268792D01*
X0001139874Y0003269128D01*
X0001134874Y0003299128D01*
X0001134836Y0003299706D01*
X0001134891Y0003300193D01*
X0001134891Y0003300193D01*
G37*
D90*
G04 #@! TO.P,J2,1*
G04 #@! TO.N,Net-(D1-Pad2)*
X0001530787Y0003600614D03*
D91*
G04 #@! TD*
G04 #@! TO.N,Net-(D1-Pad2)*
G04 #@! TO.C,J2*
G36*
X0001531366Y0003688509D02*
X0001556366Y0003683509D01*
X0001556920Y0003683340D01*
X0001557631Y0003682919D01*
X0001582631Y0003662919D01*
X0001583046Y0003662515D01*
X0001583244Y0003662252D01*
X0001623244Y0003602252D01*
X0001623368Y0003602048D01*
X0001648368Y0003557048D01*
X0001648598Y0003556517D01*
X0001648720Y0003555951D01*
X0001648730Y0003555372D01*
X0001648626Y0003554802D01*
X0001648413Y0003554264D01*
X0001648100Y0003553778D01*
X0001647631Y0003553308D01*
X0001622631Y0003533308D01*
X0001621950Y0003532900D01*
X0001586950Y0003517900D01*
X0001586366Y0003517718D01*
X0001561366Y0003512718D01*
X0001560787Y0003512661D01*
X0001500787Y0003512661D01*
X0001500208Y0003512718D01*
X0001475208Y0003517718D01*
X0001474466Y0003517973D01*
X0001424466Y0003542973D01*
X0001423977Y0003543281D01*
X0001423699Y0003543526D01*
X0001408699Y0003558526D01*
X0001408332Y0003558973D01*
X0001408059Y0003559484D01*
X0001407891Y0003560038D01*
X0001407834Y0003560614D01*
X0001407891Y0003561190D01*
X0001408059Y0003561744D01*
X0001408206Y0003562048D01*
X0001433206Y0003607048D01*
X0001433399Y0003607350D01*
X0001473399Y0003662350D01*
X0001473942Y0003662919D01*
X0001498942Y0003682919D01*
X0001499428Y0003683235D01*
X0001499965Y0003683450D01*
X0001500301Y0003683526D01*
X0001530301Y0003688526D01*
X0001530879Y0003688565D01*
X0001531366Y0003688509D01*
X0001531366Y0003688509D01*
G37*
D90*
G04 #@! TO.P,J3,1*
G04 #@! TO.N,GND*
X0001830787Y0003292614D03*
D91*
G04 #@! TD*
G04 #@! TO.N,GND*
G04 #@! TO.C,J3*
G36*
X0001918682Y0003292035D02*
X0001913682Y0003267035D01*
X0001913514Y0003266481D01*
X0001913093Y0003265769D01*
X0001893093Y0003240769D01*
X0001892688Y0003240355D01*
X0001892425Y0003240157D01*
X0001832425Y0003200157D01*
X0001832221Y0003200032D01*
X0001787221Y0003175032D01*
X0001786690Y0003174802D01*
X0001786124Y0003174680D01*
X0001785545Y0003174671D01*
X0001784976Y0003174775D01*
X0001784437Y0003174987D01*
X0001783951Y0003175301D01*
X0001783481Y0003175769D01*
X0001763481Y0003200769D01*
X0001763073Y0003201451D01*
X0001748073Y0003236451D01*
X0001747891Y0003237035D01*
X0001742891Y0003262035D01*
X0001742834Y0003262614D01*
X0001742834Y0003322614D01*
X0001742891Y0003323193D01*
X0001747891Y0003348193D01*
X0001748146Y0003348934D01*
X0001773146Y0003398934D01*
X0001773454Y0003399424D01*
X0001773699Y0003399702D01*
X0001788699Y0003414702D01*
X0001789146Y0003415069D01*
X0001789657Y0003415342D01*
X0001790211Y0003415510D01*
X0001790787Y0003415566D01*
X0001791363Y0003415510D01*
X0001791917Y0003415342D01*
X0001792221Y0003415195D01*
X0001837221Y0003390195D01*
X0001837524Y0003390002D01*
X0001892524Y0003350002D01*
X0001893093Y0003349458D01*
X0001913093Y0003324458D01*
X0001913408Y0003323973D01*
X0001913623Y0003323435D01*
X0001913700Y0003323099D01*
X0001918699Y0003293099D01*
X0001918738Y0003292522D01*
X0001918682Y0003292035D01*
X0001918682Y0003292035D01*
G37*
D90*
G04 #@! TO.P,J4,1*
G04 #@! TO.N,Net-(D1-Pad4)*
X0001522787Y0002990614D03*
D91*
G04 #@! TD*
G04 #@! TO.N,Net-(D1-Pad4)*
G04 #@! TO.C,J4*
G36*
X0001522208Y0002902718D02*
X0001497208Y0002907718D01*
X0001496654Y0002907887D01*
X0001495942Y0002908308D01*
X0001470942Y0002928308D01*
X0001470528Y0002928712D01*
X0001470330Y0002928976D01*
X0001430330Y0002988976D01*
X0001430206Y0002989180D01*
X0001405206Y0003034180D01*
X0001404976Y0003034711D01*
X0001404853Y0003035277D01*
X0001404844Y0003035855D01*
X0001404948Y0003036425D01*
X0001405161Y0003036963D01*
X0001405474Y0003037450D01*
X0001405942Y0003037919D01*
X0001430942Y0003057919D01*
X0001431624Y0003058328D01*
X0001466624Y0003073328D01*
X0001467208Y0003073509D01*
X0001492208Y0003078509D01*
X0001492787Y0003078566D01*
X0001552787Y0003078566D01*
X0001553366Y0003078509D01*
X0001578366Y0003073509D01*
X0001579107Y0003073255D01*
X0001629107Y0003048255D01*
X0001629597Y0003047946D01*
X0001629875Y0003047702D01*
X0001644875Y0003032702D01*
X0001645242Y0003032254D01*
X0001645515Y0003031744D01*
X0001645683Y0003031190D01*
X0001645740Y0003030614D01*
X0001645683Y0003030038D01*
X0001645515Y0003029484D01*
X0001645368Y0003029180D01*
X0001620368Y0002984180D01*
X0001620175Y0002983877D01*
X0001580175Y0002928877D01*
X0001579631Y0002928308D01*
X0001554631Y0002908308D01*
X0001554146Y0002907992D01*
X0001553609Y0002907778D01*
X0001553272Y0002907701D01*
X0001523272Y0002902701D01*
X0001522695Y0002902662D01*
X0001522208Y0002902718D01*
X0001522208Y0002902718D01*
G37*
D92*
G04 #@! TO.N,Net-(D1-Pad4)*
X0001567787Y0003296614D03*
G04 #@! TD*
D93*
G04 #@! TO.N,Net-(D1-Pad4)*
X0001522787Y0003251614D02*
X0001522787Y0002990614D01*
X0001567787Y0003296614D02*
X0001522787Y0003251614D01*
G04 #@! TD*
G04 next file*
G04 #@! TF.GenerationSoftware,KiCad,Pcbnew,(5.0.1)-4*
G04 #@! TF.CreationDate,2020-02-20T17:45:55+01:00*
G04 #@! TF.ProjectId,bricopixels,627269636F706978656C732E6B696361,1*
G04 #@! TF.SameCoordinates,Original*
G04 #@! TF.FileFunction,Copper,L2,Bot,Signal*
G04 #@! TF.FilePolarity,Positive*
G04 Gerber Fmt 4.6, Leading zero omitted, Abs format (unit mm)*
G04 Created by KiCad (PCBNEW (5.0.1)-4) date 20/02/2020 17:45:55*
G01*
G04 APERTURE LIST*
G04 #@! TA.AperFunction,ComponentPad*
G04 #@! TD*
G04 #@! TA.AperFunction,Conductor*
G04 #@! TD*
G04 #@! TA.AperFunction,ViaPad*
G04 #@! TD*
G04 #@! TA.AperFunction,Conductor*
G04 #@! TD*
G04 APERTURE END LIST*
D94*
G04 #@! TO.P,J1,1*
G04 #@! TO.N,VCC*
X0000029527Y0004153543D02*
X0002551527Y0002866543D03*
D95*
G04 #@! TD*
G04 #@! TO.N,VCC*
G04 #@! TO.C,J1*
G36*
X0002463632Y0002867122D02*
X0002468632Y0002892122D01*
X0002468800Y0002892676D01*
X0002469221Y0002893387D01*
X0002489221Y0002918387D01*
X0002489626Y0002918802D01*
X0002489889Y0002919000D01*
X0002549889Y0002959000D01*
X0002550093Y0002959124D01*
X0002595093Y0002984124D01*
X0002595624Y0002984354D01*
X0002596190Y0002984476D01*
X0002596769Y0002984486D01*
X0002597338Y0002984382D01*
X0002597877Y0002984169D01*
X0002598363Y0002983855D01*
X0002598833Y0002983387D01*
X0002618833Y0002958387D01*
X0002619241Y0002957706D01*
X0002634241Y0002922706D01*
X0002634422Y0002922122D01*
X0002639422Y0002897122D01*
X0002639480Y0002896543D01*
X0002639480Y0002836543D01*
X0002639422Y0002835964D01*
X0002634422Y0002810964D01*
X0002634168Y0002810222D01*
X0002609168Y0002760222D01*
X0002608860Y0002759732D01*
X0002608615Y0002759455D01*
X0002593615Y0002744455D01*
X0002593168Y0002744088D01*
X0002592657Y0002743815D01*
X0002592103Y0002743647D01*
X0002591527Y0002743590D01*
X0002590951Y0002743647D01*
X0002590397Y0002743815D01*
X0002590093Y0002743962D01*
X0002545093Y0002768962D01*
X0002544790Y0002769155D01*
X0002489790Y0002809155D01*
X0002489221Y0002809698D01*
X0002469221Y0002834698D01*
X0002468906Y0002835184D01*
X0002468691Y0002835721D01*
X0002468614Y0002836057D01*
X0002463614Y0002866057D01*
X0002463576Y0002866635D01*
X0002463632Y0002867122D01*
X0002463632Y0002867122D01*
G37*
D94*
G04 #@! TO.P,J2,1*
G04 #@! TO.N,Net-(D1-Pad2)*
X0002859527Y0003167543D03*
D95*
G04 #@! TD*
G04 #@! TO.N,Net-(D1-Pad2)*
G04 #@! TO.C,J2*
G36*
X0002860106Y0003255438D02*
X0002885106Y0003250438D01*
X0002885660Y0003250270D01*
X0002886372Y0003249849D01*
X0002911372Y0003229848D01*
X0002911786Y0003229444D01*
X0002911984Y0003229181D01*
X0002951984Y0003169181D01*
X0002952108Y0003168977D01*
X0002977108Y0003123977D01*
X0002977338Y0003123446D01*
X0002977461Y0003122880D01*
X0002977470Y0003122301D01*
X0002977366Y0003121732D01*
X0002977153Y0003121193D01*
X0002976840Y0003120707D01*
X0002976372Y0003120237D01*
X0002951372Y0003100237D01*
X0002950690Y0003099829D01*
X0002915690Y0003084829D01*
X0002915106Y0003084647D01*
X0002890106Y0003079647D01*
X0002889527Y0003079590D01*
X0002829527Y0003079590D01*
X0002828948Y0003079647D01*
X0002803948Y0003084647D01*
X0002803207Y0003084902D01*
X0002753207Y0003109902D01*
X0002752717Y0003110210D01*
X0002752439Y0003110455D01*
X0002737439Y0003125455D01*
X0002737072Y0003125902D01*
X0002736799Y0003126413D01*
X0002736631Y0003126967D01*
X0002736574Y0003127543D01*
X0002736631Y0003128119D01*
X0002736799Y0003128673D01*
X0002736946Y0003128977D01*
X0002761946Y0003173977D01*
X0002762139Y0003174280D01*
X0002802139Y0003229280D01*
X0002802682Y0003229848D01*
X0002827682Y0003249849D01*
X0002828168Y0003250164D01*
X0002828705Y0003250379D01*
X0002829042Y0003250455D01*
X0002859042Y0003255455D01*
X0002859619Y0003255494D01*
X0002860106Y0003255438D01*
X0002860106Y0003255438D01*
G37*
D94*
G04 #@! TO.P,J3,1*
G04 #@! TO.N,GND*
X0003159527Y0002859543D03*
D95*
G04 #@! TD*
G04 #@! TO.N,GND*
G04 #@! TO.C,J3*
G36*
X0003247422Y0002858964D02*
X0003242422Y0002833964D01*
X0003242254Y0002833410D01*
X0003241833Y0002832698D01*
X0003221833Y0002807698D01*
X0003221429Y0002807284D01*
X0003221165Y0002807086D01*
X0003161165Y0002767086D01*
X0003160961Y0002766962D01*
X0003115961Y0002741962D01*
X0003115430Y0002741731D01*
X0003114864Y0002741609D01*
X0003114285Y0002741600D01*
X0003113716Y0002741704D01*
X0003113178Y0002741916D01*
X0003112691Y0002742230D01*
X0003112221Y0002742698D01*
X0003092221Y0002767698D01*
X0003091813Y0002768380D01*
X0003076813Y0002803380D01*
X0003076632Y0002803964D01*
X0003071632Y0002828964D01*
X0003071574Y0002829543D01*
X0003071574Y0002889543D01*
X0003071632Y0002890122D01*
X0003076632Y0002915122D01*
X0003076886Y0002915863D01*
X0003101886Y0002965863D01*
X0003102194Y0002966353D01*
X0003102439Y0002966631D01*
X0003117439Y0002981631D01*
X0003117887Y0002981998D01*
X0003118397Y0002982271D01*
X0003118951Y0002982439D01*
X0003119527Y0002982496D01*
X0003120103Y0002982439D01*
X0003120657Y0002982271D01*
X0003120961Y0002982124D01*
X0003165961Y0002957124D01*
X0003166264Y0002956931D01*
X0003221264Y0002916931D01*
X0003221833Y0002916387D01*
X0003241833Y0002891387D01*
X0003242148Y0002890902D01*
X0003242363Y0002890365D01*
X0003242440Y0002890028D01*
X0003247440Y0002860028D01*
X0003247478Y0002859451D01*
X0003247422Y0002858964D01*
X0003247422Y0002858964D01*
G37*
D94*
G04 #@! TO.P,J4,1*
G04 #@! TO.N,Net-(D1-Pad4)*
X0002851527Y0002557543D03*
D95*
G04 #@! TD*
G04 #@! TO.N,Net-(D1-Pad4)*
G04 #@! TO.C,J4*
G36*
X0002850948Y0002469647D02*
X0002825948Y0002474647D01*
X0002825394Y0002474816D01*
X0002824682Y0002475237D01*
X0002799682Y0002495237D01*
X0002799268Y0002495641D01*
X0002799070Y0002495905D01*
X0002759070Y0002555905D01*
X0002758946Y0002556109D01*
X0002733946Y0002601109D01*
X0002733716Y0002601640D01*
X0002733594Y0002602206D01*
X0002733584Y0002602784D01*
X0002733688Y0002603354D01*
X0002733901Y0002603892D01*
X0002734214Y0002604379D01*
X0002734682Y0002604848D01*
X0002759682Y0002624849D01*
X0002760364Y0002625257D01*
X0002795364Y0002640257D01*
X0002795948Y0002640438D01*
X0002820948Y0002645438D01*
X0002821527Y0002645496D01*
X0002881527Y0002645496D01*
X0002882106Y0002645438D01*
X0002907106Y0002640438D01*
X0002907848Y0002640184D01*
X0002957848Y0002615184D01*
X0002958337Y0002614875D01*
X0002958615Y0002614631D01*
X0002973615Y0002599631D01*
X0002973982Y0002599183D01*
X0002974255Y0002598673D01*
X0002974423Y0002598119D01*
X0002974480Y0002597543D01*
X0002974423Y0002596967D01*
X0002974255Y0002596413D01*
X0002974108Y0002596109D01*
X0002949108Y0002551109D01*
X0002948915Y0002550806D01*
X0002908915Y0002495806D01*
X0002908372Y0002495237D01*
X0002883372Y0002475237D01*
X0002882886Y0002474922D01*
X0002882349Y0002474707D01*
X0002882012Y0002474630D01*
X0002852012Y0002469630D01*
X0002851435Y0002469592D01*
X0002850948Y0002469647D01*
X0002850948Y0002469647D01*
G37*
D96*
G04 #@! TO.N,Net-(D1-Pad4)*
X0002896527Y0002863543D03*
G04 #@! TD*
D97*
G04 #@! TO.N,Net-(D1-Pad4)*
X0002851527Y0002818543D02*
X0002851527Y0002557543D01*
X0002896527Y0002863543D02*
X0002851527Y0002818543D01*
G04 #@! TD*
G04 next file*
G04 #@! TF.GenerationSoftware,KiCad,Pcbnew,(5.0.1)-4*
G04 #@! TF.CreationDate,2020-02-20T17:45:55+01:00*
G04 #@! TF.ProjectId,bricopixels,627269636F706978656C732E6B696361,1*
G04 #@! TF.SameCoordinates,Original*
G04 #@! TF.FileFunction,Copper,L2,Bot,Signal*
G04 #@! TF.FilePolarity,Positive*
G04 Gerber Fmt 4.6, Leading zero omitted, Abs format (unit mm)*
G04 Created by KiCad (PCBNEW (5.0.1)-4) date 20/02/2020 17:45:55*
G01*
G04 APERTURE LIST*
G04 #@! TA.AperFunction,ComponentPad*
G04 #@! TD*
G04 #@! TA.AperFunction,Conductor*
G04 #@! TD*
G04 #@! TA.AperFunction,ViaPad*
G04 #@! TD*
G04 #@! TA.AperFunction,Conductor*
G04 #@! TD*
G04 APERTURE END LIST*
D98*
G04 #@! TO.P,J1,1*
G04 #@! TO.N,VCC*
X0000029527Y0003267716D02*
X0002551527Y0001980716D03*
D99*
G04 #@! TD*
G04 #@! TO.N,VCC*
G04 #@! TO.C,J1*
G36*
X0002463632Y0001981295D02*
X0002468632Y0002006295D01*
X0002468800Y0002006849D01*
X0002469221Y0002007561D01*
X0002489221Y0002032561D01*
X0002489626Y0002032975D01*
X0002489889Y0002033173D01*
X0002549889Y0002073173D01*
X0002550093Y0002073297D01*
X0002595093Y0002098297D01*
X0002595624Y0002098527D01*
X0002596190Y0002098650D01*
X0002596769Y0002098659D01*
X0002597338Y0002098555D01*
X0002597877Y0002098342D01*
X0002598363Y0002098029D01*
X0002598833Y0002097561D01*
X0002618833Y0002072561D01*
X0002619241Y0002071879D01*
X0002634241Y0002036879D01*
X0002634422Y0002036295D01*
X0002639422Y0002011295D01*
X0002639480Y0002010716D01*
X0002639480Y0001950716D01*
X0002639422Y0001950137D01*
X0002634422Y0001925137D01*
X0002634168Y0001924396D01*
X0002609168Y0001874396D01*
X0002608860Y0001873906D01*
X0002608615Y0001873628D01*
X0002593615Y0001858628D01*
X0002593168Y0001858261D01*
X0002592657Y0001857988D01*
X0002592103Y0001857820D01*
X0002591527Y0001857763D01*
X0002590951Y0001857820D01*
X0002590397Y0001857988D01*
X0002590093Y0001858135D01*
X0002545093Y0001883135D01*
X0002544790Y0001883328D01*
X0002489790Y0001923328D01*
X0002489221Y0001923871D01*
X0002469221Y0001948871D01*
X0002468906Y0001949357D01*
X0002468691Y0001949894D01*
X0002468614Y0001950231D01*
X0002463614Y0001980231D01*
X0002463576Y0001980808D01*
X0002463632Y0001981295D01*
X0002463632Y0001981295D01*
G37*
D98*
G04 #@! TO.P,J2,1*
G04 #@! TO.N,Net-(D1-Pad2)*
X0002859527Y0002281716D03*
D99*
G04 #@! TD*
G04 #@! TO.N,Net-(D1-Pad2)*
G04 #@! TO.C,J2*
G36*
X0002860106Y0002369611D02*
X0002885106Y0002364611D01*
X0002885660Y0002364443D01*
X0002886372Y0002364022D01*
X0002911372Y0002344022D01*
X0002911786Y0002343618D01*
X0002911984Y0002343354D01*
X0002951984Y0002283354D01*
X0002952108Y0002283150D01*
X0002977108Y0002238150D01*
X0002977338Y0002237619D01*
X0002977461Y0002237053D01*
X0002977470Y0002236474D01*
X0002977366Y0002235905D01*
X0002977153Y0002235367D01*
X0002976840Y0002234880D01*
X0002976372Y0002234410D01*
X0002951372Y0002214410D01*
X0002950690Y0002214002D01*
X0002915690Y0002199002D01*
X0002915106Y0002198821D01*
X0002890106Y0002193821D01*
X0002889527Y0002193763D01*
X0002829527Y0002193763D01*
X0002828948Y0002193821D01*
X0002803948Y0002198821D01*
X0002803207Y0002199075D01*
X0002753207Y0002224075D01*
X0002752717Y0002224383D01*
X0002752439Y0002224628D01*
X0002737439Y0002239628D01*
X0002737072Y0002240076D01*
X0002736799Y0002240586D01*
X0002736631Y0002241140D01*
X0002736574Y0002241716D01*
X0002736631Y0002242292D01*
X0002736799Y0002242846D01*
X0002736946Y0002243150D01*
X0002761946Y0002288150D01*
X0002762139Y0002288453D01*
X0002802139Y0002343453D01*
X0002802682Y0002344022D01*
X0002827682Y0002364022D01*
X0002828168Y0002364337D01*
X0002828705Y0002364552D01*
X0002829042Y0002364629D01*
X0002859042Y0002369629D01*
X0002859619Y0002369667D01*
X0002860106Y0002369611D01*
X0002860106Y0002369611D01*
G37*
D98*
G04 #@! TO.P,J3,1*
G04 #@! TO.N,GND*
X0003159527Y0001973716D03*
D99*
G04 #@! TD*
G04 #@! TO.N,GND*
G04 #@! TO.C,J3*
G36*
X0003247422Y0001973137D02*
X0003242422Y0001948137D01*
X0003242254Y0001947583D01*
X0003241833Y0001946871D01*
X0003221833Y0001921871D01*
X0003221429Y0001921457D01*
X0003221165Y0001921259D01*
X0003161165Y0001881259D01*
X0003160961Y0001881135D01*
X0003115961Y0001856135D01*
X0003115430Y0001855905D01*
X0003114864Y0001855783D01*
X0003114285Y0001855773D01*
X0003113716Y0001855877D01*
X0003113178Y0001856090D01*
X0003112691Y0001856403D01*
X0003112221Y0001856871D01*
X0003092221Y0001881871D01*
X0003091813Y0001882553D01*
X0003076813Y0001917553D01*
X0003076632Y0001918137D01*
X0003071632Y0001943137D01*
X0003071574Y0001943716D01*
X0003071574Y0002003716D01*
X0003071632Y0002004295D01*
X0003076632Y0002029295D01*
X0003076886Y0002030037D01*
X0003101886Y0002080037D01*
X0003102194Y0002080526D01*
X0003102439Y0002080804D01*
X0003117439Y0002095804D01*
X0003117887Y0002096171D01*
X0003118397Y0002096444D01*
X0003118951Y0002096612D01*
X0003119527Y0002096669D01*
X0003120103Y0002096612D01*
X0003120657Y0002096444D01*
X0003120961Y0002096297D01*
X0003165961Y0002071297D01*
X0003166264Y0002071104D01*
X0003221264Y0002031104D01*
X0003221833Y0002030561D01*
X0003241833Y0002005561D01*
X0003242148Y0002005075D01*
X0003242363Y0002004538D01*
X0003242440Y0002004201D01*
X0003247440Y0001974201D01*
X0003247478Y0001973624D01*
X0003247422Y0001973137D01*
X0003247422Y0001973137D01*
G37*
D98*
G04 #@! TO.P,J4,1*
G04 #@! TO.N,Net-(D1-Pad4)*
X0002851527Y0001671716D03*
D99*
G04 #@! TD*
G04 #@! TO.N,Net-(D1-Pad4)*
G04 #@! TO.C,J4*
G36*
X0002850948Y0001583821D02*
X0002825948Y0001588821D01*
X0002825394Y0001588989D01*
X0002824682Y0001589410D01*
X0002799682Y0001609410D01*
X0002799268Y0001609815D01*
X0002799070Y0001610078D01*
X0002759070Y0001670078D01*
X0002758946Y0001670282D01*
X0002733946Y0001715282D01*
X0002733716Y0001715813D01*
X0002733594Y0001716379D01*
X0002733584Y0001716958D01*
X0002733688Y0001717527D01*
X0002733901Y0001718066D01*
X0002734214Y0001718552D01*
X0002734682Y0001719022D01*
X0002759682Y0001739022D01*
X0002760364Y0001739430D01*
X0002795364Y0001754430D01*
X0002795948Y0001754611D01*
X0002820948Y0001759611D01*
X0002821527Y0001759669D01*
X0002881527Y0001759669D01*
X0002882106Y0001759611D01*
X0002907106Y0001754611D01*
X0002907848Y0001754357D01*
X0002957848Y0001729357D01*
X0002958337Y0001729049D01*
X0002958615Y0001728804D01*
X0002973615Y0001713804D01*
X0002973982Y0001713357D01*
X0002974255Y0001712846D01*
X0002974423Y0001712292D01*
X0002974480Y0001711716D01*
X0002974423Y0001711140D01*
X0002974255Y0001710586D01*
X0002974108Y0001710282D01*
X0002949108Y0001665282D01*
X0002948915Y0001664979D01*
X0002908915Y0001609979D01*
X0002908372Y0001609410D01*
X0002883372Y0001589410D01*
X0002882886Y0001589095D01*
X0002882349Y0001588880D01*
X0002882012Y0001588803D01*
X0002852012Y0001583803D01*
X0002851435Y0001583765D01*
X0002850948Y0001583821D01*
X0002850948Y0001583821D01*
G37*
D100*
G04 #@! TO.N,Net-(D1-Pad4)*
X0002896527Y0001977716D03*
G04 #@! TD*
D101*
G04 #@! TO.N,Net-(D1-Pad4)*
X0002851527Y0001932716D02*
X0002851527Y0001671716D01*
X0002896527Y0001977716D02*
X0002851527Y0001932716D01*
G04 #@! TD*
G04 next file*
G04 #@! TF.GenerationSoftware,KiCad,Pcbnew,(5.0.1)-4*
G04 #@! TF.CreationDate,2020-02-20T17:45:55+01:00*
G04 #@! TF.ProjectId,bricopixels,627269636F706978656C732E6B696361,1*
G04 #@! TF.SameCoordinates,Original*
G04 #@! TF.FileFunction,Copper,L2,Bot,Signal*
G04 #@! TF.FilePolarity,Positive*
G04 Gerber Fmt 4.6, Leading zero omitted, Abs format (unit mm)*
G04 Created by KiCad (PCBNEW (5.0.1)-4) date 20/02/2020 17:45:55*
G01*
G04 APERTURE LIST*
G04 #@! TA.AperFunction,ComponentPad*
G04 #@! TD*
G04 #@! TA.AperFunction,Conductor*
G04 #@! TD*
G04 #@! TA.AperFunction,ViaPad*
G04 #@! TD*
G04 #@! TA.AperFunction,Conductor*
G04 #@! TD*
G04 APERTURE END LIST*
D102*
G04 #@! TO.P,J1,1*
G04 #@! TO.N,VCC*
X-0000413385Y0003700787D02*
X0002108614Y0002413787D03*
D103*
G04 #@! TD*
G04 #@! TO.N,VCC*
G04 #@! TO.C,J1*
G36*
X0002020718Y0002414366D02*
X0002025718Y0002439366D01*
X0002025887Y0002439920D01*
X0002026308Y0002440631D01*
X0002046308Y0002465631D01*
X0002046712Y0002466046D01*
X0002046976Y0002466244D01*
X0002106976Y0002506244D01*
X0002107180Y0002506368D01*
X0002152180Y0002531368D01*
X0002152711Y0002531598D01*
X0002153277Y0002531720D01*
X0002153855Y0002531730D01*
X0002154425Y0002531626D01*
X0002154963Y0002531413D01*
X0002155450Y0002531100D01*
X0002155919Y0002530631D01*
X0002175919Y0002505631D01*
X0002176328Y0002504950D01*
X0002191328Y0002469950D01*
X0002191509Y0002469366D01*
X0002196509Y0002444366D01*
X0002196566Y0002443787D01*
X0002196566Y0002383787D01*
X0002196509Y0002383208D01*
X0002191509Y0002358208D01*
X0002191255Y0002357466D01*
X0002166255Y0002307466D01*
X0002165946Y0002306977D01*
X0002165702Y0002306699D01*
X0002150702Y0002291699D01*
X0002150254Y0002291332D01*
X0002149744Y0002291059D01*
X0002149190Y0002290891D01*
X0002148614Y0002290834D01*
X0002148038Y0002290891D01*
X0002147484Y0002291059D01*
X0002147180Y0002291206D01*
X0002102180Y0002316206D01*
X0002101877Y0002316399D01*
X0002046877Y0002356399D01*
X0002046308Y0002356942D01*
X0002026308Y0002381942D01*
X0002025992Y0002382428D01*
X0002025778Y0002382965D01*
X0002025701Y0002383301D01*
X0002020701Y0002413301D01*
X0002020662Y0002413879D01*
X0002020718Y0002414366D01*
X0002020718Y0002414366D01*
G37*
D102*
G04 #@! TO.P,J2,1*
G04 #@! TO.N,Net-(D1-Pad2)*
X0002416614Y0002714787D03*
D103*
G04 #@! TD*
G04 #@! TO.N,Net-(D1-Pad2)*
G04 #@! TO.C,J2*
G36*
X0002417193Y0002802682D02*
X0002442193Y0002797682D01*
X0002442746Y0002797514D01*
X0002443458Y0002797093D01*
X0002468458Y0002777093D01*
X0002468873Y0002776688D01*
X0002469071Y0002776425D01*
X0002509070Y0002716425D01*
X0002509195Y0002716221D01*
X0002534195Y0002671221D01*
X0002534425Y0002670690D01*
X0002534547Y0002670124D01*
X0002534557Y0002669545D01*
X0002534453Y0002668976D01*
X0002534240Y0002668437D01*
X0002533926Y0002667951D01*
X0002533458Y0002667481D01*
X0002508458Y0002647481D01*
X0002507777Y0002647073D01*
X0002472777Y0002632073D01*
X0002472193Y0002631891D01*
X0002447193Y0002626891D01*
X0002446614Y0002626834D01*
X0002386614Y0002626834D01*
X0002386035Y0002626891D01*
X0002361035Y0002631891D01*
X0002360293Y0002632146D01*
X0002310293Y0002657146D01*
X0002309803Y0002657454D01*
X0002309526Y0002657699D01*
X0002294526Y0002672699D01*
X0002294159Y0002673146D01*
X0002293886Y0002673657D01*
X0002293718Y0002674211D01*
X0002293661Y0002674787D01*
X0002293718Y0002675363D01*
X0002293886Y0002675917D01*
X0002294032Y0002676221D01*
X0002319032Y0002721221D01*
X0002319226Y0002721524D01*
X0002359226Y0002776524D01*
X0002359769Y0002777093D01*
X0002384769Y0002797093D01*
X0002385254Y0002797408D01*
X0002385792Y0002797623D01*
X0002386128Y0002797699D01*
X0002416128Y0002802700D01*
X0002416706Y0002802738D01*
X0002417193Y0002802682D01*
X0002417193Y0002802682D01*
G37*
D102*
G04 #@! TO.P,J3,1*
G04 #@! TO.N,GND*
X0002716614Y0002406787D03*
D103*
G04 #@! TD*
G04 #@! TO.N,GND*
G04 #@! TO.C,J3*
G36*
X0002804509Y0002406208D02*
X0002799509Y0002381208D01*
X0002799340Y0002380654D01*
X0002798919Y0002379942D01*
X0002778919Y0002354942D01*
X0002778515Y0002354528D01*
X0002778252Y0002354330D01*
X0002718252Y0002314330D01*
X0002718048Y0002314206D01*
X0002673048Y0002289206D01*
X0002672517Y0002288976D01*
X0002671951Y0002288853D01*
X0002671372Y0002288844D01*
X0002670802Y0002288948D01*
X0002670264Y0002289161D01*
X0002669778Y0002289474D01*
X0002669308Y0002289942D01*
X0002649308Y0002314942D01*
X0002648900Y0002315624D01*
X0002633900Y0002350624D01*
X0002633718Y0002351208D01*
X0002628718Y0002376208D01*
X0002628661Y0002376787D01*
X0002628661Y0002436787D01*
X0002628718Y0002437366D01*
X0002633718Y0002462366D01*
X0002633973Y0002463107D01*
X0002658973Y0002513107D01*
X0002659281Y0002513597D01*
X0002659526Y0002513875D01*
X0002674526Y0002528875D01*
X0002674973Y0002529242D01*
X0002675484Y0002529515D01*
X0002676038Y0002529683D01*
X0002676614Y0002529740D01*
X0002677190Y0002529683D01*
X0002677744Y0002529515D01*
X0002678048Y0002529368D01*
X0002723048Y0002504368D01*
X0002723350Y0002504175D01*
X0002778350Y0002464175D01*
X0002778919Y0002463631D01*
X0002798919Y0002438631D01*
X0002799235Y0002438146D01*
X0002799450Y0002437609D01*
X0002799526Y0002437272D01*
X0002804526Y0002407272D01*
X0002804565Y0002406695D01*
X0002804509Y0002406208D01*
X0002804509Y0002406208D01*
G37*
D102*
G04 #@! TO.P,J4,1*
G04 #@! TO.N,Net-(D1-Pad4)*
X0002408614Y0002104787D03*
D103*
G04 #@! TD*
G04 #@! TO.N,Net-(D1-Pad4)*
G04 #@! TO.C,J4*
G36*
X0002408035Y0002016891D02*
X0002383035Y0002021891D01*
X0002382481Y0002022060D01*
X0002381769Y0002022481D01*
X0002356769Y0002042481D01*
X0002356355Y0002042885D01*
X0002356157Y0002043149D01*
X0002316157Y0002103149D01*
X0002316032Y0002103353D01*
X0002291032Y0002148353D01*
X0002290802Y0002148884D01*
X0002290680Y0002149450D01*
X0002290671Y0002150029D01*
X0002290775Y0002150598D01*
X0002290987Y0002151136D01*
X0002291301Y0002151623D01*
X0002291769Y0002152093D01*
X0002316769Y0002172093D01*
X0002317451Y0002172501D01*
X0002352451Y0002187501D01*
X0002353035Y0002187682D01*
X0002378035Y0002192682D01*
X0002378614Y0002192740D01*
X0002438614Y0002192740D01*
X0002439193Y0002192682D01*
X0002464193Y0002187682D01*
X0002464934Y0002187428D01*
X0002514934Y0002162428D01*
X0002515424Y0002162120D01*
X0002515702Y0002161875D01*
X0002530702Y0002146875D01*
X0002531069Y0002146427D01*
X0002531342Y0002145917D01*
X0002531510Y0002145363D01*
X0002531566Y0002144787D01*
X0002531510Y0002144211D01*
X0002531342Y0002143657D01*
X0002531195Y0002143353D01*
X0002506195Y0002098353D01*
X0002506002Y0002098050D01*
X0002466002Y0002043050D01*
X0002465458Y0002042481D01*
X0002440458Y0002022481D01*
X0002439973Y0002022166D01*
X0002439435Y0002021951D01*
X0002439099Y0002021874D01*
X0002409099Y0002016874D01*
X0002408522Y0002016836D01*
X0002408035Y0002016891D01*
X0002408035Y0002016891D01*
G37*
D104*
G04 #@! TO.N,Net-(D1-Pad4)*
X0002453614Y0002410787D03*
G04 #@! TD*
D105*
G04 #@! TO.N,Net-(D1-Pad4)*
X0002408614Y0002365787D02*
X0002408614Y0002104787D01*
X0002453614Y0002410787D02*
X0002408614Y0002365787D01*
G04 #@! TD*
G04 next file*
G04 #@! TF.GenerationSoftware,KiCad,Pcbnew,(5.0.1)-4*
G04 #@! TF.CreationDate,2020-02-20T17:45:55+01:00*
G04 #@! TF.ProjectId,bricopixels,627269636F706978656C732E6B696361,1*
G04 #@! TF.SameCoordinates,Original*
G04 #@! TF.FileFunction,Copper,L2,Bot,Signal*
G04 #@! TF.FilePolarity,Positive*
G04 Gerber Fmt 4.6, Leading zero omitted, Abs format (unit mm)*
G04 Created by KiCad (PCBNEW (5.0.1)-4) date 20/02/2020 17:45:55*
G01*
G04 APERTURE LIST*
G04 #@! TA.AperFunction,ComponentPad*
G04 #@! TD*
G04 #@! TA.AperFunction,Conductor*
G04 #@! TD*
G04 #@! TA.AperFunction,ViaPad*
G04 #@! TD*
G04 #@! TA.AperFunction,Conductor*
G04 #@! TD*
G04 APERTURE END LIST*
D106*
G04 #@! TO.P,J1,1*
G04 #@! TO.N,VCC*
X0000472440Y0003700787D02*
X0002994440Y0002413787D03*
D107*
G04 #@! TD*
G04 #@! TO.N,VCC*
G04 #@! TO.C,J1*
G36*
X0002906545Y0002414366D02*
X0002911545Y0002439366D01*
X0002911714Y0002439920D01*
X0002912135Y0002440631D01*
X0002932135Y0002465631D01*
X0002932539Y0002466046D01*
X0002932803Y0002466244D01*
X0002992803Y0002506244D01*
X0002993006Y0002506368D01*
X0003038006Y0002531368D01*
X0003038538Y0002531598D01*
X0003039103Y0002531720D01*
X0003039682Y0002531730D01*
X0003040252Y0002531626D01*
X0003040790Y0002531413D01*
X0003041276Y0002531100D01*
X0003041746Y0002530631D01*
X0003061746Y0002505631D01*
X0003062154Y0002504950D01*
X0003077154Y0002469950D01*
X0003077336Y0002469366D01*
X0003082336Y0002444366D01*
X0003082393Y0002443787D01*
X0003082393Y0002383787D01*
X0003082336Y0002383208D01*
X0003077336Y0002358208D01*
X0003077081Y0002357466D01*
X0003052081Y0002307466D01*
X0003051773Y0002306977D01*
X0003051528Y0002306699D01*
X0003036528Y0002291699D01*
X0003036081Y0002291332D01*
X0003035570Y0002291059D01*
X0003035017Y0002290891D01*
X0003034440Y0002290834D01*
X0003033864Y0002290891D01*
X0003033310Y0002291059D01*
X0003033006Y0002291206D01*
X0002988006Y0002316206D01*
X0002987704Y0002316399D01*
X0002932704Y0002356399D01*
X0002932135Y0002356942D01*
X0002912135Y0002381942D01*
X0002911819Y0002382428D01*
X0002911604Y0002382965D01*
X0002911528Y0002383301D01*
X0002906528Y0002413301D01*
X0002906489Y0002413879D01*
X0002906545Y0002414366D01*
X0002906545Y0002414366D01*
G37*
D106*
G04 #@! TO.P,J2,1*
G04 #@! TO.N,Net-(D1-Pad2)*
X0003302440Y0002714787D03*
D107*
G04 #@! TD*
G04 #@! TO.N,Net-(D1-Pad2)*
G04 #@! TO.C,J2*
G36*
X0003303020Y0002802682D02*
X0003328020Y0002797682D01*
X0003328573Y0002797514D01*
X0003329285Y0002797093D01*
X0003354285Y0002777093D01*
X0003354699Y0002776688D01*
X0003354897Y0002776425D01*
X0003394897Y0002716425D01*
X0003395022Y0002716221D01*
X0003420022Y0002671221D01*
X0003420252Y0002670690D01*
X0003420374Y0002670124D01*
X0003420383Y0002669545D01*
X0003420280Y0002668976D01*
X0003420067Y0002668437D01*
X0003419753Y0002667951D01*
X0003419285Y0002667481D01*
X0003394285Y0002647481D01*
X0003393604Y0002647073D01*
X0003358604Y0002632073D01*
X0003358020Y0002631891D01*
X0003333020Y0002626891D01*
X0003332440Y0002626834D01*
X0003272440Y0002626834D01*
X0003271861Y0002626891D01*
X0003246861Y0002631891D01*
X0003246120Y0002632146D01*
X0003196120Y0002657146D01*
X0003195630Y0002657454D01*
X0003195353Y0002657699D01*
X0003180353Y0002672699D01*
X0003179985Y0002673146D01*
X0003179712Y0002673657D01*
X0003179544Y0002674211D01*
X0003179488Y0002674787D01*
X0003179544Y0002675363D01*
X0003179712Y0002675917D01*
X0003179859Y0002676221D01*
X0003204859Y0002721221D01*
X0003205052Y0002721524D01*
X0003245052Y0002776524D01*
X0003245596Y0002777093D01*
X0003270596Y0002797093D01*
X0003271081Y0002797408D01*
X0003271619Y0002797623D01*
X0003271955Y0002797699D01*
X0003301955Y0002802700D01*
X0003302533Y0002802738D01*
X0003303020Y0002802682D01*
X0003303020Y0002802682D01*
G37*
D106*
G04 #@! TO.P,J3,1*
G04 #@! TO.N,GND*
X0003602440Y0002406787D03*
D107*
G04 #@! TD*
G04 #@! TO.N,GND*
G04 #@! TO.C,J3*
G36*
X0003690336Y0002406208D02*
X0003685336Y0002381208D01*
X0003685167Y0002380654D01*
X0003684746Y0002379942D01*
X0003664746Y0002354942D01*
X0003664342Y0002354528D01*
X0003664078Y0002354330D01*
X0003604078Y0002314330D01*
X0003603874Y0002314206D01*
X0003558874Y0002289206D01*
X0003558343Y0002288976D01*
X0003557777Y0002288853D01*
X0003557199Y0002288844D01*
X0003556629Y0002288948D01*
X0003556091Y0002289161D01*
X0003555605Y0002289474D01*
X0003555135Y0002289942D01*
X0003535135Y0002314942D01*
X0003534726Y0002315624D01*
X0003519726Y0002350624D01*
X0003519545Y0002351208D01*
X0003514545Y0002376208D01*
X0003514488Y0002376787D01*
X0003514488Y0002436787D01*
X0003514545Y0002437366D01*
X0003519545Y0002462366D01*
X0003519799Y0002463107D01*
X0003544799Y0002513107D01*
X0003545108Y0002513597D01*
X0003545353Y0002513875D01*
X0003560353Y0002528875D01*
X0003560800Y0002529242D01*
X0003561310Y0002529515D01*
X0003561864Y0002529683D01*
X0003562440Y0002529740D01*
X0003563017Y0002529683D01*
X0003563570Y0002529515D01*
X0003563874Y0002529368D01*
X0003608874Y0002504368D01*
X0003609177Y0002504175D01*
X0003664177Y0002464175D01*
X0003664746Y0002463631D01*
X0003684746Y0002438631D01*
X0003685062Y0002438146D01*
X0003685277Y0002437609D01*
X0003685353Y0002437272D01*
X0003690353Y0002407272D01*
X0003690392Y0002406695D01*
X0003690336Y0002406208D01*
X0003690336Y0002406208D01*
G37*
D106*
G04 #@! TO.P,J4,1*
G04 #@! TO.N,Net-(D1-Pad4)*
X0003294440Y0002104787D03*
D107*
G04 #@! TD*
G04 #@! TO.N,Net-(D1-Pad4)*
G04 #@! TO.C,J4*
G36*
X0003293861Y0002016891D02*
X0003268861Y0002021891D01*
X0003268308Y0002022060D01*
X0003267596Y0002022481D01*
X0003242596Y0002042481D01*
X0003242182Y0002042885D01*
X0003241984Y0002043149D01*
X0003201984Y0002103149D01*
X0003201859Y0002103353D01*
X0003176859Y0002148353D01*
X0003176629Y0002148884D01*
X0003176507Y0002149450D01*
X0003176498Y0002150029D01*
X0003176601Y0002150598D01*
X0003176814Y0002151136D01*
X0003177128Y0002151623D01*
X0003177596Y0002152093D01*
X0003202596Y0002172093D01*
X0003203277Y0002172501D01*
X0003238277Y0002187501D01*
X0003238861Y0002187682D01*
X0003263861Y0002192682D01*
X0003264440Y0002192740D01*
X0003324440Y0002192740D01*
X0003325020Y0002192682D01*
X0003350020Y0002187682D01*
X0003350761Y0002187428D01*
X0003400761Y0002162428D01*
X0003401251Y0002162120D01*
X0003401528Y0002161875D01*
X0003416528Y0002146875D01*
X0003416896Y0002146427D01*
X0003417168Y0002145917D01*
X0003417336Y0002145363D01*
X0003417393Y0002144787D01*
X0003417336Y0002144211D01*
X0003417168Y0002143657D01*
X0003417022Y0002143353D01*
X0003392022Y0002098353D01*
X0003391828Y0002098050D01*
X0003351828Y0002043050D01*
X0003351285Y0002042481D01*
X0003326285Y0002022481D01*
X0003325800Y0002022166D01*
X0003325262Y0002021951D01*
X0003324926Y0002021874D01*
X0003294926Y0002016874D01*
X0003294348Y0002016836D01*
X0003293861Y0002016891D01*
X0003293861Y0002016891D01*
G37*
D108*
G04 #@! TO.N,Net-(D1-Pad4)*
X0003339440Y0002410787D03*
G04 #@! TD*
D109*
G04 #@! TO.N,Net-(D1-Pad4)*
X0003294440Y0002365787D02*
X0003294440Y0002104787D01*
X0003339440Y0002410787D02*
X0003294440Y0002365787D01*
G04 #@! TD*
G04 next file*
G04 #@! TF.GenerationSoftware,KiCad,Pcbnew,(5.0.1)-4*
G04 #@! TF.CreationDate,2020-02-20T17:45:55+01:00*
G04 #@! TF.ProjectId,bricopixels,627269636F706978656C732E6B696361,1*
G04 #@! TF.SameCoordinates,Original*
G04 #@! TF.FileFunction,Copper,L2,Bot,Signal*
G04 #@! TF.FilePolarity,Positive*
G04 Gerber Fmt 4.6, Leading zero omitted, Abs format (unit mm)*
G04 Created by KiCad (PCBNEW (5.0.1)-4) date 20/02/2020 17:45:55*
G01*
G04 APERTURE LIST*
G04 #@! TA.AperFunction,ComponentPad*
G04 #@! TD*
G04 #@! TA.AperFunction,Conductor*
G04 #@! TD*
G04 #@! TA.AperFunction,ViaPad*
G04 #@! TD*
G04 #@! TA.AperFunction,Conductor*
G04 #@! TD*
G04 APERTURE END LIST*
D110*
G04 #@! TO.P,J1,1*
G04 #@! TO.N,VCC*
X-0000856299Y0004153543D02*
X0001665700Y0002866543D03*
D111*
G04 #@! TD*
G04 #@! TO.N,VCC*
G04 #@! TO.C,J1*
G36*
X0001577805Y0002867122D02*
X0001582805Y0002892122D01*
X0001582973Y0002892676D01*
X0001583395Y0002893387D01*
X0001603395Y0002918387D01*
X0001603799Y0002918802D01*
X0001604062Y0002919000D01*
X0001664062Y0002959000D01*
X0001664266Y0002959124D01*
X0001709266Y0002984124D01*
X0001709797Y0002984354D01*
X0001710363Y0002984476D01*
X0001710942Y0002984486D01*
X0001711511Y0002984382D01*
X0001712050Y0002984169D01*
X0001712536Y0002983855D01*
X0001713006Y0002983387D01*
X0001733006Y0002958387D01*
X0001733414Y0002957706D01*
X0001748414Y0002922706D01*
X0001748596Y0002922122D01*
X0001753596Y0002897122D01*
X0001753653Y0002896543D01*
X0001753653Y0002836543D01*
X0001753596Y0002835964D01*
X0001748596Y0002810964D01*
X0001748341Y0002810222D01*
X0001723341Y0002760222D01*
X0001723033Y0002759732D01*
X0001722788Y0002759455D01*
X0001707788Y0002744455D01*
X0001707341Y0002744088D01*
X0001706830Y0002743815D01*
X0001706276Y0002743647D01*
X0001705700Y0002743590D01*
X0001705124Y0002743647D01*
X0001704570Y0002743815D01*
X0001704266Y0002743962D01*
X0001659266Y0002768962D01*
X0001658964Y0002769155D01*
X0001603964Y0002809155D01*
X0001603395Y0002809698D01*
X0001583395Y0002834698D01*
X0001583079Y0002835184D01*
X0001582864Y0002835721D01*
X0001582788Y0002836057D01*
X0001577788Y0002866057D01*
X0001577749Y0002866635D01*
X0001577805Y0002867122D01*
X0001577805Y0002867122D01*
G37*
D110*
G04 #@! TO.P,J2,1*
G04 #@! TO.N,Net-(D1-Pad2)*
X0001973700Y0003167543D03*
D111*
G04 #@! TD*
G04 #@! TO.N,Net-(D1-Pad2)*
G04 #@! TO.C,J2*
G36*
X0001974279Y0003255438D02*
X0001999279Y0003250438D01*
X0001999833Y0003250270D01*
X0002000545Y0003249849D01*
X0002025545Y0003229848D01*
X0002025959Y0003229444D01*
X0002026157Y0003229181D01*
X0002066157Y0003169181D01*
X0002066281Y0003168977D01*
X0002091281Y0003123977D01*
X0002091512Y0003123446D01*
X0002091634Y0003122880D01*
X0002091643Y0003122301D01*
X0002091539Y0003121732D01*
X0002091327Y0003121193D01*
X0002091013Y0003120707D01*
X0002090545Y0003120237D01*
X0002065545Y0003100237D01*
X0002064863Y0003099829D01*
X0002029863Y0003084829D01*
X0002029279Y0003084647D01*
X0002004279Y0003079647D01*
X0002003700Y0003079590D01*
X0001943700Y0003079590D01*
X0001943121Y0003079647D01*
X0001918121Y0003084647D01*
X0001917380Y0003084902D01*
X0001867380Y0003109902D01*
X0001866890Y0003110210D01*
X0001866612Y0003110455D01*
X0001851612Y0003125455D01*
X0001851245Y0003125902D01*
X0001850972Y0003126413D01*
X0001850804Y0003126967D01*
X0001850748Y0003127543D01*
X0001850804Y0003128119D01*
X0001850972Y0003128673D01*
X0001851119Y0003128977D01*
X0001876119Y0003173977D01*
X0001876312Y0003174280D01*
X0001916312Y0003229280D01*
X0001916856Y0003229848D01*
X0001941856Y0003249849D01*
X0001942341Y0003250164D01*
X0001942878Y0003250379D01*
X0001943215Y0003250455D01*
X0001973215Y0003255455D01*
X0001973792Y0003255494D01*
X0001974279Y0003255438D01*
X0001974279Y0003255438D01*
G37*
D110*
G04 #@! TO.P,J3,1*
G04 #@! TO.N,GND*
X0002273700Y0002859543D03*
D111*
G04 #@! TD*
G04 #@! TO.N,GND*
G04 #@! TO.C,J3*
G36*
X0002361596Y0002858964D02*
X0002356596Y0002833964D01*
X0002356427Y0002833410D01*
X0002356006Y0002832698D01*
X0002336006Y0002807698D01*
X0002335602Y0002807284D01*
X0002335338Y0002807086D01*
X0002275338Y0002767086D01*
X0002275134Y0002766962D01*
X0002230134Y0002741962D01*
X0002229603Y0002741731D01*
X0002229037Y0002741609D01*
X0002228459Y0002741600D01*
X0002227889Y0002741704D01*
X0002227351Y0002741916D01*
X0002226864Y0002742230D01*
X0002226395Y0002742698D01*
X0002206395Y0002767698D01*
X0002205986Y0002768380D01*
X0002190986Y0002803380D01*
X0002190805Y0002803964D01*
X0002185805Y0002828964D01*
X0002185748Y0002829543D01*
X0002185748Y0002889543D01*
X0002185805Y0002890122D01*
X0002190805Y0002915122D01*
X0002191059Y0002915863D01*
X0002216059Y0002965863D01*
X0002216368Y0002966353D01*
X0002216612Y0002966631D01*
X0002231612Y0002981631D01*
X0002232060Y0002981998D01*
X0002232570Y0002982271D01*
X0002233124Y0002982439D01*
X0002233700Y0002982496D01*
X0002234276Y0002982439D01*
X0002234830Y0002982271D01*
X0002235134Y0002982124D01*
X0002280134Y0002957124D01*
X0002280437Y0002956931D01*
X0002335437Y0002916931D01*
X0002336006Y0002916387D01*
X0002356006Y0002891387D01*
X0002356322Y0002890902D01*
X0002356536Y0002890365D01*
X0002356613Y0002890028D01*
X0002361613Y0002860028D01*
X0002361652Y0002859451D01*
X0002361596Y0002858964D01*
X0002361596Y0002858964D01*
G37*
D110*
G04 #@! TO.P,J4,1*
G04 #@! TO.N,Net-(D1-Pad4)*
X0001965700Y0002557543D03*
D111*
G04 #@! TD*
G04 #@! TO.N,Net-(D1-Pad4)*
G04 #@! TO.C,J4*
G36*
X0001965121Y0002469647D02*
X0001940121Y0002474647D01*
X0001939567Y0002474816D01*
X0001938856Y0002475237D01*
X0001913856Y0002495237D01*
X0001913441Y0002495641D01*
X0001913243Y0002495905D01*
X0001873243Y0002555905D01*
X0001873119Y0002556109D01*
X0001848119Y0002601109D01*
X0001847889Y0002601640D01*
X0001847767Y0002602206D01*
X0001847757Y0002602784D01*
X0001847861Y0002603354D01*
X0001848074Y0002603892D01*
X0001848388Y0002604379D01*
X0001848856Y0002604848D01*
X0001873856Y0002624849D01*
X0001874537Y0002625257D01*
X0001909537Y0002640257D01*
X0001910121Y0002640438D01*
X0001935121Y0002645438D01*
X0001935700Y0002645496D01*
X0001995700Y0002645496D01*
X0001996279Y0002645438D01*
X0002021279Y0002640438D01*
X0002022021Y0002640184D01*
X0002072021Y0002615184D01*
X0002072511Y0002614875D01*
X0002072788Y0002614631D01*
X0002087788Y0002599631D01*
X0002088155Y0002599183D01*
X0002088428Y0002598673D01*
X0002088596Y0002598119D01*
X0002088653Y0002597543D01*
X0002088596Y0002596967D01*
X0002088428Y0002596413D01*
X0002088281Y0002596109D01*
X0002063281Y0002551109D01*
X0002063088Y0002550806D01*
X0002023088Y0002495806D01*
X0002022545Y0002495237D01*
X0001997545Y0002475237D01*
X0001997060Y0002474922D01*
X0001996522Y0002474707D01*
X0001996186Y0002474630D01*
X0001966186Y0002469630D01*
X0001965608Y0002469592D01*
X0001965121Y0002469647D01*
X0001965121Y0002469647D01*
G37*
D112*
G04 #@! TO.N,Net-(D1-Pad4)*
X0002010700Y0002863543D03*
G04 #@! TD*
D113*
G04 #@! TO.N,Net-(D1-Pad4)*
X0001965700Y0002818543D02*
X0001965700Y0002557543D01*
X0002010700Y0002863543D02*
X0001965700Y0002818543D01*
G04 #@! TD*
G04 next file*
G04 #@! TF.GenerationSoftware,KiCad,Pcbnew,(5.0.1)-4*
G04 #@! TF.CreationDate,2020-02-20T17:45:55+01:00*
G04 #@! TF.ProjectId,bricopixels,627269636F706978656C732E6B696361,1*
G04 #@! TF.SameCoordinates,Original*
G04 #@! TF.FileFunction,Copper,L2,Bot,Signal*
G04 #@! TF.FilePolarity,Positive*
G04 Gerber Fmt 4.6, Leading zero omitted, Abs format (unit mm)*
G04 Created by KiCad (PCBNEW (5.0.1)-4) date 20/02/2020 17:45:55*
G01*
G04 APERTURE LIST*
G04 #@! TA.AperFunction,ComponentPad*
G04 #@! TD*
G04 #@! TA.AperFunction,Conductor*
G04 #@! TD*
G04 #@! TA.AperFunction,ViaPad*
G04 #@! TD*
G04 #@! TA.AperFunction,Conductor*
G04 #@! TD*
G04 APERTURE END LIST*
D114*
G04 #@! TO.P,J1,1*
G04 #@! TO.N,VCC*
X0000472440Y0004586614D02*
X0002994440Y0003299614D03*
D115*
G04 #@! TD*
G04 #@! TO.N,VCC*
G04 #@! TO.C,J1*
G36*
X0002906545Y0003300193D02*
X0002911545Y0003325193D01*
X0002911714Y0003325747D01*
X0002912135Y0003326458D01*
X0002932135Y0003351458D01*
X0002932539Y0003351873D01*
X0002932803Y0003352071D01*
X0002992803Y0003392071D01*
X0002993006Y0003392195D01*
X0003038006Y0003417195D01*
X0003038538Y0003417425D01*
X0003039103Y0003417547D01*
X0003039682Y0003417557D01*
X0003040252Y0003417453D01*
X0003040790Y0003417240D01*
X0003041276Y0003416926D01*
X0003041746Y0003416458D01*
X0003061746Y0003391458D01*
X0003062154Y0003390777D01*
X0003077154Y0003355777D01*
X0003077336Y0003355193D01*
X0003082336Y0003330193D01*
X0003082393Y0003329614D01*
X0003082393Y0003269614D01*
X0003082336Y0003269035D01*
X0003077336Y0003244035D01*
X0003077081Y0003243293D01*
X0003052081Y0003193293D01*
X0003051773Y0003192803D01*
X0003051528Y0003192526D01*
X0003036528Y0003177526D01*
X0003036081Y0003177159D01*
X0003035570Y0003176886D01*
X0003035017Y0003176718D01*
X0003034440Y0003176661D01*
X0003033864Y0003176718D01*
X0003033310Y0003176886D01*
X0003033006Y0003177032D01*
X0002988006Y0003202032D01*
X0002987704Y0003202226D01*
X0002932704Y0003242226D01*
X0002932135Y0003242769D01*
X0002912135Y0003267769D01*
X0002911819Y0003268254D01*
X0002911604Y0003268792D01*
X0002911528Y0003269128D01*
X0002906528Y0003299128D01*
X0002906489Y0003299706D01*
X0002906545Y0003300193D01*
X0002906545Y0003300193D01*
G37*
D114*
G04 #@! TO.P,J2,1*
G04 #@! TO.N,Net-(D1-Pad2)*
X0003302440Y0003600614D03*
D115*
G04 #@! TD*
G04 #@! TO.N,Net-(D1-Pad2)*
G04 #@! TO.C,J2*
G36*
X0003303020Y0003688509D02*
X0003328020Y0003683509D01*
X0003328573Y0003683340D01*
X0003329285Y0003682919D01*
X0003354285Y0003662919D01*
X0003354699Y0003662515D01*
X0003354897Y0003662252D01*
X0003394897Y0003602252D01*
X0003395022Y0003602048D01*
X0003420022Y0003557048D01*
X0003420252Y0003556517D01*
X0003420374Y0003555951D01*
X0003420383Y0003555372D01*
X0003420280Y0003554802D01*
X0003420067Y0003554264D01*
X0003419753Y0003553778D01*
X0003419285Y0003553308D01*
X0003394285Y0003533308D01*
X0003393604Y0003532900D01*
X0003358604Y0003517900D01*
X0003358020Y0003517718D01*
X0003333020Y0003512718D01*
X0003332440Y0003512661D01*
X0003272440Y0003512661D01*
X0003271861Y0003512718D01*
X0003246861Y0003517718D01*
X0003246120Y0003517973D01*
X0003196120Y0003542973D01*
X0003195630Y0003543281D01*
X0003195353Y0003543526D01*
X0003180353Y0003558526D01*
X0003179985Y0003558973D01*
X0003179712Y0003559484D01*
X0003179544Y0003560038D01*
X0003179488Y0003560614D01*
X0003179544Y0003561190D01*
X0003179712Y0003561744D01*
X0003179859Y0003562048D01*
X0003204859Y0003607048D01*
X0003205052Y0003607350D01*
X0003245052Y0003662350D01*
X0003245596Y0003662919D01*
X0003270596Y0003682919D01*
X0003271081Y0003683235D01*
X0003271619Y0003683450D01*
X0003271955Y0003683526D01*
X0003301955Y0003688526D01*
X0003302533Y0003688565D01*
X0003303020Y0003688509D01*
X0003303020Y0003688509D01*
G37*
D114*
G04 #@! TO.P,J3,1*
G04 #@! TO.N,GND*
X0003602440Y0003292614D03*
D115*
G04 #@! TD*
G04 #@! TO.N,GND*
G04 #@! TO.C,J3*
G36*
X0003690336Y0003292035D02*
X0003685336Y0003267035D01*
X0003685167Y0003266481D01*
X0003684746Y0003265769D01*
X0003664746Y0003240769D01*
X0003664342Y0003240355D01*
X0003664078Y0003240157D01*
X0003604078Y0003200157D01*
X0003603874Y0003200032D01*
X0003558874Y0003175032D01*
X0003558343Y0003174802D01*
X0003557777Y0003174680D01*
X0003557199Y0003174671D01*
X0003556629Y0003174775D01*
X0003556091Y0003174987D01*
X0003555605Y0003175301D01*
X0003555135Y0003175769D01*
X0003535135Y0003200769D01*
X0003534726Y0003201451D01*
X0003519726Y0003236451D01*
X0003519545Y0003237035D01*
X0003514545Y0003262035D01*
X0003514488Y0003262614D01*
X0003514488Y0003322614D01*
X0003514545Y0003323193D01*
X0003519545Y0003348193D01*
X0003519799Y0003348934D01*
X0003544799Y0003398934D01*
X0003545108Y0003399424D01*
X0003545353Y0003399702D01*
X0003560353Y0003414702D01*
X0003560800Y0003415069D01*
X0003561310Y0003415342D01*
X0003561864Y0003415510D01*
X0003562440Y0003415566D01*
X0003563017Y0003415510D01*
X0003563570Y0003415342D01*
X0003563874Y0003415195D01*
X0003608874Y0003390195D01*
X0003609177Y0003390002D01*
X0003664177Y0003350002D01*
X0003664746Y0003349458D01*
X0003684746Y0003324458D01*
X0003685062Y0003323973D01*
X0003685277Y0003323435D01*
X0003685353Y0003323099D01*
X0003690353Y0003293099D01*
X0003690392Y0003292522D01*
X0003690336Y0003292035D01*
X0003690336Y0003292035D01*
G37*
D114*
G04 #@! TO.P,J4,1*
G04 #@! TO.N,Net-(D1-Pad4)*
X0003294440Y0002990614D03*
D115*
G04 #@! TD*
G04 #@! TO.N,Net-(D1-Pad4)*
G04 #@! TO.C,J4*
G36*
X0003293861Y0002902718D02*
X0003268861Y0002907718D01*
X0003268308Y0002907887D01*
X0003267596Y0002908308D01*
X0003242596Y0002928308D01*
X0003242182Y0002928712D01*
X0003241984Y0002928976D01*
X0003201984Y0002988976D01*
X0003201859Y0002989180D01*
X0003176859Y0003034180D01*
X0003176629Y0003034711D01*
X0003176507Y0003035277D01*
X0003176498Y0003035855D01*
X0003176601Y0003036425D01*
X0003176814Y0003036963D01*
X0003177128Y0003037450D01*
X0003177596Y0003037919D01*
X0003202596Y0003057919D01*
X0003203277Y0003058328D01*
X0003238277Y0003073328D01*
X0003238861Y0003073509D01*
X0003263861Y0003078509D01*
X0003264440Y0003078566D01*
X0003324440Y0003078566D01*
X0003325020Y0003078509D01*
X0003350020Y0003073509D01*
X0003350761Y0003073255D01*
X0003400761Y0003048255D01*
X0003401251Y0003047946D01*
X0003401528Y0003047702D01*
X0003416528Y0003032702D01*
X0003416896Y0003032254D01*
X0003417168Y0003031744D01*
X0003417336Y0003031190D01*
X0003417393Y0003030614D01*
X0003417336Y0003030038D01*
X0003417168Y0003029484D01*
X0003417022Y0003029180D01*
X0003392022Y0002984180D01*
X0003391828Y0002983877D01*
X0003351828Y0002928877D01*
X0003351285Y0002928308D01*
X0003326285Y0002908308D01*
X0003325800Y0002907992D01*
X0003325262Y0002907778D01*
X0003324926Y0002907701D01*
X0003294926Y0002902701D01*
X0003294348Y0002902662D01*
X0003293861Y0002902718D01*
X0003293861Y0002902718D01*
G37*
D116*
G04 #@! TO.N,Net-(D1-Pad4)*
X0003339440Y0003296614D03*
G04 #@! TD*
D117*
G04 #@! TO.N,Net-(D1-Pad4)*
X0003294440Y0003251614D02*
X0003294440Y0002990614D01*
X0003339440Y0003296614D02*
X0003294440Y0003251614D01*
G04 #@! TD*
G04 next file*
G04 #@! TF.GenerationSoftware,KiCad,Pcbnew,(5.0.1)-4*
G04 #@! TF.CreationDate,2020-02-20T17:45:55+01:00*
G04 #@! TF.ProjectId,bricopixels,627269636F706978656C732E6B696361,1*
G04 #@! TF.SameCoordinates,Original*
G04 #@! TF.FileFunction,Copper,L2,Bot,Signal*
G04 #@! TF.FilePolarity,Positive*
G04 Gerber Fmt 4.6, Leading zero omitted, Abs format (unit mm)*
G04 Created by KiCad (PCBNEW (5.0.1)-4) date 20/02/2020 17:45:55*
G01*
G04 APERTURE LIST*
G04 #@! TA.AperFunction,ComponentPad*
G04 #@! TD*
G04 #@! TA.AperFunction,Conductor*
G04 #@! TD*
G04 #@! TA.AperFunction,ViaPad*
G04 #@! TD*
G04 #@! TA.AperFunction,Conductor*
G04 #@! TD*
G04 APERTURE END LIST*
D118*
G04 #@! TO.P,J1,1*
G04 #@! TO.N,VCC*
X-0000413385Y0004586614D02*
X0002108614Y0003299614D03*
D119*
G04 #@! TD*
G04 #@! TO.N,VCC*
G04 #@! TO.C,J1*
G36*
X0002020718Y0003300193D02*
X0002025718Y0003325193D01*
X0002025887Y0003325747D01*
X0002026308Y0003326458D01*
X0002046308Y0003351458D01*
X0002046712Y0003351873D01*
X0002046976Y0003352071D01*
X0002106976Y0003392071D01*
X0002107180Y0003392195D01*
X0002152180Y0003417195D01*
X0002152711Y0003417425D01*
X0002153277Y0003417547D01*
X0002153855Y0003417557D01*
X0002154425Y0003417453D01*
X0002154963Y0003417240D01*
X0002155450Y0003416926D01*
X0002155919Y0003416458D01*
X0002175919Y0003391458D01*
X0002176328Y0003390777D01*
X0002191328Y0003355777D01*
X0002191509Y0003355193D01*
X0002196509Y0003330193D01*
X0002196566Y0003329614D01*
X0002196566Y0003269614D01*
X0002196509Y0003269035D01*
X0002191509Y0003244035D01*
X0002191255Y0003243293D01*
X0002166255Y0003193293D01*
X0002165946Y0003192803D01*
X0002165702Y0003192526D01*
X0002150702Y0003177526D01*
X0002150254Y0003177159D01*
X0002149744Y0003176886D01*
X0002149190Y0003176718D01*
X0002148614Y0003176661D01*
X0002148038Y0003176718D01*
X0002147484Y0003176886D01*
X0002147180Y0003177032D01*
X0002102180Y0003202032D01*
X0002101877Y0003202226D01*
X0002046877Y0003242226D01*
X0002046308Y0003242769D01*
X0002026308Y0003267769D01*
X0002025992Y0003268254D01*
X0002025778Y0003268792D01*
X0002025701Y0003269128D01*
X0002020701Y0003299128D01*
X0002020662Y0003299706D01*
X0002020718Y0003300193D01*
X0002020718Y0003300193D01*
G37*
D118*
G04 #@! TO.P,J2,1*
G04 #@! TO.N,Net-(D1-Pad2)*
X0002416614Y0003600614D03*
D119*
G04 #@! TD*
G04 #@! TO.N,Net-(D1-Pad2)*
G04 #@! TO.C,J2*
G36*
X0002417193Y0003688509D02*
X0002442193Y0003683509D01*
X0002442746Y0003683340D01*
X0002443458Y0003682919D01*
X0002468458Y0003662919D01*
X0002468873Y0003662515D01*
X0002469071Y0003662252D01*
X0002509070Y0003602252D01*
X0002509195Y0003602048D01*
X0002534195Y0003557048D01*
X0002534425Y0003556517D01*
X0002534547Y0003555951D01*
X0002534557Y0003555372D01*
X0002534453Y0003554802D01*
X0002534240Y0003554264D01*
X0002533926Y0003553778D01*
X0002533458Y0003553308D01*
X0002508458Y0003533308D01*
X0002507777Y0003532900D01*
X0002472777Y0003517900D01*
X0002472193Y0003517718D01*
X0002447193Y0003512718D01*
X0002446614Y0003512661D01*
X0002386614Y0003512661D01*
X0002386035Y0003512718D01*
X0002361035Y0003517718D01*
X0002360293Y0003517973D01*
X0002310293Y0003542973D01*
X0002309803Y0003543281D01*
X0002309526Y0003543526D01*
X0002294526Y0003558526D01*
X0002294159Y0003558973D01*
X0002293886Y0003559484D01*
X0002293718Y0003560038D01*
X0002293661Y0003560614D01*
X0002293718Y0003561190D01*
X0002293886Y0003561744D01*
X0002294032Y0003562048D01*
X0002319032Y0003607048D01*
X0002319226Y0003607350D01*
X0002359226Y0003662350D01*
X0002359769Y0003662919D01*
X0002384769Y0003682919D01*
X0002385254Y0003683235D01*
X0002385792Y0003683450D01*
X0002386128Y0003683526D01*
X0002416128Y0003688526D01*
X0002416706Y0003688565D01*
X0002417193Y0003688509D01*
X0002417193Y0003688509D01*
G37*
D118*
G04 #@! TO.P,J3,1*
G04 #@! TO.N,GND*
X0002716614Y0003292614D03*
D119*
G04 #@! TD*
G04 #@! TO.N,GND*
G04 #@! TO.C,J3*
G36*
X0002804509Y0003292035D02*
X0002799509Y0003267035D01*
X0002799340Y0003266481D01*
X0002798919Y0003265769D01*
X0002778919Y0003240769D01*
X0002778515Y0003240355D01*
X0002778252Y0003240157D01*
X0002718252Y0003200157D01*
X0002718048Y0003200032D01*
X0002673048Y0003175032D01*
X0002672517Y0003174802D01*
X0002671951Y0003174680D01*
X0002671372Y0003174671D01*
X0002670802Y0003174775D01*
X0002670264Y0003174987D01*
X0002669778Y0003175301D01*
X0002669308Y0003175769D01*
X0002649308Y0003200769D01*
X0002648900Y0003201451D01*
X0002633900Y0003236451D01*
X0002633718Y0003237035D01*
X0002628718Y0003262035D01*
X0002628661Y0003262614D01*
X0002628661Y0003322614D01*
X0002628718Y0003323193D01*
X0002633718Y0003348193D01*
X0002633973Y0003348934D01*
X0002658973Y0003398934D01*
X0002659281Y0003399424D01*
X0002659526Y0003399702D01*
X0002674526Y0003414702D01*
X0002674973Y0003415069D01*
X0002675484Y0003415342D01*
X0002676038Y0003415510D01*
X0002676614Y0003415566D01*
X0002677190Y0003415510D01*
X0002677744Y0003415342D01*
X0002678048Y0003415195D01*
X0002723048Y0003390195D01*
X0002723350Y0003390002D01*
X0002778350Y0003350002D01*
X0002778919Y0003349458D01*
X0002798919Y0003324458D01*
X0002799235Y0003323973D01*
X0002799450Y0003323435D01*
X0002799526Y0003323099D01*
X0002804526Y0003293099D01*
X0002804565Y0003292522D01*
X0002804509Y0003292035D01*
X0002804509Y0003292035D01*
G37*
D118*
G04 #@! TO.P,J4,1*
G04 #@! TO.N,Net-(D1-Pad4)*
X0002408614Y0002990614D03*
D119*
G04 #@! TD*
G04 #@! TO.N,Net-(D1-Pad4)*
G04 #@! TO.C,J4*
G36*
X0002408035Y0002902718D02*
X0002383035Y0002907718D01*
X0002382481Y0002907887D01*
X0002381769Y0002908308D01*
X0002356769Y0002928308D01*
X0002356355Y0002928712D01*
X0002356157Y0002928976D01*
X0002316157Y0002988976D01*
X0002316032Y0002989180D01*
X0002291032Y0003034180D01*
X0002290802Y0003034711D01*
X0002290680Y0003035277D01*
X0002290671Y0003035855D01*
X0002290775Y0003036425D01*
X0002290987Y0003036963D01*
X0002291301Y0003037450D01*
X0002291769Y0003037919D01*
X0002316769Y0003057919D01*
X0002317451Y0003058328D01*
X0002352451Y0003073328D01*
X0002353035Y0003073509D01*
X0002378035Y0003078509D01*
X0002378614Y0003078566D01*
X0002438614Y0003078566D01*
X0002439193Y0003078509D01*
X0002464193Y0003073509D01*
X0002464934Y0003073255D01*
X0002514934Y0003048255D01*
X0002515424Y0003047946D01*
X0002515702Y0003047702D01*
X0002530702Y0003032702D01*
X0002531069Y0003032254D01*
X0002531342Y0003031744D01*
X0002531510Y0003031190D01*
X0002531566Y0003030614D01*
X0002531510Y0003030038D01*
X0002531342Y0003029484D01*
X0002531195Y0003029180D01*
X0002506195Y0002984180D01*
X0002506002Y0002983877D01*
X0002466002Y0002928877D01*
X0002465458Y0002928308D01*
X0002440458Y0002908308D01*
X0002439973Y0002907992D01*
X0002439435Y0002907778D01*
X0002439099Y0002907701D01*
X0002409099Y0002902701D01*
X0002408522Y0002902662D01*
X0002408035Y0002902718D01*
X0002408035Y0002902718D01*
G37*
D120*
G04 #@! TO.N,Net-(D1-Pad4)*
X0002453614Y0003296614D03*
G04 #@! TD*
D121*
G04 #@! TO.N,Net-(D1-Pad4)*
X0002408614Y0003251614D02*
X0002408614Y0002990614D01*
X0002453614Y0003296614D02*
X0002408614Y0003251614D01*
G04 #@! TD*
M02*