%
M48
METRIC,000.000
T10C3.20
T11C0.50
%
T10
X002500Y002500
X097500Y002500
X097500Y097500
X002500Y097500
T11
X005248Y011349
X005248Y010349
X005248Y009349
X005248Y008349
X005248Y007349
X005248Y006349
X006474Y005248
X007474Y005248
X008474Y005248
X009474Y005248
X010474Y005248
X011474Y005248
X009140Y013640
X010029Y013182
X010868Y012640
X011685Y012068
X012249Y011242
X012784Y010399
X013242Y009510
X013720Y008633
X023190Y019904
X022306Y020368
X021479Y020932
X020732Y021574
X020168Y022400
X019661Y023260
X021279Y024182
X022118Y023640
X022935Y023068
X023499Y022242
X024034Y021399
X094748Y006993
X094748Y007993
X094748Y008993
X094748Y009993
X094748Y010993
X094748Y011993
X088474Y005248
X089474Y005248
X090474Y005248
X091474Y005248
X092474Y005248
X093474Y005248
X086046Y007691
X086581Y008534
X087039Y009423
X087518Y010299
X088081Y011126
X088758Y011838
X089584Y012401
X090452Y012894
X091341Y013352
X092193Y013873
X094748Y087993
X094748Y088993
X094748Y089993
X094748Y090993
X094748Y091993
X094748Y092993
X093176Y094748
X092176Y094748
X091176Y094748
X090176Y094748
X089176Y094748
X088176Y094748
X091579Y086446
X090690Y086904
X089806Y087368
X088979Y087932
X088232Y088574
X087668Y089400
X087161Y090260
X086703Y091149
X086197Y092009
X012176Y094748
X011176Y094748
X010176Y094748
X009176Y094748
X008176Y094748
X007176Y094748
X006176Y094748
X005248Y093349
X005248Y092349
X005248Y091349
X005248Y090349
X005248Y089349
X005248Y088349
X013610Y091625
X013152Y090736
X012694Y089847
X012138Y089016
X011531Y088234
X010705Y087670
X009854Y087149
X008965Y086691
X008096Y086199
X023944Y033847
X023388Y033016
X022781Y032234
X021955Y031670
X021104Y031149
X020018Y032799
X020581Y033626
X021258Y034338
X022084Y034901
X022952Y035394
X022306Y042368
X021479Y042932
X020732Y043574
X020168Y044400
X019661Y045260
X021279Y046682
X022118Y046140
X022935Y045568
X023499Y044742
X024034Y043899
X020018Y055299
X020581Y056126
X021258Y056838
X022084Y057401
X022952Y057894
X023944Y056347
X023388Y055516
X022781Y054734
X021955Y054170
X021104Y053649
X022306Y064867
X021479Y065432
X020732Y066074
X020168Y066900
X019661Y067760
X021279Y069182
X022118Y068640
X022935Y068068
X023499Y067242
X024034Y066399
X020018Y077799
X020581Y078626
X021258Y079338
X022084Y079901
X022952Y080394
X023944Y078847
X023388Y078016
X022781Y077234
X021955Y076670
X021104Y076149
X030789Y020923
X031268Y021799
X031831Y022626
X032508Y023338
X033334Y023901
X035194Y022847
X034638Y022016
X034031Y021234
X033205Y020670
X032354Y020149
X033556Y076368
X032729Y076932
X031982Y077574
X031418Y078400
X030911Y079260
X032529Y080182
X033368Y079640
X034185Y079068
X034749Y078242
X035284Y077399
X031268Y066799
X031831Y067626
X032508Y068338
X033334Y068901
X034202Y069394
X035194Y067347
X034638Y066516
X034031Y065734
X033205Y065170
X032354Y064649
X033556Y053868
X032729Y054432
X031982Y055074
X031418Y055900
X030911Y056760
X032529Y057682
X033368Y057140
X034185Y056568
X034749Y055742
X035284Y054899
X031268Y044299
X031831Y045126
X032508Y045838
X033334Y046401
X034202Y046894
X035194Y044847
X034638Y044016
X034031Y043234
X033205Y042670
X032354Y042149
X033556Y031368
X032729Y031932
X031982Y032573
X031418Y033400
X030911Y034260
X032529Y035182
X033368Y034640
X034185Y034068
X034749Y033242
X035284Y032399
X042518Y077799
X043081Y078626
X043758Y079338
X044584Y079901
X045452Y080394
X046444Y078847
X045888Y078016
X045281Y077234
X044455Y076670
X043604Y076149
X044806Y064867
X043979Y065432
X043232Y066074
X042668Y066900
X042161Y067760
X043779Y069182
X044618Y068640
X045435Y068068
X045999Y067242
X046534Y066399
X046444Y056347
X045888Y055516
X045281Y054734
X044455Y054170
X043604Y053649
X042518Y055299
X043081Y056126
X043758Y056838
X044584Y057401
X045452Y057894
X043779Y046682
X044618Y046140
X045435Y045568
X045999Y044742
X046534Y043899
X044806Y042368
X043979Y042932
X043232Y043574
X042668Y044400
X042161Y045260
X046444Y033847
X045888Y033016
X045281Y032234
X044455Y031670
X043604Y031149
X042518Y032799
X043081Y033626
X043758Y034338
X044584Y034901
X045452Y035394
X043779Y024182
X044618Y023640
X045435Y023068
X045999Y022242
X046534Y021399
X044806Y020368
X043979Y020932
X043232Y021574
X042668Y022400
X042161Y023260
X056056Y076368
X055229Y076932
X054482Y077574
X053918Y078400
X053411Y079260
X055029Y080182
X055868Y079640
X056685Y079068
X057249Y078242
X057784Y077399
X057694Y067347
X057138Y066516
X056531Y065734
X055705Y065170
X054854Y064649
X053768Y066799
X054331Y067626
X055008Y068338
X055834Y068901
X056702Y069394
X056056Y053868
X055229Y054432
X054482Y055074
X053918Y055900
X053411Y056760
X055029Y057682
X055868Y057140
X056685Y056568
X057249Y055742
X057784Y054899
X053289Y043423
X053768Y044299
X054331Y045126
X055008Y045838
X055834Y046401
X056702Y046894
X057694Y044847
X057138Y044016
X056531Y043234
X055705Y042670
X054854Y042149
X056056Y031368
X055229Y031932
X054482Y032573
X053918Y033400
X053411Y034260
X055029Y035182
X055868Y034640
X056685Y034068
X057249Y033242
X057784Y032399
X053768Y021799
X054331Y022626
X055008Y023338
X055834Y023901
X056702Y024394
X057694Y022847
X057138Y022016
X056531Y021234
X055705Y020670
X054854Y020149
X068944Y078847
X068388Y078016
X067781Y077234
X066955Y076670
X066104Y076149
X065018Y077799
X065581Y078626
X066258Y079338
X067084Y079901
X067952Y080394
X066279Y069182
X067118Y068640
X067935Y068068
X068499Y067242
X067306Y064867
X066479Y065432
X065732Y066074
X065168Y066900
X064661Y067760
X064203Y068649
X066279Y024182
X067118Y023640
X067935Y023068
X068499Y022242
X069034Y021399
X067306Y020368
X066479Y020932
X065732Y021574
X065168Y022400
X064661Y023260
X067306Y042368
X066479Y042932
X065732Y043574
X065168Y044400
X064661Y045260
X066279Y046682
X067118Y046140
X067935Y045568
X068499Y044742
X069034Y043899
X068944Y033847
X068388Y033016
X067781Y032234
X066955Y031670
X066104Y031149
X065018Y032799
X065581Y033626
X066258Y034338
X067084Y034901
X067952Y035394
X068944Y056347
X068388Y055516
X067781Y054734
X066955Y054170
X066104Y053649
X065018Y055299
X065581Y056126
X066258Y056838
X067084Y057401
X067952Y057894
X078556Y076368
X077729Y076932
X076982Y077574
X076418Y078400
X075911Y079260
X077529Y080182
X078368Y079640
X079185Y079068
X079749Y078242
X080284Y077399
X075789Y065923
X076268Y066799
X076831Y067626
X077508Y068338
X078334Y068901
X080194Y067347
X079638Y066516
X079031Y065734
X078205Y065170
X077354Y064649
X080194Y022347
X079638Y021516
X079031Y020734
X078205Y020170
X077354Y019649
X075789Y020923
X076268Y021799
X076831Y022626
X077508Y023338
X078334Y023901
X078556Y031368
X077729Y031932
X076982Y032573
X076418Y033400
X077529Y035182
X078368Y034640
X079185Y034068
X079749Y033242
X080284Y032399
X080194Y044847
X079638Y044016
X079031Y043234
X078205Y042670
X077354Y042149
X075789Y043423
X076268Y044299
X076831Y045126
X077508Y045838
X078334Y046401
X078556Y053868
X077729Y054432
X076982Y055074
X076418Y055900
X077529Y057682
X078368Y057140
X079185Y056568
X079749Y055742
X080284Y054899
M30