G04 #@! TF.GenerationSoftware,KiCad,Pcbnew,5.1.2-1.fc30*
G04 #@! TF.CreationDate,2019-06-18T23:23:49+02:00*
G04 #@! TF.ProjectId,bricopixels,62726963-6f70-4697-9865-6c732e6b6963,1*
G04 #@! TF.SameCoordinates,Original*
G04 #@! TF.FileFunction,Legend,Top*
G04 #@! TF.FilePolarity,Positive*
%FSLAX46Y46*%
G04 Gerber Fmt 4.6, Leading zero omitted, Abs format (unit mm)*
G04 Created by KiCad (PCBNEW 5.1.2-1.fc30) date 2019-06-18 23:23:49*
%MOMM*%
%LPD*%
G04 APERTURE LIST*
%ADD10C,0.200000*%
%ADD11C,0.120000*%
%ADD12C,0.100000*%
%ADD13C,0.150000*%
G04 APERTURE END LIST*
D10*
X75877800Y-33408857D02*
X75830180Y-33504095D01*
X75830180Y-33646952D01*
X75877800Y-33789809D01*
X75973038Y-33885047D01*
X76068276Y-33932666D01*
X76258752Y-33980285D01*
X76401609Y-33980285D01*
X76592085Y-33932666D01*
X76687323Y-33885047D01*
X76782561Y-33789809D01*
X76830180Y-33646952D01*
X76830180Y-33551714D01*
X76782561Y-33408857D01*
X76734942Y-33361238D01*
X76401609Y-33361238D01*
X76401609Y-33551714D01*
X76163514Y-32932666D02*
X76830180Y-32932666D01*
X76258752Y-32932666D02*
X76211133Y-32885047D01*
X76163514Y-32789809D01*
X76163514Y-32646952D01*
X76211133Y-32551714D01*
X76306371Y-32504095D01*
X76830180Y-32504095D01*
X76830180Y-31599333D02*
X75830180Y-31599333D01*
X76782561Y-31599333D02*
X76830180Y-31694571D01*
X76830180Y-31885047D01*
X76782561Y-31980285D01*
X76734942Y-32027904D01*
X76639704Y-32075523D01*
X76353990Y-32075523D01*
X76258752Y-32027904D01*
X76211133Y-31980285D01*
X76163514Y-31885047D01*
X76163514Y-31694571D01*
X76211133Y-31599333D01*
X71091514Y-28925780D02*
X71091514Y-27925780D01*
X71329609Y-27925780D01*
X71472466Y-27973400D01*
X71567704Y-28068638D01*
X71615323Y-28163876D01*
X71662942Y-28354352D01*
X71662942Y-28497209D01*
X71615323Y-28687685D01*
X71567704Y-28782923D01*
X71472466Y-28878161D01*
X71329609Y-28925780D01*
X71091514Y-28925780D01*
X72234371Y-28925780D02*
X72139133Y-28878161D01*
X72091514Y-28830542D01*
X72043895Y-28735304D01*
X72043895Y-28449590D01*
X72091514Y-28354352D01*
X72139133Y-28306733D01*
X72234371Y-28259114D01*
X72377228Y-28259114D01*
X72472466Y-28306733D01*
X72520085Y-28354352D01*
X72567704Y-28449590D01*
X72567704Y-28735304D01*
X72520085Y-28830542D01*
X72472466Y-28878161D01*
X72377228Y-28925780D01*
X72234371Y-28925780D01*
X68588000Y-38272980D02*
X68588000Y-37272980D01*
X68826095Y-37272980D01*
X68968952Y-37320600D01*
X69064190Y-37415838D01*
X69111809Y-37511076D01*
X69159428Y-37701552D01*
X69159428Y-37844409D01*
X69111809Y-38034885D01*
X69064190Y-38130123D01*
X68968952Y-38225361D01*
X68826095Y-38272980D01*
X68588000Y-38272980D01*
X69588000Y-38272980D02*
X69588000Y-37606314D01*
X69588000Y-37272980D02*
X69540380Y-37320600D01*
X69588000Y-37368219D01*
X69635619Y-37320600D01*
X69588000Y-37272980D01*
X69588000Y-37368219D01*
X67305228Y-34178714D02*
X67305228Y-33416809D01*
X67686180Y-33797761D02*
X66924276Y-33797761D01*
X66686180Y-32464428D02*
X66686180Y-32940619D01*
X67162371Y-32988238D01*
X67114752Y-32940619D01*
X67067133Y-32845380D01*
X67067133Y-32607285D01*
X67114752Y-32512047D01*
X67162371Y-32464428D01*
X67257609Y-32416809D01*
X67495704Y-32416809D01*
X67590942Y-32464428D01*
X67638561Y-32512047D01*
X67686180Y-32607285D01*
X67686180Y-32845380D01*
X67638561Y-32940619D01*
X67590942Y-32988238D01*
X66686180Y-32131095D02*
X67686180Y-31797761D01*
X66686180Y-31464428D01*
D11*
X68155800Y-30016000D02*
X75455800Y-30016000D01*
X68155800Y-35516000D02*
X75455800Y-35516000D01*
X75455800Y-35516000D02*
X75455800Y-34366000D01*
D12*
G36*
X75463400Y-35509200D02*
G01*
X75463400Y-35052000D01*
X75006200Y-35509200D01*
X75463400Y-35509200D01*
G37*
X75463400Y-35509200D02*
X75463400Y-35052000D01*
X75006200Y-35509200D01*
X75463400Y-35509200D01*
D11*
X71447922Y-36196200D02*
X71965078Y-36196200D01*
X71447922Y-37616200D02*
X71965078Y-37616200D01*
D13*
X71067704Y-33218380D02*
X71067704Y-32218380D01*
X71305800Y-32218380D01*
X71448657Y-32266000D01*
X71543895Y-32361238D01*
X71591514Y-32456476D01*
X71639133Y-32646952D01*
X71639133Y-32789809D01*
X71591514Y-32980285D01*
X71543895Y-33075523D01*
X71448657Y-33170761D01*
X71305800Y-33218380D01*
X71067704Y-33218380D01*
X72591514Y-33218380D02*
X72020085Y-33218380D01*
X72305800Y-33218380D02*
X72305800Y-32218380D01*
X72210561Y-32361238D01*
X72115323Y-32456476D01*
X72020085Y-32504095D01*
X71539833Y-35613342D02*
X71492214Y-35660961D01*
X71349357Y-35708580D01*
X71254119Y-35708580D01*
X71111261Y-35660961D01*
X71016023Y-35565723D01*
X70968404Y-35470485D01*
X70920785Y-35280009D01*
X70920785Y-35137152D01*
X70968404Y-34946676D01*
X71016023Y-34851438D01*
X71111261Y-34756200D01*
X71254119Y-34708580D01*
X71349357Y-34708580D01*
X71492214Y-34756200D01*
X71539833Y-34803819D01*
X72492214Y-35708580D02*
X71920785Y-35708580D01*
X72206500Y-35708580D02*
X72206500Y-34708580D01*
X72111261Y-34851438D01*
X72016023Y-34946676D01*
X71920785Y-34994295D01*
M02*
