G04 #@! TF.GenerationSoftware,KiCad,Pcbnew,5.1.2-1.fc30*
G04 #@! TF.CreationDate,2019-06-18T23:23:49+02:00*
G04 #@! TF.ProjectId,bricopixels,62726963-6f70-4697-9865-6c732e6b6963,1*
G04 #@! TF.SameCoordinates,Original*
G04 #@! TF.FileFunction,Copper,L1,Top*
G04 #@! TF.FilePolarity,Positive*
%FSLAX46Y46*%
G04 Gerber Fmt 4.6, Leading zero omitted, Abs format (unit mm)*
G04 Created by KiCad (PCBNEW 5.1.2-1.fc30) date 2019-06-18 23:23:49*
%MOMM*%
%LPD*%
G04 APERTURE LIST*
%ADD10R,1.500000X1.000000*%
%ADD11C,0.100000*%
%ADD12C,0.975000*%
%ADD13C,3.000000*%
%ADD14C,0.800000*%
%ADD15C,0.250000*%
%ADD16C,0.400000*%
G04 APERTURE END LIST*
D10*
X74255800Y-34366000D03*
X74255800Y-31166000D03*
X69355800Y-34366000D03*
X69355800Y-31166000D03*
D11*
G36*
X71036642Y-36207374D02*
G01*
X71060303Y-36210884D01*
X71083507Y-36216696D01*
X71106029Y-36224754D01*
X71127653Y-36234982D01*
X71148170Y-36247279D01*
X71167383Y-36261529D01*
X71185107Y-36277593D01*
X71201171Y-36295317D01*
X71215421Y-36314530D01*
X71227718Y-36335047D01*
X71237946Y-36356671D01*
X71246004Y-36379193D01*
X71251816Y-36402397D01*
X71255326Y-36426058D01*
X71256500Y-36449950D01*
X71256500Y-37362450D01*
X71255326Y-37386342D01*
X71251816Y-37410003D01*
X71246004Y-37433207D01*
X71237946Y-37455729D01*
X71227718Y-37477353D01*
X71215421Y-37497870D01*
X71201171Y-37517083D01*
X71185107Y-37534807D01*
X71167383Y-37550871D01*
X71148170Y-37565121D01*
X71127653Y-37577418D01*
X71106029Y-37587646D01*
X71083507Y-37595704D01*
X71060303Y-37601516D01*
X71036642Y-37605026D01*
X71012750Y-37606200D01*
X70525250Y-37606200D01*
X70501358Y-37605026D01*
X70477697Y-37601516D01*
X70454493Y-37595704D01*
X70431971Y-37587646D01*
X70410347Y-37577418D01*
X70389830Y-37565121D01*
X70370617Y-37550871D01*
X70352893Y-37534807D01*
X70336829Y-37517083D01*
X70322579Y-37497870D01*
X70310282Y-37477353D01*
X70300054Y-37455729D01*
X70291996Y-37433207D01*
X70286184Y-37410003D01*
X70282674Y-37386342D01*
X70281500Y-37362450D01*
X70281500Y-36449950D01*
X70282674Y-36426058D01*
X70286184Y-36402397D01*
X70291996Y-36379193D01*
X70300054Y-36356671D01*
X70310282Y-36335047D01*
X70322579Y-36314530D01*
X70336829Y-36295317D01*
X70352893Y-36277593D01*
X70370617Y-36261529D01*
X70389830Y-36247279D01*
X70410347Y-36234982D01*
X70431971Y-36224754D01*
X70454493Y-36216696D01*
X70477697Y-36210884D01*
X70501358Y-36207374D01*
X70525250Y-36206200D01*
X71012750Y-36206200D01*
X71036642Y-36207374D01*
X71036642Y-36207374D01*
G37*
D12*
X70769000Y-36906200D03*
D11*
G36*
X72911642Y-36207374D02*
G01*
X72935303Y-36210884D01*
X72958507Y-36216696D01*
X72981029Y-36224754D01*
X73002653Y-36234982D01*
X73023170Y-36247279D01*
X73042383Y-36261529D01*
X73060107Y-36277593D01*
X73076171Y-36295317D01*
X73090421Y-36314530D01*
X73102718Y-36335047D01*
X73112946Y-36356671D01*
X73121004Y-36379193D01*
X73126816Y-36402397D01*
X73130326Y-36426058D01*
X73131500Y-36449950D01*
X73131500Y-37362450D01*
X73130326Y-37386342D01*
X73126816Y-37410003D01*
X73121004Y-37433207D01*
X73112946Y-37455729D01*
X73102718Y-37477353D01*
X73090421Y-37497870D01*
X73076171Y-37517083D01*
X73060107Y-37534807D01*
X73042383Y-37550871D01*
X73023170Y-37565121D01*
X73002653Y-37577418D01*
X72981029Y-37587646D01*
X72958507Y-37595704D01*
X72935303Y-37601516D01*
X72911642Y-37605026D01*
X72887750Y-37606200D01*
X72400250Y-37606200D01*
X72376358Y-37605026D01*
X72352697Y-37601516D01*
X72329493Y-37595704D01*
X72306971Y-37587646D01*
X72285347Y-37577418D01*
X72264830Y-37565121D01*
X72245617Y-37550871D01*
X72227893Y-37534807D01*
X72211829Y-37517083D01*
X72197579Y-37497870D01*
X72185282Y-37477353D01*
X72175054Y-37455729D01*
X72166996Y-37433207D01*
X72161184Y-37410003D01*
X72157674Y-37386342D01*
X72156500Y-37362450D01*
X72156500Y-36449950D01*
X72157674Y-36426058D01*
X72161184Y-36402397D01*
X72166996Y-36379193D01*
X72175054Y-36356671D01*
X72185282Y-36335047D01*
X72197579Y-36314530D01*
X72211829Y-36295317D01*
X72227893Y-36277593D01*
X72245617Y-36261529D01*
X72264830Y-36247279D01*
X72285347Y-36234982D01*
X72306971Y-36224754D01*
X72329493Y-36216696D01*
X72352697Y-36210884D01*
X72376358Y-36207374D01*
X72400250Y-36206200D01*
X72887750Y-36206200D01*
X72911642Y-36207374D01*
X72911642Y-36207374D01*
G37*
D12*
X72644000Y-36906200D03*
D13*
X64058800Y-32689800D03*
D11*
G36*
X61826256Y-32675091D02*
G01*
X61953256Y-32040091D01*
X61957539Y-32026026D01*
X61968235Y-32007948D01*
X62476235Y-31372948D01*
X62486501Y-31362423D01*
X62493197Y-31357396D01*
X64017197Y-30341396D01*
X64022377Y-30338238D01*
X65165377Y-29703238D01*
X65178867Y-29697392D01*
X65193239Y-29694290D01*
X65207939Y-29694052D01*
X65222404Y-29696686D01*
X65236077Y-29702091D01*
X65248433Y-29710060D01*
X65260365Y-29721948D01*
X65768365Y-30356948D01*
X65778736Y-30374256D01*
X66159736Y-31263256D01*
X66164344Y-31278091D01*
X66291344Y-31913091D01*
X66292800Y-31927800D01*
X66292800Y-33451800D01*
X66291344Y-33466509D01*
X66164344Y-34101509D01*
X66157882Y-34120341D01*
X65522882Y-35390341D01*
X65515050Y-35402784D01*
X65508833Y-35409833D01*
X65127833Y-35790833D01*
X65116468Y-35800160D01*
X65103501Y-35807091D01*
X65089432Y-35811359D01*
X65074800Y-35812800D01*
X65060168Y-35811359D01*
X65046099Y-35807091D01*
X65038377Y-35803362D01*
X63895377Y-35168362D01*
X63887687Y-35163455D01*
X62490687Y-34147455D01*
X62476235Y-34133652D01*
X61968235Y-33498652D01*
X61960220Y-33486326D01*
X61954763Y-33472674D01*
X61952820Y-33464130D01*
X61825820Y-32702130D01*
X61824837Y-32687460D01*
X61826256Y-32675091D01*
X61826256Y-32675091D01*
G37*
D13*
X71882000Y-25044400D03*
D11*
G36*
X71896709Y-22811856D02*
G01*
X72531709Y-22938856D01*
X72545774Y-22943139D01*
X72563852Y-22953835D01*
X73198852Y-23461835D01*
X73209377Y-23472101D01*
X73214404Y-23478797D01*
X74230404Y-25002797D01*
X74233562Y-25007977D01*
X74868562Y-26150977D01*
X74874408Y-26164467D01*
X74877510Y-26178839D01*
X74877748Y-26193539D01*
X74875114Y-26208004D01*
X74869709Y-26221677D01*
X74861740Y-26234033D01*
X74849852Y-26245965D01*
X74214852Y-26753965D01*
X74197544Y-26764336D01*
X73308544Y-27145336D01*
X73293709Y-27149944D01*
X72658709Y-27276944D01*
X72644000Y-27278400D01*
X71120000Y-27278400D01*
X71105291Y-27276944D01*
X70470291Y-27149944D01*
X70451459Y-27143482D01*
X69181459Y-26508482D01*
X69169016Y-26500650D01*
X69161967Y-26494433D01*
X68780967Y-26113433D01*
X68771640Y-26102068D01*
X68764709Y-26089101D01*
X68760441Y-26075032D01*
X68759000Y-26060400D01*
X68760441Y-26045768D01*
X68764709Y-26031699D01*
X68768438Y-26023977D01*
X69403438Y-24880977D01*
X69408345Y-24873287D01*
X70424345Y-23476287D01*
X70438148Y-23461835D01*
X71073148Y-22953835D01*
X71085474Y-22945820D01*
X71099126Y-22940363D01*
X71107670Y-22938420D01*
X71869670Y-22811420D01*
X71884340Y-22810437D01*
X71896709Y-22811856D01*
X71896709Y-22811856D01*
G37*
D13*
X79502000Y-32867600D03*
D11*
G36*
X81734544Y-32882309D02*
G01*
X81607544Y-33517309D01*
X81603261Y-33531374D01*
X81592565Y-33549452D01*
X81084565Y-34184452D01*
X81074299Y-34194977D01*
X81067603Y-34200004D01*
X79543603Y-35216004D01*
X79538423Y-35219162D01*
X78395423Y-35854162D01*
X78381933Y-35860008D01*
X78367561Y-35863110D01*
X78352861Y-35863348D01*
X78338396Y-35860714D01*
X78324723Y-35855309D01*
X78312367Y-35847340D01*
X78300435Y-35835452D01*
X77792435Y-35200452D01*
X77782064Y-35183144D01*
X77401064Y-34294144D01*
X77396456Y-34279309D01*
X77269456Y-33644309D01*
X77268000Y-33629600D01*
X77268000Y-32105600D01*
X77269456Y-32090891D01*
X77396456Y-31455891D01*
X77402918Y-31437059D01*
X78037918Y-30167059D01*
X78045750Y-30154616D01*
X78051967Y-30147567D01*
X78432967Y-29766567D01*
X78444332Y-29757240D01*
X78457299Y-29750309D01*
X78471368Y-29746041D01*
X78486000Y-29744600D01*
X78500632Y-29746041D01*
X78514701Y-29750309D01*
X78522423Y-29754038D01*
X79665423Y-30389038D01*
X79673113Y-30393945D01*
X81070113Y-31409945D01*
X81084565Y-31423748D01*
X81592565Y-32058748D01*
X81600580Y-32071074D01*
X81606037Y-32084726D01*
X81607980Y-32093270D01*
X81734980Y-32855270D01*
X81735963Y-32869940D01*
X81734544Y-32882309D01*
X81734544Y-32882309D01*
G37*
D13*
X71678800Y-40538400D03*
D11*
G36*
X71664091Y-42770944D02*
G01*
X71029091Y-42643944D01*
X71015026Y-42639661D01*
X70996948Y-42628965D01*
X70361948Y-42120965D01*
X70351423Y-42110699D01*
X70346396Y-42104003D01*
X69330396Y-40580003D01*
X69327238Y-40574823D01*
X68692238Y-39431823D01*
X68686392Y-39418333D01*
X68683290Y-39403961D01*
X68683052Y-39389261D01*
X68685686Y-39374796D01*
X68691091Y-39361123D01*
X68699060Y-39348767D01*
X68710948Y-39336835D01*
X69345948Y-38828835D01*
X69363256Y-38818464D01*
X70252256Y-38437464D01*
X70267091Y-38432856D01*
X70902091Y-38305856D01*
X70916800Y-38304400D01*
X72440800Y-38304400D01*
X72455509Y-38305856D01*
X73090509Y-38432856D01*
X73109341Y-38439318D01*
X74379341Y-39074318D01*
X74391784Y-39082150D01*
X74398833Y-39088367D01*
X74779833Y-39469367D01*
X74789160Y-39480732D01*
X74796091Y-39493699D01*
X74800359Y-39507768D01*
X74801800Y-39522400D01*
X74800359Y-39537032D01*
X74796091Y-39551101D01*
X74792362Y-39558823D01*
X74157362Y-40701823D01*
X74152455Y-40709513D01*
X73136455Y-42106513D01*
X73122652Y-42120965D01*
X72487652Y-42628965D01*
X72475326Y-42636980D01*
X72461674Y-42642437D01*
X72453130Y-42644380D01*
X71691130Y-42771380D01*
X71676460Y-42772363D01*
X71664091Y-42770944D01*
X71664091Y-42770944D01*
G37*
D14*
X72821800Y-32766000D03*
D15*
X69605800Y-31166000D02*
X69355800Y-31166000D01*
X65582600Y-31166000D02*
X64058800Y-32689800D01*
D16*
X67487800Y-36118800D02*
X68275200Y-36906200D01*
X69355800Y-31166000D02*
X68205800Y-31166000D01*
X68275200Y-36906200D02*
X70769000Y-36906200D01*
X68205800Y-31166000D02*
X67487800Y-31884000D01*
X65557400Y-32689800D02*
X64058800Y-32689800D01*
X66363200Y-31884000D02*
X65557400Y-32689800D01*
X67005200Y-31953200D02*
X67487800Y-32435800D01*
X67005200Y-31884000D02*
X67005200Y-31953200D01*
X67487800Y-32435800D02*
X67487800Y-36118800D01*
X67005200Y-31884000D02*
X66363200Y-31884000D01*
X67487800Y-31884000D02*
X67487800Y-32435800D01*
X67487800Y-31884000D02*
X67005200Y-31884000D01*
D15*
X74244300Y-34377500D02*
X74255800Y-34366000D01*
D16*
X74255800Y-33466000D02*
X74255800Y-34366000D01*
X74854200Y-32867600D02*
X74255800Y-33466000D01*
X79502000Y-32867600D02*
X74854200Y-32867600D01*
X72644000Y-36906200D02*
X73507600Y-36906200D01*
X74255800Y-36158000D02*
X74255800Y-34366000D01*
X73507600Y-36906200D02*
X74255800Y-36158000D01*
X74255800Y-31166000D02*
X74255800Y-31332000D01*
X74255800Y-31332000D02*
X72821800Y-32766000D01*
X69605800Y-34366000D02*
X71043800Y-32928000D01*
X69355800Y-34366000D02*
X69605800Y-34366000D01*
X71043800Y-32928000D02*
X71043800Y-30124400D01*
X71882000Y-29286200D02*
X71882000Y-25044400D01*
X71043800Y-30124400D02*
X71882000Y-29286200D01*
M02*
