G04 #@! TF.GenerationSoftware,KiCad,Pcbnew,5.1.2-1.fc30*
G04 #@! TF.CreationDate,2019-06-18T23:23:49+02:00*
G04 #@! TF.ProjectId,bricopixels,62726963-6f70-4697-9865-6c732e6b6963,1*
G04 #@! TF.SameCoordinates,Original*
G04 #@! TF.FileFunction,Paste,Top*
G04 #@! TF.FilePolarity,Positive*
%FSLAX46Y46*%
G04 Gerber Fmt 4.6, Leading zero omitted, Abs format (unit mm)*
G04 Created by KiCad (PCBNEW 5.1.2-1.fc30) date 2019-06-18 23:23:49*
%MOMM*%
%LPD*%
G04 APERTURE LIST*
%ADD10R,1.500000X1.000000*%
%ADD11C,0.100000*%
%ADD12C,0.975000*%
G04 APERTURE END LIST*
D10*
X74255800Y-34366000D03*
X74255800Y-31166000D03*
X69355800Y-34366000D03*
X69355800Y-31166000D03*
D11*
G36*
X71036642Y-36207374D02*
G01*
X71060303Y-36210884D01*
X71083507Y-36216696D01*
X71106029Y-36224754D01*
X71127653Y-36234982D01*
X71148170Y-36247279D01*
X71167383Y-36261529D01*
X71185107Y-36277593D01*
X71201171Y-36295317D01*
X71215421Y-36314530D01*
X71227718Y-36335047D01*
X71237946Y-36356671D01*
X71246004Y-36379193D01*
X71251816Y-36402397D01*
X71255326Y-36426058D01*
X71256500Y-36449950D01*
X71256500Y-37362450D01*
X71255326Y-37386342D01*
X71251816Y-37410003D01*
X71246004Y-37433207D01*
X71237946Y-37455729D01*
X71227718Y-37477353D01*
X71215421Y-37497870D01*
X71201171Y-37517083D01*
X71185107Y-37534807D01*
X71167383Y-37550871D01*
X71148170Y-37565121D01*
X71127653Y-37577418D01*
X71106029Y-37587646D01*
X71083507Y-37595704D01*
X71060303Y-37601516D01*
X71036642Y-37605026D01*
X71012750Y-37606200D01*
X70525250Y-37606200D01*
X70501358Y-37605026D01*
X70477697Y-37601516D01*
X70454493Y-37595704D01*
X70431971Y-37587646D01*
X70410347Y-37577418D01*
X70389830Y-37565121D01*
X70370617Y-37550871D01*
X70352893Y-37534807D01*
X70336829Y-37517083D01*
X70322579Y-37497870D01*
X70310282Y-37477353D01*
X70300054Y-37455729D01*
X70291996Y-37433207D01*
X70286184Y-37410003D01*
X70282674Y-37386342D01*
X70281500Y-37362450D01*
X70281500Y-36449950D01*
X70282674Y-36426058D01*
X70286184Y-36402397D01*
X70291996Y-36379193D01*
X70300054Y-36356671D01*
X70310282Y-36335047D01*
X70322579Y-36314530D01*
X70336829Y-36295317D01*
X70352893Y-36277593D01*
X70370617Y-36261529D01*
X70389830Y-36247279D01*
X70410347Y-36234982D01*
X70431971Y-36224754D01*
X70454493Y-36216696D01*
X70477697Y-36210884D01*
X70501358Y-36207374D01*
X70525250Y-36206200D01*
X71012750Y-36206200D01*
X71036642Y-36207374D01*
X71036642Y-36207374D01*
G37*
D12*
X70769000Y-36906200D03*
D11*
G36*
X72911642Y-36207374D02*
G01*
X72935303Y-36210884D01*
X72958507Y-36216696D01*
X72981029Y-36224754D01*
X73002653Y-36234982D01*
X73023170Y-36247279D01*
X73042383Y-36261529D01*
X73060107Y-36277593D01*
X73076171Y-36295317D01*
X73090421Y-36314530D01*
X73102718Y-36335047D01*
X73112946Y-36356671D01*
X73121004Y-36379193D01*
X73126816Y-36402397D01*
X73130326Y-36426058D01*
X73131500Y-36449950D01*
X73131500Y-37362450D01*
X73130326Y-37386342D01*
X73126816Y-37410003D01*
X73121004Y-37433207D01*
X73112946Y-37455729D01*
X73102718Y-37477353D01*
X73090421Y-37497870D01*
X73076171Y-37517083D01*
X73060107Y-37534807D01*
X73042383Y-37550871D01*
X73023170Y-37565121D01*
X73002653Y-37577418D01*
X72981029Y-37587646D01*
X72958507Y-37595704D01*
X72935303Y-37601516D01*
X72911642Y-37605026D01*
X72887750Y-37606200D01*
X72400250Y-37606200D01*
X72376358Y-37605026D01*
X72352697Y-37601516D01*
X72329493Y-37595704D01*
X72306971Y-37587646D01*
X72285347Y-37577418D01*
X72264830Y-37565121D01*
X72245617Y-37550871D01*
X72227893Y-37534807D01*
X72211829Y-37517083D01*
X72197579Y-37497870D01*
X72185282Y-37477353D01*
X72175054Y-37455729D01*
X72166996Y-37433207D01*
X72161184Y-37410003D01*
X72157674Y-37386342D01*
X72156500Y-37362450D01*
X72156500Y-36449950D01*
X72157674Y-36426058D01*
X72161184Y-36402397D01*
X72166996Y-36379193D01*
X72175054Y-36356671D01*
X72185282Y-36335047D01*
X72197579Y-36314530D01*
X72211829Y-36295317D01*
X72227893Y-36277593D01*
X72245617Y-36261529D01*
X72264830Y-36247279D01*
X72285347Y-36234982D01*
X72306971Y-36224754D01*
X72329493Y-36216696D01*
X72352697Y-36210884D01*
X72376358Y-36207374D01*
X72400250Y-36206200D01*
X72887750Y-36206200D01*
X72911642Y-36207374D01*
X72911642Y-36207374D01*
G37*
D12*
X72644000Y-36906200D03*
M02*
