G04 #@! TF.GenerationSoftware,KiCad,Pcbnew,5.1.2-1.fc30*
G04 #@! TF.CreationDate,2019-06-18T23:23:49+02:00*
G04 #@! TF.ProjectId,bricopixels,62726963-6f70-4697-9865-6c732e6b6963,1*
G04 #@! TF.SameCoordinates,Original*
G04 #@! TF.FileFunction,Soldermask,Bot*
G04 #@! TF.FilePolarity,Negative*
%FSLAX46Y46*%
G04 Gerber Fmt 4.6, Leading zero omitted, Abs format (unit mm)*
G04 Created by KiCad (PCBNEW 5.1.2-1.fc30) date 2019-06-18 23:23:49*
%MOMM*%
%LPD*%
G04 APERTURE LIST*
%ADD10C,0.100000*%
G04 APERTURE END LIST*
D10*
G36*
X72448979Y-38253104D02*
G01*
X72457547Y-38253952D01*
X72468695Y-38255614D01*
X73096596Y-38381195D01*
X73111279Y-38385163D01*
X73122231Y-38388921D01*
X73136248Y-38394800D01*
X74399790Y-39026571D01*
X74409561Y-39032071D01*
X74415152Y-39035590D01*
X74429850Y-39046585D01*
X74431677Y-39048197D01*
X74436866Y-39053070D01*
X74814336Y-39430540D01*
X74821859Y-39438841D01*
X74825345Y-39443089D01*
X74828774Y-39448221D01*
X74834356Y-39456574D01*
X74834359Y-39456579D01*
X74837787Y-39461710D01*
X74838925Y-39463838D01*
X74847492Y-39484522D01*
X74848195Y-39486836D01*
X74852564Y-39508803D01*
X74852801Y-39511205D01*
X74852801Y-39533595D01*
X74852564Y-39535997D01*
X74848195Y-39557964D01*
X74847119Y-39561510D01*
X74840676Y-39578011D01*
X74839818Y-39579788D01*
X74836828Y-39585553D01*
X74203615Y-40725338D01*
X74200046Y-40731325D01*
X74197190Y-40735799D01*
X74193264Y-40741559D01*
X73180845Y-42133635D01*
X73171074Y-42145340D01*
X73163037Y-42153754D01*
X73151776Y-42164068D01*
X72522433Y-42667543D01*
X72513360Y-42674098D01*
X72508734Y-42677106D01*
X72488874Y-42687405D01*
X72485460Y-42688770D01*
X72468399Y-42694084D01*
X72466428Y-42694532D01*
X72459827Y-42695831D01*
X71702689Y-42822021D01*
X71691528Y-42823322D01*
X71685580Y-42823720D01*
X71664917Y-42823232D01*
X71660786Y-42822758D01*
X71651371Y-42821279D01*
X71021933Y-42695391D01*
X71011048Y-42692652D01*
X71007060Y-42691438D01*
X71002408Y-42689389D01*
X71000097Y-42688685D01*
X70988931Y-42683766D01*
X70986853Y-42682537D01*
X70982198Y-42680486D01*
X70974318Y-42675824D01*
X70961133Y-42666716D01*
X70331950Y-42163369D01*
X70323550Y-42155945D01*
X70318662Y-42151177D01*
X70307064Y-42137977D01*
X70305989Y-42136546D01*
X70302273Y-42131296D01*
X69287964Y-40609834D01*
X69285463Y-40605912D01*
X69283615Y-40602882D01*
X69281309Y-40598921D01*
X68648395Y-39459676D01*
X68643449Y-39449642D01*
X68641255Y-39444579D01*
X68634411Y-39423269D01*
X68633901Y-39420908D01*
X68631346Y-39398663D01*
X68631306Y-39396232D01*
X68633138Y-39373936D01*
X68633573Y-39371545D01*
X68639721Y-39350026D01*
X68640614Y-39347768D01*
X68650843Y-39327859D01*
X68651913Y-39326201D01*
X68655521Y-39321723D01*
X68655993Y-39320991D01*
X68662756Y-39312597D01*
X68663371Y-39311980D01*
X68666977Y-39307504D01*
X68671742Y-39302722D01*
X68681295Y-39294155D01*
X69310265Y-38790979D01*
X69322916Y-38782188D01*
X69332982Y-38776156D01*
X69346711Y-38769141D01*
X70228852Y-38391081D01*
X70239966Y-38386986D01*
X70248607Y-38384302D01*
X70260106Y-38381374D01*
X70888905Y-38255614D01*
X70900053Y-38253952D01*
X70908621Y-38253104D01*
X70919884Y-38252548D01*
X72437716Y-38252548D01*
X72448979Y-38253104D01*
X72448979Y-38253104D01*
G37*
G36*
X78499597Y-29693836D02*
G01*
X78521564Y-29698205D01*
X78525110Y-29699281D01*
X78541611Y-29705724D01*
X78543388Y-29706582D01*
X78549153Y-29709572D01*
X79688938Y-30342785D01*
X79694925Y-30346354D01*
X79699399Y-30349210D01*
X79705159Y-30353136D01*
X81097235Y-31365555D01*
X81108940Y-31375326D01*
X81117354Y-31383363D01*
X81127668Y-31394624D01*
X81631143Y-32023967D01*
X81637698Y-32033040D01*
X81640706Y-32037666D01*
X81651005Y-32057526D01*
X81652370Y-32060940D01*
X81657684Y-32078001D01*
X81658132Y-32079972D01*
X81659431Y-32086573D01*
X81785621Y-32843711D01*
X81786922Y-32854872D01*
X81787320Y-32860820D01*
X81786832Y-32881483D01*
X81786358Y-32885614D01*
X81784879Y-32895029D01*
X81658991Y-33524467D01*
X81656252Y-33535352D01*
X81655038Y-33539340D01*
X81652989Y-33543992D01*
X81652285Y-33546303D01*
X81647366Y-33557469D01*
X81646137Y-33559547D01*
X81644086Y-33564202D01*
X81639424Y-33572082D01*
X81630316Y-33585267D01*
X81126969Y-34214450D01*
X81119545Y-34222850D01*
X81114777Y-34227738D01*
X81101577Y-34239336D01*
X81100146Y-34240411D01*
X81094896Y-34244127D01*
X79573434Y-35258436D01*
X79569512Y-35260937D01*
X79566482Y-35262785D01*
X79562521Y-35265091D01*
X78423276Y-35898005D01*
X78413242Y-35902951D01*
X78408179Y-35905145D01*
X78386869Y-35911989D01*
X78384508Y-35912499D01*
X78362263Y-35915054D01*
X78359832Y-35915094D01*
X78337536Y-35913262D01*
X78335145Y-35912827D01*
X78313626Y-35906679D01*
X78311368Y-35905786D01*
X78291459Y-35895557D01*
X78289801Y-35894487D01*
X78285323Y-35890879D01*
X78284591Y-35890407D01*
X78276197Y-35883644D01*
X78275580Y-35883029D01*
X78271104Y-35879423D01*
X78266322Y-35874658D01*
X78257755Y-35865105D01*
X77754579Y-35236135D01*
X77745788Y-35223484D01*
X77739756Y-35213418D01*
X77732741Y-35199689D01*
X77354681Y-34317548D01*
X77350586Y-34306434D01*
X77347902Y-34297793D01*
X77344974Y-34286294D01*
X77219214Y-33657495D01*
X77217552Y-33646347D01*
X77216704Y-33637779D01*
X77216148Y-33626516D01*
X77216148Y-32108684D01*
X77216704Y-32097421D01*
X77217552Y-32088853D01*
X77219214Y-32077705D01*
X77344795Y-31449804D01*
X77348763Y-31435121D01*
X77352521Y-31424169D01*
X77358400Y-31410152D01*
X77990171Y-30146610D01*
X77995671Y-30136839D01*
X77999190Y-30131248D01*
X78010185Y-30116550D01*
X78011797Y-30114723D01*
X78016670Y-30109534D01*
X78394140Y-29732064D01*
X78402441Y-29724541D01*
X78406689Y-29721055D01*
X78412364Y-29717263D01*
X78420174Y-29712044D01*
X78420179Y-29712041D01*
X78425310Y-29708613D01*
X78427438Y-29707475D01*
X78448122Y-29698908D01*
X78450436Y-29698205D01*
X78472403Y-29693836D01*
X78474805Y-29693599D01*
X78497195Y-29693599D01*
X78499597Y-29693836D01*
X78499597Y-29693836D01*
G37*
G36*
X65223264Y-29644138D02*
G01*
X65225655Y-29644573D01*
X65247174Y-29650721D01*
X65249432Y-29651614D01*
X65269341Y-29661843D01*
X65270999Y-29662913D01*
X65275477Y-29666521D01*
X65276209Y-29666993D01*
X65284603Y-29673756D01*
X65285220Y-29674371D01*
X65289696Y-29677977D01*
X65294478Y-29682742D01*
X65303045Y-29692295D01*
X65806221Y-30321265D01*
X65815012Y-30333916D01*
X65821044Y-30343982D01*
X65828059Y-30357711D01*
X66206119Y-31239852D01*
X66210214Y-31250966D01*
X66212898Y-31259607D01*
X66215826Y-31271106D01*
X66341586Y-31899905D01*
X66343248Y-31911053D01*
X66344096Y-31919621D01*
X66344652Y-31930884D01*
X66344652Y-33448716D01*
X66344096Y-33459979D01*
X66343248Y-33468547D01*
X66341586Y-33479695D01*
X66216005Y-34107596D01*
X66212037Y-34122279D01*
X66208279Y-34133231D01*
X66202400Y-34147248D01*
X65570629Y-35410790D01*
X65565129Y-35420561D01*
X65561610Y-35426152D01*
X65550615Y-35440850D01*
X65549003Y-35442677D01*
X65544130Y-35447866D01*
X65166660Y-35825336D01*
X65158359Y-35832859D01*
X65154111Y-35836345D01*
X65148979Y-35839774D01*
X65140626Y-35845356D01*
X65140621Y-35845359D01*
X65135490Y-35848787D01*
X65133362Y-35849925D01*
X65112678Y-35858492D01*
X65110364Y-35859195D01*
X65088397Y-35863564D01*
X65085995Y-35863801D01*
X65063605Y-35863801D01*
X65061203Y-35863564D01*
X65039236Y-35859195D01*
X65035690Y-35858119D01*
X65019189Y-35851676D01*
X65017412Y-35850818D01*
X65011647Y-35847828D01*
X63871862Y-35214615D01*
X63865875Y-35211046D01*
X63861401Y-35208190D01*
X63855641Y-35204264D01*
X62463565Y-34191845D01*
X62451860Y-34182074D01*
X62443446Y-34174037D01*
X62433132Y-34162776D01*
X61929657Y-33533433D01*
X61923102Y-33524360D01*
X61920094Y-33519734D01*
X61909795Y-33499874D01*
X61908430Y-33496460D01*
X61903116Y-33479399D01*
X61902668Y-33477428D01*
X61901369Y-33470827D01*
X61775179Y-32713689D01*
X61773878Y-32702528D01*
X61773480Y-32696580D01*
X61773968Y-32675917D01*
X61774442Y-32671786D01*
X61775921Y-32662371D01*
X61901809Y-32032933D01*
X61904548Y-32022048D01*
X61905762Y-32018060D01*
X61907811Y-32013408D01*
X61908515Y-32011097D01*
X61913434Y-31999931D01*
X61914663Y-31997853D01*
X61916714Y-31993198D01*
X61921376Y-31985318D01*
X61930484Y-31972133D01*
X62433831Y-31342950D01*
X62441255Y-31334550D01*
X62446023Y-31329662D01*
X62459223Y-31318064D01*
X62460654Y-31316989D01*
X62465908Y-31313270D01*
X63987366Y-30298964D01*
X63991288Y-30296463D01*
X63994318Y-30294615D01*
X63998279Y-30292309D01*
X65137524Y-29659395D01*
X65147558Y-29654449D01*
X65152621Y-29652255D01*
X65173931Y-29645411D01*
X65176292Y-29644901D01*
X65198537Y-29642346D01*
X65200968Y-29642306D01*
X65223264Y-29644138D01*
X65223264Y-29644138D01*
G37*
G36*
X71895883Y-22759568D02*
G01*
X71900014Y-22760042D01*
X71909429Y-22761521D01*
X72538867Y-22887409D01*
X72549752Y-22890148D01*
X72553740Y-22891362D01*
X72558392Y-22893411D01*
X72560703Y-22894115D01*
X72571869Y-22899034D01*
X72573947Y-22900263D01*
X72578602Y-22902314D01*
X72586482Y-22906976D01*
X72599667Y-22916084D01*
X73228850Y-23419431D01*
X73237250Y-23426855D01*
X73242138Y-23431623D01*
X73253736Y-23444823D01*
X73254811Y-23446254D01*
X73258527Y-23451504D01*
X74272836Y-24972966D01*
X74275337Y-24976888D01*
X74277185Y-24979918D01*
X74279491Y-24983879D01*
X74912405Y-26123124D01*
X74917351Y-26133158D01*
X74919545Y-26138221D01*
X74926389Y-26159531D01*
X74926899Y-26161892D01*
X74929454Y-26184137D01*
X74929494Y-26186568D01*
X74927662Y-26208864D01*
X74927227Y-26211255D01*
X74921079Y-26232774D01*
X74920186Y-26235032D01*
X74909957Y-26254941D01*
X74908887Y-26256599D01*
X74905279Y-26261077D01*
X74904807Y-26261809D01*
X74898044Y-26270203D01*
X74897429Y-26270820D01*
X74893823Y-26275296D01*
X74889058Y-26280078D01*
X74879505Y-26288645D01*
X74250535Y-26791821D01*
X74237884Y-26800612D01*
X74227818Y-26806644D01*
X74214089Y-26813659D01*
X73331948Y-27191719D01*
X73320834Y-27195814D01*
X73312193Y-27198498D01*
X73300694Y-27201426D01*
X72671895Y-27327186D01*
X72660747Y-27328848D01*
X72652179Y-27329696D01*
X72640916Y-27330252D01*
X71123084Y-27330252D01*
X71111821Y-27329696D01*
X71103253Y-27328848D01*
X71092105Y-27327186D01*
X70464204Y-27201605D01*
X70449521Y-27197637D01*
X70438569Y-27193879D01*
X70424552Y-27188000D01*
X69161010Y-26556229D01*
X69151239Y-26550729D01*
X69145648Y-26547210D01*
X69130950Y-26536215D01*
X69129123Y-26534603D01*
X69123934Y-26529730D01*
X68746464Y-26152260D01*
X68738941Y-26143959D01*
X68735455Y-26139711D01*
X68729367Y-26130600D01*
X68726444Y-26126226D01*
X68726441Y-26126221D01*
X68723013Y-26121090D01*
X68721875Y-26118962D01*
X68713308Y-26098278D01*
X68712605Y-26095964D01*
X68708236Y-26073997D01*
X68707999Y-26071595D01*
X68707999Y-26049205D01*
X68708236Y-26046803D01*
X68712605Y-26024836D01*
X68713681Y-26021290D01*
X68720124Y-26004789D01*
X68720982Y-26003012D01*
X68723972Y-25997247D01*
X69357185Y-24857462D01*
X69360754Y-24851475D01*
X69363610Y-24847001D01*
X69367536Y-24841241D01*
X70379955Y-23449165D01*
X70389726Y-23437460D01*
X70397763Y-23429046D01*
X70409024Y-23418732D01*
X71038367Y-22915257D01*
X71047440Y-22908702D01*
X71052066Y-22905694D01*
X71071926Y-22895395D01*
X71075340Y-22894030D01*
X71092401Y-22888716D01*
X71094372Y-22888268D01*
X71100973Y-22886969D01*
X71858111Y-22760779D01*
X71869272Y-22759478D01*
X71875220Y-22759080D01*
X71895883Y-22759568D01*
X71895883Y-22759568D01*
G37*
M02*
