G04 #@! TF.GenerationSoftware,KiCad,Pcbnew,5.1.2-1.fc30*
G04 #@! TF.CreationDate,2019-06-18T23:23:49+02:00*
G04 #@! TF.ProjectId,bricopixels,62726963-6f70-4697-9865-6c732e6b6963,1*
G04 #@! TF.SameCoordinates,Original*
G04 #@! TF.FileFunction,Legend,Bot*
G04 #@! TF.FilePolarity,Positive*
%FSLAX46Y46*%
G04 Gerber Fmt 4.6, Leading zero omitted, Abs format (unit mm)*
G04 Created by KiCad (PCBNEW 5.1.2-1.fc30) date 2019-06-18 23:23:49*
%MOMM*%
%LPD*%
G04 APERTURE LIST*
%ADD10C,0.200000*%
%ADD11C,0.300000*%
%ADD12C,0.250000*%
%ADD13C,0.010000*%
G04 APERTURE END LIST*
D10*
X76877800Y-33408857D02*
X76925419Y-33504095D01*
X76925419Y-33646952D01*
X76877800Y-33789809D01*
X76782561Y-33885047D01*
X76687323Y-33932666D01*
X76496847Y-33980285D01*
X76353990Y-33980285D01*
X76163514Y-33932666D01*
X76068276Y-33885047D01*
X75973038Y-33789809D01*
X75925419Y-33646952D01*
X75925419Y-33551714D01*
X75973038Y-33408857D01*
X76020657Y-33361238D01*
X76353990Y-33361238D01*
X76353990Y-33551714D01*
X76592085Y-32932666D02*
X75925419Y-32932666D01*
X76496847Y-32932666D02*
X76544466Y-32885047D01*
X76592085Y-32789809D01*
X76592085Y-32646952D01*
X76544466Y-32551714D01*
X76449228Y-32504095D01*
X75925419Y-32504095D01*
X75925419Y-31599333D02*
X76925419Y-31599333D01*
X75973038Y-31599333D02*
X75925419Y-31694571D01*
X75925419Y-31885047D01*
X75973038Y-31980285D01*
X76020657Y-32027904D01*
X76115895Y-32075523D01*
X76401609Y-32075523D01*
X76496847Y-32027904D01*
X76544466Y-31980285D01*
X76592085Y-31885047D01*
X76592085Y-31694571D01*
X76544466Y-31599333D01*
X67162371Y-34178714D02*
X67162371Y-33416809D01*
X66781419Y-33797761D02*
X67543323Y-33797761D01*
X67781419Y-32464428D02*
X67781419Y-32940619D01*
X67305228Y-32988238D01*
X67352847Y-32940619D01*
X67400466Y-32845380D01*
X67400466Y-32607285D01*
X67352847Y-32512047D01*
X67305228Y-32464428D01*
X67209990Y-32416809D01*
X66971895Y-32416809D01*
X66876657Y-32464428D01*
X66829038Y-32512047D01*
X66781419Y-32607285D01*
X66781419Y-32845380D01*
X66829038Y-32940619D01*
X66876657Y-32988238D01*
X67781419Y-32131095D02*
X66781419Y-31797761D01*
X67781419Y-31464428D01*
D11*
X71831200Y-28897971D02*
X71831200Y-27755114D01*
X71545485Y-28040828D02*
X71831200Y-27755114D01*
X72116914Y-28040828D01*
X71805800Y-37787971D02*
X71805800Y-36645114D01*
X71520085Y-36930828D02*
X71805800Y-36645114D01*
X72091514Y-36930828D01*
D12*
X75401038Y-35666371D02*
X75258180Y-35713990D01*
X75210561Y-35761609D01*
X75162942Y-35856847D01*
X75162942Y-35999704D01*
X75210561Y-36094942D01*
X75258180Y-36142561D01*
X75353419Y-36190180D01*
X75734371Y-36190180D01*
X75734371Y-35190180D01*
X75401038Y-35190180D01*
X75305800Y-35237800D01*
X75258180Y-35285419D01*
X75210561Y-35380657D01*
X75210561Y-35475895D01*
X75258180Y-35571133D01*
X75305800Y-35618752D01*
X75401038Y-35666371D01*
X75734371Y-35666371D01*
X74734371Y-36190180D02*
X74734371Y-35523514D01*
X74734371Y-35713990D02*
X74686752Y-35618752D01*
X74639133Y-35571133D01*
X74543895Y-35523514D01*
X74448657Y-35523514D01*
X74115323Y-36190180D02*
X74115323Y-35523514D01*
X74115323Y-35190180D02*
X74162942Y-35237800D01*
X74115323Y-35285419D01*
X74067704Y-35237800D01*
X74115323Y-35190180D01*
X74115323Y-35285419D01*
X73210561Y-36142561D02*
X73305800Y-36190180D01*
X73496276Y-36190180D01*
X73591514Y-36142561D01*
X73639133Y-36094942D01*
X73686752Y-35999704D01*
X73686752Y-35713990D01*
X73639133Y-35618752D01*
X73591514Y-35571133D01*
X73496276Y-35523514D01*
X73305800Y-35523514D01*
X73210561Y-35571133D01*
X72639133Y-36190180D02*
X72734371Y-36142561D01*
X72781990Y-36094942D01*
X72829609Y-35999704D01*
X72829609Y-35713990D01*
X72781990Y-35618752D01*
X72734371Y-35571133D01*
X72639133Y-35523514D01*
X72496276Y-35523514D01*
X72401038Y-35571133D01*
X72353419Y-35618752D01*
X72305800Y-35713990D01*
X72305800Y-35999704D01*
X72353419Y-36094942D01*
X72401038Y-36142561D01*
X72496276Y-36190180D01*
X72639133Y-36190180D01*
X71877228Y-36190180D02*
X71877228Y-35190180D01*
X71496276Y-35190180D01*
X71401038Y-35237800D01*
X71353419Y-35285419D01*
X71305800Y-35380657D01*
X71305800Y-35523514D01*
X71353419Y-35618752D01*
X71401038Y-35666371D01*
X71496276Y-35713990D01*
X71877228Y-35713990D01*
X70877228Y-36190180D02*
X70877228Y-35523514D01*
X70877228Y-35190180D02*
X70924847Y-35237800D01*
X70877228Y-35285419D01*
X70829609Y-35237800D01*
X70877228Y-35190180D01*
X70877228Y-35285419D01*
X70496276Y-36190180D02*
X69972466Y-35523514D01*
X70496276Y-35523514D02*
X69972466Y-36190180D01*
X69210561Y-36142561D02*
X69305800Y-36190180D01*
X69496276Y-36190180D01*
X69591514Y-36142561D01*
X69639133Y-36047323D01*
X69639133Y-35666371D01*
X69591514Y-35571133D01*
X69496276Y-35523514D01*
X69305800Y-35523514D01*
X69210561Y-35571133D01*
X69162942Y-35666371D01*
X69162942Y-35761609D01*
X69639133Y-35856847D01*
X68591514Y-36190180D02*
X68686752Y-36142561D01*
X68734371Y-36047323D01*
X68734371Y-35190180D01*
X68258180Y-36142561D02*
X68162942Y-36190180D01*
X67972466Y-36190180D01*
X67877228Y-36142561D01*
X67829609Y-36047323D01*
X67829609Y-35999704D01*
X67877228Y-35904466D01*
X67972466Y-35856847D01*
X68115323Y-35856847D01*
X68210561Y-35809228D01*
X68258180Y-35713990D01*
X68258180Y-35666371D01*
X68210561Y-35571133D01*
X68115323Y-35523514D01*
X67972466Y-35523514D01*
X67877228Y-35571133D01*
D13*
G36*
X71832315Y-29960171D02*
G01*
X71699449Y-30007970D01*
X71638515Y-30134377D01*
X71634489Y-30155147D01*
X71539824Y-30339387D01*
X71355414Y-30497518D01*
X71111803Y-30718741D01*
X70958195Y-30980042D01*
X70898609Y-31257467D01*
X70937064Y-31527063D01*
X71077577Y-31764876D01*
X71133472Y-31820473D01*
X71366145Y-31960267D01*
X71616417Y-31998412D01*
X71851808Y-31934128D01*
X71977742Y-31840787D01*
X72082001Y-31705618D01*
X72129520Y-31582994D01*
X72129805Y-31575791D01*
X72086707Y-31408882D01*
X71980737Y-31270479D01*
X71846882Y-31200331D01*
X71798579Y-31199446D01*
X71705682Y-31236583D01*
X71679278Y-31335893D01*
X71683583Y-31412049D01*
X71664899Y-31579729D01*
X71576958Y-31647504D01*
X71433273Y-31607456D01*
X71393502Y-31581979D01*
X71285592Y-31438409D01*
X71260567Y-31244734D01*
X71317156Y-31041788D01*
X71414550Y-30905886D01*
X71626848Y-30772306D01*
X71869233Y-30747233D01*
X72115118Y-30828993D01*
X72287226Y-30960807D01*
X72476304Y-31204588D01*
X72553218Y-31459064D01*
X72537678Y-31708191D01*
X72424847Y-31996006D01*
X72219963Y-32231105D01*
X71950143Y-32394669D01*
X71642510Y-32467880D01*
X71452915Y-32460880D01*
X71078146Y-32409823D01*
X70800111Y-32382463D01*
X70593856Y-32379172D01*
X70434427Y-32400319D01*
X70296873Y-32446275D01*
X70227731Y-32479064D01*
X69907638Y-32707968D01*
X69678761Y-33013666D01*
X69551506Y-33379029D01*
X69528199Y-33630563D01*
X69485258Y-33810544D01*
X69398103Y-33950537D01*
X69305252Y-34102496D01*
X69311593Y-34224887D01*
X69359642Y-34314465D01*
X69451515Y-34339290D01*
X69572911Y-34325735D01*
X69813755Y-34332118D01*
X70042052Y-34418430D01*
X70355409Y-34521685D01*
X70657756Y-34519188D01*
X70926681Y-34419123D01*
X71139770Y-34229671D01*
X71271522Y-33969561D01*
X71295189Y-33714783D01*
X71224031Y-33485628D01*
X71078234Y-33305755D01*
X70877987Y-33198824D01*
X70643476Y-33188494D01*
X70611129Y-33195580D01*
X70451055Y-33289088D01*
X70361977Y-33446163D01*
X70364938Y-33605920D01*
X70445056Y-33708905D01*
X70563108Y-33712649D01*
X70675905Y-33621407D01*
X70752665Y-33550746D01*
X70837730Y-33585601D01*
X70853101Y-33598017D01*
X70943248Y-33734836D01*
X70933258Y-33885685D01*
X70840204Y-34024423D01*
X70681159Y-34124912D01*
X70485281Y-34161141D01*
X70433765Y-34149216D01*
X69583372Y-34149216D01*
X69574091Y-34242385D01*
X69500534Y-34285044D01*
X69400352Y-34255333D01*
X69380719Y-34235622D01*
X69378133Y-34146444D01*
X69438511Y-34071107D01*
X69518608Y-34062565D01*
X69520927Y-34063934D01*
X69583372Y-34149216D01*
X70433765Y-34149216D01*
X70250393Y-34106769D01*
X70069241Y-33960364D01*
X69955076Y-33746994D01*
X69921147Y-33491729D01*
X69980706Y-33219636D01*
X69983744Y-33212269D01*
X70142598Y-32976741D01*
X70372111Y-32819504D01*
X70645005Y-32742952D01*
X70934004Y-32749479D01*
X71211828Y-32841479D01*
X71451202Y-33021346D01*
X71500887Y-33079109D01*
X71584900Y-33220412D01*
X71681243Y-33433003D01*
X71762982Y-33653395D01*
X71946006Y-34049860D01*
X72198739Y-34352870D01*
X72512345Y-34555294D01*
X72877987Y-34650006D01*
X73006319Y-34656406D01*
X73149868Y-34628073D01*
X73349490Y-34554538D01*
X73504451Y-34481027D01*
X73749504Y-34371137D01*
X73915296Y-34342795D01*
X73959888Y-34352770D01*
X74098768Y-34396989D01*
X74176116Y-34374939D01*
X74239274Y-34279199D01*
X74273103Y-34166026D01*
X74256509Y-34131772D01*
X74214310Y-34131772D01*
X74208507Y-34217695D01*
X74123493Y-34279097D01*
X74030439Y-34268816D01*
X73988341Y-34195773D01*
X74029617Y-34087993D01*
X74055690Y-34064878D01*
X74148471Y-34062082D01*
X74214310Y-34131772D01*
X74256509Y-34131772D01*
X74221510Y-34059531D01*
X74179503Y-34011913D01*
X74084545Y-33862268D01*
X74049947Y-33723490D01*
X73995037Y-33380168D01*
X73842590Y-33077917D01*
X73705900Y-32927213D01*
X73463059Y-32778572D01*
X73208534Y-32728489D01*
X72966824Y-32767973D01*
X72762428Y-32888031D01*
X72619845Y-33079672D01*
X72563573Y-33333904D01*
X72563463Y-33346514D01*
X72586124Y-33540484D01*
X72671015Y-33674335D01*
X72728075Y-33724072D01*
X72908244Y-33810097D01*
X73079749Y-33798574D01*
X73197514Y-33703645D01*
X73240910Y-33576886D01*
X73170647Y-33493081D01*
X73059073Y-33457995D01*
X72916148Y-33395951D01*
X72873377Y-33305108D01*
X72919216Y-33210290D01*
X73042120Y-33136322D01*
X73221845Y-33107971D01*
X73420940Y-33164002D01*
X73581748Y-33308595D01*
X73670648Y-33506494D01*
X73678585Y-33586889D01*
X73621793Y-33821685D01*
X73471690Y-34034537D01*
X73258686Y-34196808D01*
X73013193Y-34279858D01*
X72937223Y-34285044D01*
X72704378Y-34230220D01*
X72471629Y-34084972D01*
X72272667Y-33878139D01*
X72141183Y-33638557D01*
X72126429Y-33591043D01*
X72095589Y-33326426D01*
X72152725Y-33057447D01*
X72276411Y-32818509D01*
X71926265Y-32818509D01*
X71907511Y-32923213D01*
X71833998Y-32982928D01*
X71820048Y-32984068D01*
X71743552Y-32934346D01*
X71716951Y-32886977D01*
X71714476Y-32769367D01*
X71786948Y-32711382D01*
X71876057Y-32732591D01*
X71926265Y-32818509D01*
X72276411Y-32818509D01*
X72304812Y-32763644D01*
X72499060Y-32497563D01*
X72735145Y-32163177D01*
X72870842Y-31863062D01*
X72914223Y-31571589D01*
X72879624Y-31289398D01*
X72750610Y-30930230D01*
X72546423Y-30663897D01*
X72317804Y-30507114D01*
X72150435Y-30397384D01*
X72065547Y-30261976D01*
X72040725Y-30164009D01*
X72038446Y-30155426D01*
X71933241Y-30155426D01*
X71920452Y-30241788D01*
X71841162Y-30247504D01*
X71745757Y-30187340D01*
X71727122Y-30133464D01*
X71765793Y-30054557D01*
X71847144Y-30050040D01*
X71919180Y-30114370D01*
X71933241Y-30155426D01*
X72038446Y-30155426D01*
X72001571Y-30016577D01*
X71938338Y-29960091D01*
X71832315Y-29960171D01*
X71832315Y-29960171D01*
G37*
X71832315Y-29960171D02*
X71699449Y-30007970D01*
X71638515Y-30134377D01*
X71634489Y-30155147D01*
X71539824Y-30339387D01*
X71355414Y-30497518D01*
X71111803Y-30718741D01*
X70958195Y-30980042D01*
X70898609Y-31257467D01*
X70937064Y-31527063D01*
X71077577Y-31764876D01*
X71133472Y-31820473D01*
X71366145Y-31960267D01*
X71616417Y-31998412D01*
X71851808Y-31934128D01*
X71977742Y-31840787D01*
X72082001Y-31705618D01*
X72129520Y-31582994D01*
X72129805Y-31575791D01*
X72086707Y-31408882D01*
X71980737Y-31270479D01*
X71846882Y-31200331D01*
X71798579Y-31199446D01*
X71705682Y-31236583D01*
X71679278Y-31335893D01*
X71683583Y-31412049D01*
X71664899Y-31579729D01*
X71576958Y-31647504D01*
X71433273Y-31607456D01*
X71393502Y-31581979D01*
X71285592Y-31438409D01*
X71260567Y-31244734D01*
X71317156Y-31041788D01*
X71414550Y-30905886D01*
X71626848Y-30772306D01*
X71869233Y-30747233D01*
X72115118Y-30828993D01*
X72287226Y-30960807D01*
X72476304Y-31204588D01*
X72553218Y-31459064D01*
X72537678Y-31708191D01*
X72424847Y-31996006D01*
X72219963Y-32231105D01*
X71950143Y-32394669D01*
X71642510Y-32467880D01*
X71452915Y-32460880D01*
X71078146Y-32409823D01*
X70800111Y-32382463D01*
X70593856Y-32379172D01*
X70434427Y-32400319D01*
X70296873Y-32446275D01*
X70227731Y-32479064D01*
X69907638Y-32707968D01*
X69678761Y-33013666D01*
X69551506Y-33379029D01*
X69528199Y-33630563D01*
X69485258Y-33810544D01*
X69398103Y-33950537D01*
X69305252Y-34102496D01*
X69311593Y-34224887D01*
X69359642Y-34314465D01*
X69451515Y-34339290D01*
X69572911Y-34325735D01*
X69813755Y-34332118D01*
X70042052Y-34418430D01*
X70355409Y-34521685D01*
X70657756Y-34519188D01*
X70926681Y-34419123D01*
X71139770Y-34229671D01*
X71271522Y-33969561D01*
X71295189Y-33714783D01*
X71224031Y-33485628D01*
X71078234Y-33305755D01*
X70877987Y-33198824D01*
X70643476Y-33188494D01*
X70611129Y-33195580D01*
X70451055Y-33289088D01*
X70361977Y-33446163D01*
X70364938Y-33605920D01*
X70445056Y-33708905D01*
X70563108Y-33712649D01*
X70675905Y-33621407D01*
X70752665Y-33550746D01*
X70837730Y-33585601D01*
X70853101Y-33598017D01*
X70943248Y-33734836D01*
X70933258Y-33885685D01*
X70840204Y-34024423D01*
X70681159Y-34124912D01*
X70485281Y-34161141D01*
X70433765Y-34149216D01*
X69583372Y-34149216D01*
X69574091Y-34242385D01*
X69500534Y-34285044D01*
X69400352Y-34255333D01*
X69380719Y-34235622D01*
X69378133Y-34146444D01*
X69438511Y-34071107D01*
X69518608Y-34062565D01*
X69520927Y-34063934D01*
X69583372Y-34149216D01*
X70433765Y-34149216D01*
X70250393Y-34106769D01*
X70069241Y-33960364D01*
X69955076Y-33746994D01*
X69921147Y-33491729D01*
X69980706Y-33219636D01*
X69983744Y-33212269D01*
X70142598Y-32976741D01*
X70372111Y-32819504D01*
X70645005Y-32742952D01*
X70934004Y-32749479D01*
X71211828Y-32841479D01*
X71451202Y-33021346D01*
X71500887Y-33079109D01*
X71584900Y-33220412D01*
X71681243Y-33433003D01*
X71762982Y-33653395D01*
X71946006Y-34049860D01*
X72198739Y-34352870D01*
X72512345Y-34555294D01*
X72877987Y-34650006D01*
X73006319Y-34656406D01*
X73149868Y-34628073D01*
X73349490Y-34554538D01*
X73504451Y-34481027D01*
X73749504Y-34371137D01*
X73915296Y-34342795D01*
X73959888Y-34352770D01*
X74098768Y-34396989D01*
X74176116Y-34374939D01*
X74239274Y-34279199D01*
X74273103Y-34166026D01*
X74256509Y-34131772D01*
X74214310Y-34131772D01*
X74208507Y-34217695D01*
X74123493Y-34279097D01*
X74030439Y-34268816D01*
X73988341Y-34195773D01*
X74029617Y-34087993D01*
X74055690Y-34064878D01*
X74148471Y-34062082D01*
X74214310Y-34131772D01*
X74256509Y-34131772D01*
X74221510Y-34059531D01*
X74179503Y-34011913D01*
X74084545Y-33862268D01*
X74049947Y-33723490D01*
X73995037Y-33380168D01*
X73842590Y-33077917D01*
X73705900Y-32927213D01*
X73463059Y-32778572D01*
X73208534Y-32728489D01*
X72966824Y-32767973D01*
X72762428Y-32888031D01*
X72619845Y-33079672D01*
X72563573Y-33333904D01*
X72563463Y-33346514D01*
X72586124Y-33540484D01*
X72671015Y-33674335D01*
X72728075Y-33724072D01*
X72908244Y-33810097D01*
X73079749Y-33798574D01*
X73197514Y-33703645D01*
X73240910Y-33576886D01*
X73170647Y-33493081D01*
X73059073Y-33457995D01*
X72916148Y-33395951D01*
X72873377Y-33305108D01*
X72919216Y-33210290D01*
X73042120Y-33136322D01*
X73221845Y-33107971D01*
X73420940Y-33164002D01*
X73581748Y-33308595D01*
X73670648Y-33506494D01*
X73678585Y-33586889D01*
X73621793Y-33821685D01*
X73471690Y-34034537D01*
X73258686Y-34196808D01*
X73013193Y-34279858D01*
X72937223Y-34285044D01*
X72704378Y-34230220D01*
X72471629Y-34084972D01*
X72272667Y-33878139D01*
X72141183Y-33638557D01*
X72126429Y-33591043D01*
X72095589Y-33326426D01*
X72152725Y-33057447D01*
X72276411Y-32818509D01*
X71926265Y-32818509D01*
X71907511Y-32923213D01*
X71833998Y-32982928D01*
X71820048Y-32984068D01*
X71743552Y-32934346D01*
X71716951Y-32886977D01*
X71714476Y-32769367D01*
X71786948Y-32711382D01*
X71876057Y-32732591D01*
X71926265Y-32818509D01*
X72276411Y-32818509D01*
X72304812Y-32763644D01*
X72499060Y-32497563D01*
X72735145Y-32163177D01*
X72870842Y-31863062D01*
X72914223Y-31571589D01*
X72879624Y-31289398D01*
X72750610Y-30930230D01*
X72546423Y-30663897D01*
X72317804Y-30507114D01*
X72150435Y-30397384D01*
X72065547Y-30261976D01*
X72040725Y-30164009D01*
X72038446Y-30155426D01*
X71933241Y-30155426D01*
X71920452Y-30241788D01*
X71841162Y-30247504D01*
X71745757Y-30187340D01*
X71727122Y-30133464D01*
X71765793Y-30054557D01*
X71847144Y-30050040D01*
X71919180Y-30114370D01*
X71933241Y-30155426D01*
X72038446Y-30155426D01*
X72001571Y-30016577D01*
X71938338Y-29960091D01*
X71832315Y-29960171D01*
G36*
X71633926Y-28959546D02*
G01*
X71511051Y-28980498D01*
X71426629Y-29041145D01*
X71361371Y-29162534D01*
X71295987Y-29365714D01*
X71233341Y-29591420D01*
X71141669Y-29840144D01*
X71011867Y-30002860D01*
X70813866Y-30105750D01*
X70574941Y-30164705D01*
X70442244Y-30177926D01*
X70324954Y-30149919D01*
X70184340Y-30065459D01*
X70036831Y-29953187D01*
X69853008Y-29822157D01*
X69690442Y-29730869D01*
X69593783Y-29700654D01*
X69466937Y-29742613D01*
X69310437Y-29846871D01*
X69161693Y-29981000D01*
X69058116Y-30112571D01*
X69032509Y-30187193D01*
X69065392Y-30294140D01*
X69149336Y-30457246D01*
X69218097Y-30567971D01*
X69360821Y-30843192D01*
X69393892Y-31090052D01*
X69319040Y-31334464D01*
X69274511Y-31413271D01*
X69148904Y-31583667D01*
X69008253Y-31684757D01*
X68816436Y-31733045D01*
X68548292Y-31745044D01*
X68297847Y-31758237D01*
X68144727Y-31813893D01*
X68063718Y-31936126D01*
X68029609Y-32149049D01*
X68024220Y-32246287D01*
X68010048Y-32576785D01*
X68403014Y-32735366D01*
X68677882Y-32868226D01*
X68849973Y-33015901D01*
X68939822Y-33205302D01*
X68967961Y-33463338D01*
X68968097Y-33475935D01*
X68960890Y-33632081D01*
X68922236Y-33751162D01*
X68831077Y-33871610D01*
X68666356Y-34031857D01*
X68660536Y-34037239D01*
X68503216Y-34198215D01*
X68391717Y-34342059D01*
X68350780Y-34435229D01*
X68383625Y-34571145D01*
X68464907Y-34746126D01*
X68568744Y-34914979D01*
X68669254Y-35032510D01*
X68706670Y-35056678D01*
X68797520Y-35047070D01*
X68972526Y-34994203D01*
X69203654Y-34907406D01*
X69384715Y-34831062D01*
X69647622Y-34712422D01*
X69810946Y-34629293D01*
X69890094Y-34571045D01*
X69900473Y-34527049D01*
X69870705Y-34495763D01*
X69728493Y-34450994D01*
X69570060Y-34477461D01*
X69419057Y-34504504D01*
X69319084Y-34461475D01*
X69264561Y-34403101D01*
X69167632Y-34207217D01*
X69187037Y-34014029D01*
X69287389Y-33876475D01*
X69350594Y-33809080D01*
X69386136Y-33727873D01*
X69398259Y-33602688D01*
X69391206Y-33403360D01*
X69378840Y-33226318D01*
X69380891Y-32611987D01*
X69485411Y-32066780D01*
X69694148Y-31587653D01*
X70008855Y-31171564D01*
X70431282Y-30815469D01*
X70928806Y-30532412D01*
X71190163Y-30405069D01*
X71359619Y-30309721D01*
X71459171Y-30229586D01*
X71510817Y-30147883D01*
X71532002Y-30072228D01*
X71565558Y-29951252D01*
X71627551Y-29899452D01*
X71757953Y-29893598D01*
X71831101Y-29898393D01*
X72000845Y-29921375D01*
X72088551Y-29976040D01*
X72136025Y-30090359D01*
X72139869Y-30104982D01*
X72180493Y-30205789D01*
X72259786Y-30292685D01*
X72401868Y-30384258D01*
X72630860Y-30499098D01*
X72683081Y-30523634D01*
X73188207Y-30817523D01*
X73596836Y-31185208D01*
X73917724Y-31635106D01*
X73999043Y-31789102D01*
X74083063Y-31964775D01*
X74140454Y-32109039D01*
X74176288Y-32252260D01*
X74195637Y-32424806D01*
X74203572Y-32657043D01*
X74205165Y-32979340D01*
X74205170Y-33023321D01*
X74207503Y-33367469D01*
X74216216Y-33609983D01*
X74233888Y-33773073D01*
X74263093Y-33878949D01*
X74306407Y-33949820D01*
X74313585Y-33958037D01*
X74409332Y-34115357D01*
X74394178Y-34274759D01*
X74325087Y-34395837D01*
X74230161Y-34488546D01*
X74093173Y-34520541D01*
X73975542Y-34518037D01*
X73812541Y-34522268D01*
X73711650Y-34552457D01*
X73699760Y-34566789D01*
X73744354Y-34610518D01*
X73875754Y-34686031D01*
X74065228Y-34780363D01*
X74284040Y-34880550D01*
X74503458Y-34973625D01*
X74694749Y-35046624D01*
X74829180Y-35086581D01*
X74860213Y-35090410D01*
X74923913Y-35042117D01*
X75024681Y-34917657D01*
X75104828Y-34799500D01*
X75207084Y-34627388D01*
X75274297Y-34493426D01*
X75289817Y-34443281D01*
X75247434Y-34372651D01*
X75134832Y-34245121D01*
X74974602Y-34085875D01*
X74940731Y-34054196D01*
X74764363Y-33886939D01*
X74662850Y-33770523D01*
X74618915Y-33672938D01*
X74615282Y-33562180D01*
X74625938Y-33471022D01*
X74711460Y-33174011D01*
X74885280Y-32953975D01*
X75160362Y-32795362D01*
X75202844Y-32778957D01*
X75437333Y-32683508D01*
X75572423Y-32593835D01*
X75628012Y-32482245D01*
X75623996Y-32321045D01*
X75606575Y-32217039D01*
X75559664Y-32027065D01*
X75504153Y-31884857D01*
X75479255Y-31848057D01*
X75384875Y-31808257D01*
X75204652Y-31771710D01*
X74976570Y-31746002D01*
X74963260Y-31745044D01*
X74729171Y-31725137D01*
X74582811Y-31695875D01*
X74488132Y-31642277D01*
X74409086Y-31549362D01*
X74375845Y-31500919D01*
X74244421Y-31277490D01*
X74192702Y-31089992D01*
X74219566Y-30896468D01*
X74323892Y-30654961D01*
X74351787Y-30601307D01*
X74451355Y-30403376D01*
X74521764Y-30245319D01*
X74547651Y-30161953D01*
X74501888Y-30077926D01*
X74390816Y-29954347D01*
X74249486Y-29824330D01*
X74112946Y-29720985D01*
X74040376Y-29682722D01*
X73928759Y-29701782D01*
X73746488Y-29804020D01*
X73578075Y-29925992D01*
X73381819Y-30071866D01*
X73244185Y-30150753D01*
X73130368Y-30177046D01*
X73005562Y-30165142D01*
X73001595Y-30164403D01*
X72716163Y-30085350D01*
X72518426Y-29958885D01*
X72386728Y-29761667D01*
X72299412Y-29470355D01*
X72283931Y-29390897D01*
X72240229Y-29166100D01*
X72192570Y-29036544D01*
X72112566Y-28976004D01*
X71971828Y-28958251D01*
X71814546Y-28957239D01*
X71633926Y-28959546D01*
X71633926Y-28959546D01*
G37*
X71633926Y-28959546D02*
X71511051Y-28980498D01*
X71426629Y-29041145D01*
X71361371Y-29162534D01*
X71295987Y-29365714D01*
X71233341Y-29591420D01*
X71141669Y-29840144D01*
X71011867Y-30002860D01*
X70813866Y-30105750D01*
X70574941Y-30164705D01*
X70442244Y-30177926D01*
X70324954Y-30149919D01*
X70184340Y-30065459D01*
X70036831Y-29953187D01*
X69853008Y-29822157D01*
X69690442Y-29730869D01*
X69593783Y-29700654D01*
X69466937Y-29742613D01*
X69310437Y-29846871D01*
X69161693Y-29981000D01*
X69058116Y-30112571D01*
X69032509Y-30187193D01*
X69065392Y-30294140D01*
X69149336Y-30457246D01*
X69218097Y-30567971D01*
X69360821Y-30843192D01*
X69393892Y-31090052D01*
X69319040Y-31334464D01*
X69274511Y-31413271D01*
X69148904Y-31583667D01*
X69008253Y-31684757D01*
X68816436Y-31733045D01*
X68548292Y-31745044D01*
X68297847Y-31758237D01*
X68144727Y-31813893D01*
X68063718Y-31936126D01*
X68029609Y-32149049D01*
X68024220Y-32246287D01*
X68010048Y-32576785D01*
X68403014Y-32735366D01*
X68677882Y-32868226D01*
X68849973Y-33015901D01*
X68939822Y-33205302D01*
X68967961Y-33463338D01*
X68968097Y-33475935D01*
X68960890Y-33632081D01*
X68922236Y-33751162D01*
X68831077Y-33871610D01*
X68666356Y-34031857D01*
X68660536Y-34037239D01*
X68503216Y-34198215D01*
X68391717Y-34342059D01*
X68350780Y-34435229D01*
X68383625Y-34571145D01*
X68464907Y-34746126D01*
X68568744Y-34914979D01*
X68669254Y-35032510D01*
X68706670Y-35056678D01*
X68797520Y-35047070D01*
X68972526Y-34994203D01*
X69203654Y-34907406D01*
X69384715Y-34831062D01*
X69647622Y-34712422D01*
X69810946Y-34629293D01*
X69890094Y-34571045D01*
X69900473Y-34527049D01*
X69870705Y-34495763D01*
X69728493Y-34450994D01*
X69570060Y-34477461D01*
X69419057Y-34504504D01*
X69319084Y-34461475D01*
X69264561Y-34403101D01*
X69167632Y-34207217D01*
X69187037Y-34014029D01*
X69287389Y-33876475D01*
X69350594Y-33809080D01*
X69386136Y-33727873D01*
X69398259Y-33602688D01*
X69391206Y-33403360D01*
X69378840Y-33226318D01*
X69380891Y-32611987D01*
X69485411Y-32066780D01*
X69694148Y-31587653D01*
X70008855Y-31171564D01*
X70431282Y-30815469D01*
X70928806Y-30532412D01*
X71190163Y-30405069D01*
X71359619Y-30309721D01*
X71459171Y-30229586D01*
X71510817Y-30147883D01*
X71532002Y-30072228D01*
X71565558Y-29951252D01*
X71627551Y-29899452D01*
X71757953Y-29893598D01*
X71831101Y-29898393D01*
X72000845Y-29921375D01*
X72088551Y-29976040D01*
X72136025Y-30090359D01*
X72139869Y-30104982D01*
X72180493Y-30205789D01*
X72259786Y-30292685D01*
X72401868Y-30384258D01*
X72630860Y-30499098D01*
X72683081Y-30523634D01*
X73188207Y-30817523D01*
X73596836Y-31185208D01*
X73917724Y-31635106D01*
X73999043Y-31789102D01*
X74083063Y-31964775D01*
X74140454Y-32109039D01*
X74176288Y-32252260D01*
X74195637Y-32424806D01*
X74203572Y-32657043D01*
X74205165Y-32979340D01*
X74205170Y-33023321D01*
X74207503Y-33367469D01*
X74216216Y-33609983D01*
X74233888Y-33773073D01*
X74263093Y-33878949D01*
X74306407Y-33949820D01*
X74313585Y-33958037D01*
X74409332Y-34115357D01*
X74394178Y-34274759D01*
X74325087Y-34395837D01*
X74230161Y-34488546D01*
X74093173Y-34520541D01*
X73975542Y-34518037D01*
X73812541Y-34522268D01*
X73711650Y-34552457D01*
X73699760Y-34566789D01*
X73744354Y-34610518D01*
X73875754Y-34686031D01*
X74065228Y-34780363D01*
X74284040Y-34880550D01*
X74503458Y-34973625D01*
X74694749Y-35046624D01*
X74829180Y-35086581D01*
X74860213Y-35090410D01*
X74923913Y-35042117D01*
X75024681Y-34917657D01*
X75104828Y-34799500D01*
X75207084Y-34627388D01*
X75274297Y-34493426D01*
X75289817Y-34443281D01*
X75247434Y-34372651D01*
X75134832Y-34245121D01*
X74974602Y-34085875D01*
X74940731Y-34054196D01*
X74764363Y-33886939D01*
X74662850Y-33770523D01*
X74618915Y-33672938D01*
X74615282Y-33562180D01*
X74625938Y-33471022D01*
X74711460Y-33174011D01*
X74885280Y-32953975D01*
X75160362Y-32795362D01*
X75202844Y-32778957D01*
X75437333Y-32683508D01*
X75572423Y-32593835D01*
X75628012Y-32482245D01*
X75623996Y-32321045D01*
X75606575Y-32217039D01*
X75559664Y-32027065D01*
X75504153Y-31884857D01*
X75479255Y-31848057D01*
X75384875Y-31808257D01*
X75204652Y-31771710D01*
X74976570Y-31746002D01*
X74963260Y-31745044D01*
X74729171Y-31725137D01*
X74582811Y-31695875D01*
X74488132Y-31642277D01*
X74409086Y-31549362D01*
X74375845Y-31500919D01*
X74244421Y-31277490D01*
X74192702Y-31089992D01*
X74219566Y-30896468D01*
X74323892Y-30654961D01*
X74351787Y-30601307D01*
X74451355Y-30403376D01*
X74521764Y-30245319D01*
X74547651Y-30161953D01*
X74501888Y-30077926D01*
X74390816Y-29954347D01*
X74249486Y-29824330D01*
X74112946Y-29720985D01*
X74040376Y-29682722D01*
X73928759Y-29701782D01*
X73746488Y-29804020D01*
X73578075Y-29925992D01*
X73381819Y-30071866D01*
X73244185Y-30150753D01*
X73130368Y-30177046D01*
X73005562Y-30165142D01*
X73001595Y-30164403D01*
X72716163Y-30085350D01*
X72518426Y-29958885D01*
X72386728Y-29761667D01*
X72299412Y-29470355D01*
X72283931Y-29390897D01*
X72240229Y-29166100D01*
X72192570Y-29036544D01*
X72112566Y-28976004D01*
X71971828Y-28958251D01*
X71814546Y-28957239D01*
X71633926Y-28959546D01*
M02*
