<?xml version="1.0" encoding="UTF-8" standalone="no"?>
<!-- Created with Inkscape (http://www.inkscape.org/) -->

<svg
   xmlns:dc="http://purl.org/dc/elements/1.1/"
   xmlns:cc="http://creativecommons.org/ns#"
   xmlns:rdf="http://www.w3.org/1999/02/22-rdf-syntax-ns#"
   xmlns:svg="http://www.w3.org/2000/svg"
   xmlns="http://www.w3.org/2000/svg"
   xmlns:sodipodi="http://sodipodi.sourceforge.net/DTD/sodipodi-0.dtd"
   xmlns:inkscape="http://www.inkscape.org/namespaces/inkscape"
   version="1.1"
   id="svg2"
   width="126.72"
   height="126.72"
   viewBox="0 0 126.72 126.72"
   sodipodi:docname="bricolabs_logo.svg"
   inkscape:version="0.92.4 (unknown)">
  <metadata
     id="metadata8">
    <rdf:RDF>
      <cc:Work
         rdf:about="">
        <dc:format>image/svg+xml</dc:format>
        <dc:type
           rdf:resource="http://purl.org/dc/dcmitype/StillImage" />
        <dc:title />
      </cc:Work>
    </rdf:RDF>
  </metadata>
  <defs
     id="defs6" />
  <sodipodi:namedview
     pagecolor="#ffffff"
     bordercolor="#666666"
     borderopacity="1"
     objecttolerance="10"
     gridtolerance="10"
     guidetolerance="10"
     inkscape:pageopacity="0"
     inkscape:pageshadow="2"
     inkscape:window-width="1600"
     inkscape:window-height="836"
     id="namedview4"
     showgrid="false"
     inkscape:snap-to-guides="false"
     inkscape:zoom="5.2675883"
     inkscape:cx="55.445737"
     inkscape:cy="74.899521"
     inkscape:window-x="0"
     inkscape:window-y="27"
     inkscape:window-maximized="1"
     inkscape:current-layer="svg2" />
  <path
     style="fill:#000000;stroke:#f8f8f8;stroke-width:0.40000001;stroke-miterlimit:4;stroke-dasharray:none;stroke-opacity:1"
     d="m 13.799319,109.8987 c -0.5377,-0.15806 -1.26725,-0.61454 -1.62122,-1.0144 -1.06713,-1.20545 -4.1867501,-6.72051 -4.5503501,-8.04438 -0.71319,-2.596699 -0.1966,-3.351176 5.4297901,-7.930187 2.79804,-2.277175 3.55748,-3.088224 4.28602,-4.577299 0.83816,-1.713146 0.87426,-1.968548 0.67629,-4.784848 -0.11502,-1.636308 -0.42306,-3.695492 -0.68453,-4.575965 -0.61916,-2.084947 -2.63047,-4.374659 -4.40424,-5.013872 -0.74477,-0.268391 -3.1541301,-1.10233 -5.3541301,-1.853197 -6.00229,-2.048598 -6.35584,-2.633715 -5.40148,-8.939443 0.69936,-4.620912 0.99043,-5.459683 2.26754,-6.534301 0.92931,-0.781965 1.02906,-0.79352 6.8487701,-0.79352 4.24743,0 6.19739,-0.121866 6.94444,-0.434 1.36977,-0.572326 3.5984,-3.096627 5.15392,-5.837696 1.05857,-1.865357 1.27511,-2.56673 1.39437,-4.516275 0.16656,-2.722941 -0.0498,-3.260739 -3.43851,-8.545182 -3.56121,-5.553524 -3.45885,-6.494817 1.14306,-10.511428 5.81084,-5.071774 6.12795,-5.057588 12.28789,0.549685 1.496,1.36178 3.49504,2.841495 4.44231,3.288256 1.5284,0.720843 1.99674,0.791896 4.16,0.631121 2.95955,-0.219957 6.02549,-1.232896 7.82217,-2.584323 2.02199,-1.520902 2.83706,-3.475617 4.031544,-9.668505 0.57409,-2.976409 1.25754,-5.74768 1.518778,-6.158381 0.836381,-1.314896 2.26719,-1.653272 6.990813,-1.653272 6.523104,0 6.854502,0.266991 7.974301,6.424501 0.429648,2.362524 0.879868,4.99008 1.000492,5.839012 0.258605,1.820038 1.755488,4.208549 3.275741,5.226961 0.580883,0.38913 2.381239,1.148962 4.000791,1.688517 3.29431,1.0975 5.947808,1.271737 7.770361,0.510226 0.619709,-0.258931 2.778823,-1.947865 4.798029,-3.753187 4.269533,-3.817282 4.663789,-4.06956 6.383469,-4.084691 1.485892,-0.01307 1.875132,0.224096 5.693832,3.469259 4.97044,4.223926 4.98254,4.94219 0.21098,12.519402 -2.30476,3.659949 -2.68943,4.72592 -2.44628,6.778918 0.23422,1.977664 2.79213,7.433018 4.14917,8.849124 2.09413,2.18527 2.86168,2.374419 9.42261,2.322051 6.70929,-0.05356 7.31615,0.11736 8.38986,2.362918 0.89145,1.864384 1.96115,8.831069 1.57223,10.239603 -0.52843,1.913834 -1.28987,2.404064 -6.2012,3.992458 -5.59549,1.809661 -5.81198,1.913075 -7.27175,3.473686 -1.26863,1.356266 -1.4976,1.854141 -2.26961,4.935101 -1.07245,4.279936 -1.07528,5.445747 -0.0183,7.56673 0.69612,1.396918 1.53345,2.23487 4.88,4.883613 4.67432,3.699644 5.42012,4.729024 4.94152,6.82047 -0.48695,2.128 -4.17838,8.4537 -5.35026,9.1683 -1.844,1.12445 -2.78496,0.87493 -12.83155,-3.40265 -1.935999,-0.8243 -4.743999,-1.99969 -6.239999,-2.61199 -1.496,-0.61229 -2.826349,-1.21445 -2.956333,-1.33813 -0.229229,-0.21811 3.013917,-2.76465 3.509641,-2.755796 0.13568,0.0026 1.44978,0.415277 2.920221,0.917446 2.65832,0.90785 2.6782,0.90955 3.49432,0.30023 1.37684,-1.027954 3.3508,-4.452786 3.38818,-5.878514 0.0299,-1.14112 -0.16628,-1.458147 -2.12243,-3.429402 l -2.15541,-2.172048 0.31689,-4.471059 c 0.17429,-2.459081 0.4691,-5.886861 0.65513,-7.617286 0.31449,-2.925306 0.026,-9.141555 -0.54453,-11.733773 C 99.158359,52.150974 89.544218,40.924376 77.176951,36.354494 c -1.448915,-0.535395 -6.275542,-2.772537 -7.485792,-3.469665 -0.06919,-0.03985 -0.330963,-1.263852 -0.581725,-2.72 -0.65895,-3.826428 -0.975046,-4.087541 -4.948262,-4.087541 -3.898803,0 -4.087168,0.150523 -4.87273,3.89386 l -0.575101,2.740453 -2.608195,1.306444 c -1.434505,0.718544 -3.400197,1.524014 -4.368197,1.789934 -2.25586,0.619708 -7.13892,2.998021 -9.63338,4.691978 -4.6973,3.189872 -9.03098,7.823952 -12.0759,12.912947 -4.11331,6.874621 -6.07704,16.083536 -5.17264,24.257181 0.239,2.159961 0.45315,5.627792 0.47589,7.706291 l 0.0413,3.779088 -1.16823,1.020912 c -0.64253,0.561501 -1.61477,1.397162 -2.16055,1.857024 -1.53501,1.293382 -1.571,2.091184 -0.21668,4.803245 1.37613,2.755734 2.24351,3.798505 3.16593,3.806135 0.36532,0.003 1.84978,-0.38587 3.2988,-0.864186 l 2.63458,-0.869674 0.88542,0.654608 c 0.48698,0.360032 1.35342,0.896612 1.92542,1.192402 0.572,0.29579 1.04,0.66047 1.04,0.81041 0,0.14995 -1.332,0.85438 -2.96,1.56542 -1.628,0.71104 -5.048,2.25076 -7.6,3.42161 -7.67455,3.52105 -8.69986,3.8503 -10.41764,3.34533 z m 62.98137,-7.34404 c -5.9241,-2.10584 -10.893831,-6.763967 -12.890215,-12.081999 -0.378947,-1.009456 -1.040617,-3.18496 -1.470377,-4.834458 -1.117661,-4.289805 -2.130615,-6.208384 -4.611002,-8.733446 -1.622275,-1.651498 -2.776502,-2.486995 -4.673266,-3.382784 -2.42832,-1.146832 -2.64544,-1.189738 -6.03888,-1.193341 -3.14938,-0.0033 -3.74619,0.09161 -5.66827,0.901795 -3.83879,1.618106 -6.47849,4.629856 -7.47823,8.532247 -1.64968,6.439305 1.86806,12.661737 7.53769,13.333219 3.26298,0.386454 5.88446,-0.675843 7.4112,-3.003219 0.77782,-1.185719 1.01039,-3.2813 0.52794,-4.757034 -0.34629,-1.059277 -0.59768,-1.304406 -1.58903,-1.549456 -1.35738,-0.335536 -2.8213,0.368749 -2.8213,1.357318 0,1.040394 -0.79942,1.755748 -1.92628,1.723706 -1.46476,-0.04165 -2.86668,-1.483395 -3.09458,-3.182493 -0.64397,-4.801187 4.66381,-8.130592 9.96225,-6.249011 4.21958,1.498454 7.050161,7.209571 5.935908,11.976598 -1.250675,5.350682 -4.857208,8.841088 -10.520368,10.181618 -3.50159,0.82886 -8.5117,-0.40382 -11.72869,-2.885704 -1.99134,-1.536307 -2.8604,-1.597478 -5.76261,-0.405629 -2.46602,1.012717 -2.69787,0.937642 -4.22563,-1.368265 -1.52785,-2.306052 -1.41324,-2.816535 1.17919,-5.252116 l 2.21919,-2.084918 -0.0258,-3.84 c -0.0352,-5.253942 1.03987,-8.644819 3.97244,-12.528973 2.63114,-3.484928 7.05659,-6.257014 11.75162,-7.361181 3.16071,-0.743328 7.37907,-0.432128 11.38332,0.83978 2.91463,0.925801 3.502409,1.006953 6.590998,0.910006 3.2392,-0.101677 3.511373,-0.166253 6.08,-1.442515 5.245625,-2.606371 8.43552,-7.087715 8.838707,-12.417117 0.688931,-9.106336 -7.83464,-16.032792 -15.621946,-12.694765 -1.487257,0.637514 -3.420233,2.537162 -4.286768,4.212855 -0.722803,1.397744 -0.953267,3.850889 -0.492844,5.245987 0.690563,2.092422 2.825184,4.035923 4.432809,4.035923 0.337005,0 0.992157,-0.298451 1.455891,-0.663226 0.968096,-0.761504 1.143431,-2.337452 0.373332,-3.355612 -1.276173,-1.687252 0.09745,-3.767828 2.487558,-3.767828 2.470278,0 4.270829,1.653258 5.06761,4.653056 0.342163,1.288208 0.321923,1.754445 -0.139757,3.219063 -0.651507,2.066819 -2.311715,4.088905 -4.332455,5.276803 -1.344919,0.790614 -1.794899,0.877744 -4.533133,0.877744 -2.91561,0 -3.126438,-0.04866 -5.152534,-1.189117 -9.344668,-5.259984 -7.917378,-19.659443 2.422179,-24.43661 1.324073,-0.61176 2.612189,-1.432237 2.862477,-1.823282 0.250291,-0.391045 0.555878,-1.718991 0.679088,-2.950991 0.304985,-3.04966 0.632966,-3.36 3.551008,-3.36 2.792003,0 3.136656,0.331755 3.490633,3.36 0.358557,3.067387 0.802147,3.835915 2.559757,4.434792 5.169178,1.761316 10.089443,7.694322 11.201648,13.507282 1.168486,6.107136 0.03659,11.640432 -3.40881,16.663971 -0.500211,0.729328 -2.107555,2.529328 -3.571881,4 -3.129283,3.142854 -4.486967,5.36559 -5.358256,8.772294 -0.810384,3.16857 -0.803415,5.465783 0.0257,8.468093 1.485302,5.378544 5.524534,9.222573 10.764205,10.24401 3.994627,0.778726 8.089897,-0.56728 10.759296,-3.536298 1.80718,-2.010019 2.482067,-3.457763 2.692208,-5.775235 0.428886,-4.729824 -2.262404,-8.570893 -6.402935,-9.138416 -2.619053,-0.358979 -5.10608,1.121072 -5.541414,3.29775 -0.313239,1.566192 0.683133,2.366618 2.655219,2.133053 2.092477,-0.247821 3.137776,0.551552 3.090272,2.363238 -0.09531,3.6349 -4.716282,5.511456 -8.173238,3.31912 -2.912477,-1.84704 -3.966596,-4.15271 -3.696976,-8.0864 0.129017,-1.882291 0.371324,-2.846982 0.97144,-3.867539 1.77424,-3.017277 4.7112,-5.031545 8.300931,-5.693072 3.695888,-0.681088 7.731181,0.792387 10.995862,4.015104 3.176736,3.135898 4.27087,6.138701 4.27941,11.744624 l 0.005,3.106368 2.24,1.787261 c 1.73646,1.385498 2.24,1.973523 2.24,2.615859 1e-5,1.463923 -2.19443,4.584141 -3.224,4.584141 -0.30384,0 -1.322738,-0.358592 -2.264213,-0.796874 -2.286067,-1.06422 -3.36352,-1.032156 -4.576541,0.136199 -1.47015,1.416017 -4.568118,3.167567 -6.848944,3.872297 -2.762822,0.85366 -8.421897,0.84622 -10.842553,-0.0142 z m -48.99084,-6.508162 c 0.47373,-0.591888 0.4817,-0.764823 0.0718,-1.557514 -0.61738,-1.193875 -2.06528,-1.236298 -2.82118,-0.08266 -0.53101,0.810429 -0.47502,1.136538 0.36335,2.116246 0.5579,0.651946 1.65906,0.432234 2.38605,-0.476076 z m 73.955021,0.777456 c 0.53902,-0.05798 0.85792,-1.627629 0.49328,-2.427933 -0.2783,-0.610791 -0.60625,-0.798733 -1.39374,-0.798733 -0.84209,0 -1.10216,0.174656 -1.426678,0.958112 -0.515821,1.245309 0.18903,2.502374 1.332828,2.377021 0.41051,-0.04499 0.85795,-0.0938 0.99431,-0.108467 z M 65.105748,75.179144 c 1.423849,-0.997302 0.553725,-3.341856 -1.240247,-3.341856 -0.952652,0 -1.88855,0.986768 -1.88855,1.991203 0,0.733575 1.115222,1.848797 1.848797,1.848797 0.312841,0 0.888841,-0.224166 1.28,-0.498144 z m 0.652979,-44.141856 c 0.584022,-1.281793 -0.0869,-2.4 -1.44,-2.4 -1.387434,0 -2.049466,1.152411 -1.380314,2.402734 0.603418,1.127497 2.306096,1.125846 2.820314,-0.0027 z"
     id="path817"
     inkscape:connector-curvature="0"
     sodipodi:nodetypes="ccsscsscsssscssssssssscssccssscsscccscssccccsscsccccccsccsccsscsssssccscscsccssssccccscscssssccsssssssssscssssssssscsccssssscsccscssscscssssccsscsssccccscssccccscccccscccssssscsscc"
     inkscape:export-xdpi="96"
     inkscape:export-ydpi="96" />
</svg>
